<svg width="61" height="61" viewBox="0 0 61 61" fill="none" xmlns="http://www.w3.org/2000/svg">
<g clip-path="url(#clip0_118_6190)">
<path d="M57.6699 27.5699V47.5999" stroke="#FF233B" stroke-width="5" stroke-miterlimit="10"/>
<path d="M2.5 32.59V12.56C2.5 7 7.01 2.5 12.56 2.5H32.59" stroke="#FF233B" stroke-width="5" stroke-miterlimit="10"/>
<path d="M52.9667 55.9167H48.9V27.3333C49.4393 27.3333 49.9565 27.1182 50.3378 26.7353C50.7191 26.3525 50.9333 25.8332 50.9333 25.2917C50.9333 24.7502 50.7191 24.2309 50.3378 23.848C49.9565 23.4651 49.4393 23.25 48.9 23.25H48.7V15.0833C49.2393 15.0833 49.7565 14.8682 50.1378 14.4853C50.5191 14.1025 50.7333 13.5832 50.7333 13.0417C50.7333 12.5002 50.5191 11.9809 50.1378 11.598C49.7565 11.2151 49.2393 11 48.7 11H12.1C11.5607 11 11.0435 11.2151 10.6622 11.598C10.2809 11.9809 10.0667 12.5002 10.0667 13.0417C10.0667 13.5832 10.2809 14.1025 10.6622 14.4853C11.0435 14.8682 11.5607 15.0833 12.1 15.0833V55.9167H8.03333C7.49406 55.9167 6.97687 56.1318 6.59555 56.5147C6.21423 56.8975 6 57.4169 6 57.9583C6 58.4998 6.21423 59.0191 6.59555 59.402C6.97687 59.7849 7.49406 60 8.03333 60H52.9667C53.5059 60 54.0231 59.7849 54.4044 59.402C54.7858 59.0191 55 58.4998 55 57.9583C55 57.4169 54.7858 56.8975 54.4044 56.5147C54.0231 56.1318 53.5059 55.9167 52.9667 55.9167ZM44.8333 27.3333V55.9167H48.7V27.3333H44.8333ZM16.1667 15.0833H44.6333V55.9167H38.5333V43.6667C38.5333 43.1252 38.3191 42.6059 37.9378 42.223C37.5565 41.8401 37.0393 41.625 36.5 41.625H24.3C23.7607 41.625 23.2435 41.8401 22.8622 42.223C22.4809 42.6059 22.2667 43.1252 22.2667 43.6667V55.9167H16.1667V15.0833ZM34.4667 55.9167H26.3333V45.7083H34.4667V55.9167ZM20.2333 23.25C20.2333 22.7085 20.4476 22.1892 20.8289 21.8063C21.2102 21.4234 21.7274 21.2083 22.2667 21.2083H26.3333C26.8726 21.2083 27.3898 21.4234 27.7711 21.8063C28.1524 22.1892 28.3667 22.7085 28.3667 23.25C28.3667 23.7915 28.1524 24.3108 27.7711 24.6937C27.3898 25.0766 26.8726 25.2917 26.3333 25.2917H22.2667C21.7274 25.2917 21.2102 25.0766 20.8289 24.6937C20.4476 24.3108 20.2333 23.7915 20.2333 23.25ZM32.4333 23.25C32.4333 22.7085 32.6476 22.1892 33.0289 21.8063C33.4102 21.4234 33.9274 21.2083 34.4667 21.2083H38.5333C39.0726 21.2083 39.5898 21.4234 39.9711 21.8063C40.3524 22.1892 40.5667 22.7085 40.5667 23.25C40.5667 23.7915 40.3524 24.3108 39.9711 24.6937C39.5898 25.0766 39.0726 25.2917 38.5333 25.2917H34.4667C33.9274 25.2917 33.4102 25.0766 33.0289 24.6937C32.6476 24.3108 32.4333 23.7915 32.4333 23.25ZM20.2333 33.4583C20.2333 32.9169 20.4476 32.3975 20.8289 32.0147C21.2102 31.6318 21.7274 31.4167 22.2667 31.4167H26.3333C26.8726 31.4167 27.3898 31.6318 27.7711 32.0147C28.1524 32.3975 28.3667 32.9169 28.3667 33.4583C28.3667 33.9998 28.1524 34.5191 27.7711 34.902C27.3898 35.2849 26.8726 35.5 26.3333 35.5H22.2667C21.7274 35.5 21.2102 35.2849 20.8289 34.902C20.4476 34.5191 20.2333 33.9998 20.2333 33.4583ZM32.4333 33.4583C32.4333 32.9169 32.6476 32.3975 33.0289 32.0147C33.4102 31.6318 33.9274 31.4167 34.4667 31.4167H38.5333C39.0726 31.4167 39.5898 31.6318 39.9711 32.0147C40.3524 32.3975 40.5667 32.9169 40.5667 33.4583C40.5667 33.9998 40.3524 34.5191 39.9711 34.902C39.5898 35.2849 39.0726 35.5 38.5333 35.5H34.4667C33.9274 35.5 33.4102 35.2849 33.0289 34.902C32.6476 34.5191 32.4333 33.9998 32.4333 33.4583Z" fill="#FF233B"/>
</g>
<defs>
<clipPath id="clip0_118_6190">
<rect width="60.17" height="60.17" fill="white"/>
</clipPath>
</defs>
</svg>
