<svg width="20" height="21" viewBox="0 0 20 21" fill="none" xmlns="http://www.w3.org/2000/svg">
<path d="M18.125 10.5C18.125 7.60938 16.5625 4.95312 14.0625 3.46875C11.5234 2.02344 8.4375 2.02344 5.9375 3.46875C3.39844 4.95312 1.875 7.60938 1.875 10.5C1.875 13.4297 3.39844 16.0859 5.9375 17.5703C8.4375 19.0156 11.5234 19.0156 14.0625 17.5703C16.5625 16.0859 18.125 13.4297 18.125 10.5ZM0 10.5C0 6.94531 1.875 3.66406 5 1.86719C8.08594 0.0703125 11.875 0.0703125 15 1.86719C18.0859 3.66406 20 6.94531 20 10.5C20 14.0938 18.0859 17.375 15 19.1719C11.875 20.9688 8.08594 20.9688 5 19.1719C1.875 17.375 0 14.0938 0 10.5Z" fill="#0A1F2D"/>
</svg>
