<svg width="69" height="62" viewBox="0 0 69 62" fill="none" xmlns="http://www.w3.org/2000/svg">
<path d="M58.7794 30V50.75C58.7794 54.848 55.4573 58.17 51.3594 58.17H11.0294C6.93142 58.17 3.60938 54.848 3.60938 50.75V10.42C3.60938 6.32205 6.93142 3 11.0294 3H51.3594C51.3594 3 58.7794 3 58.7794 9.5C58.7794 16 58.7794 16.1667 58.7794 20" stroke="#B2BDD4" stroke-width="6" stroke-miterlimit="10"/>
<path d="M66.534 12.6463L58.7558 20.4244L51.6847 13.3534" stroke="#B2BDD4" stroke-width="5" stroke-miterlimit="10"/>
<path d="M31.0889 14.4902C31.8804 14.4902 32.6411 14.8013 33.2021 15.3574C33.7633 15.9137 34.079 16.6694 34.0791 17.458V30.5254L45.0264 37.0371H45.0273C45.7069 37.4418 46.198 38.0983 46.3906 38.8633C46.5832 39.6284 46.4608 40.4379 46.0518 41.1133C45.6426 41.7885 44.9803 42.2738 44.2119 42.4639C43.4437 42.6539 42.6307 42.5343 41.9512 42.1299L29.5518 34.7549H29.5508C29.1085 34.4915 28.7419 34.1181 28.4873 33.6719C28.2328 33.2257 28.0994 32.7212 28.0996 32.208V17.458C28.0997 16.6694 28.4154 15.9137 28.9766 15.3574C29.5375 14.8014 30.2975 14.4903 31.0889 14.4902Z" fill="#B2BDD4" stroke="#B2BDD4" stroke-width="1.02"/>
</svg>
