<svg width="69" height="62" viewBox="0 0 69 62" fill="none" xmlns="http://www.w3.org/2000/svg">
<path d="M58.7794 30.1699V50.9199C58.7794 55.0179 55.4573 58.3399 51.3594 58.3399H11.0294C6.93142 58.3399 3.60938 55.0179 3.60938 50.9199V10.5899C3.60938 6.49197 6.93142 3.16992 11.0294 3.16992H51.3594C51.3594 3.16992 58.7794 3.16992 58.7794 9.66992C58.7794 16.1699 58.7794 16.3366 58.7794 20.1699" stroke="#FF233B" stroke-width="6" stroke-miterlimit="10"/>
<path d="M66.534 12.8162L58.7558 20.5944L51.6847 13.5233" stroke="#FF233B" stroke-width="5" stroke-miterlimit="10"/>
<path d="M31.0889 14.6602C31.8804 14.6602 32.6411 14.9712 33.2021 15.5273C33.7633 16.0836 34.079 16.8394 34.0791 17.6279V30.6953L45.0264 37.207H45.0273C45.7069 37.6117 46.198 38.2682 46.3906 39.0332C46.5832 39.7983 46.4608 40.6078 46.0518 41.2832C45.6426 41.9585 44.9803 42.4437 44.2119 42.6338C43.4437 42.8238 42.6307 42.7042 41.9512 42.2998L29.5518 34.9248H29.5508C29.1085 34.6614 28.7419 34.288 28.4873 33.8418C28.2328 33.3956 28.0994 32.8911 28.0996 32.3779V17.6279C28.0997 16.8393 28.4154 16.0836 28.9766 15.5273C29.5375 14.9714 30.2975 14.6603 31.0889 14.6602Z" fill="#FF233B" stroke="#FF233B" stroke-width="1.02"/>
</svg>
