<svg width="34" height="27" viewBox="0 0 34 27" fill="none" xmlns="http://www.w3.org/2000/svg">
<path d="M28.9143 2.86317C32.6723 8.44553 34.5514 14.7211 33.8581 21.9636C33.8581 21.9636 33.8581 22.0183 33.8034 22.0183C31.3041 23.8973 28.44 25.3203 25.4299 26.2324C25.3752 26.2872 25.3751 26.2324 25.3204 26.2324C24.6819 25.3203 24.1164 24.4081 23.6056 23.4413V23.3318L23.6603 23.2771C24.5725 22.9305 25.4299 22.5291 26.2873 22.0183C26.2873 22.0183 26.342 22.0183 26.342 21.9636C26.342 21.9636 26.3238 21.921 26.2873 21.8359C26.1049 21.7264 25.9407 21.617 25.7765 21.4528H25.6488C20.2306 23.9521 14.3199 23.9521 8.84699 21.4528H8.71929C8.5551 21.617 8.37268 21.7264 8.20849 21.8359C8.20849 21.8359 8.19024 21.8785 8.15375 21.9636C8.15375 21.9636 8.15376 22.0183 8.20849 22.0183C9.01118 22.5291 9.92333 22.9305 10.8355 23.2771C10.8355 23.2771 10.8355 23.3318 10.8902 23.3318V23.4413C10.3794 24.4081 9.81387 25.3203 9.17537 26.2324C9.12064 26.2324 9.0659 26.2872 9.0659 26.2324C6.03757 25.3203 3.19166 23.8973 0.692369 22.0183C0.63764 22.0183 0.637642 21.9636 0.637642 21.9636C0.0538664 15.688 1.2579 9.35767 5.58149 2.86317H5.63623C7.80714 1.82332 10.0875 1.14833 12.4226 0.74698C12.4956 0.692251 12.5503 0.74698 12.5503 0.74698C12.8787 1.31251 13.1706 1.95102 13.4077 2.51655C15.9618 2.11521 18.534 2.11521 21.088 2.51655C21.3252 1.95102 21.6171 1.31251 21.9455 0.74698C21.9455 0.74698 22.0002 0.692251 22.0549 0.74698C24.4083 1.14833 26.6886 1.82332 28.8413 2.86317H28.9143ZM11.6929 18.1326C13.3348 18.1326 14.703 16.6001 14.703 14.7758C14.703 12.9515 13.4077 11.4191 11.6929 11.4191C9.97806 11.4191 8.66456 12.8968 8.66456 14.7758C8.66456 16.6549 10.0328 18.1326 11.6929 18.1326ZM22.8029 18.1326C24.5177 18.1326 25.8312 16.6001 25.8312 14.7758C25.8859 12.8968 24.5177 11.4191 22.8029 11.4191C21.088 11.4191 19.8475 12.8968 19.8475 14.7758C19.8475 16.6549 21.1428 18.1326 22.8029 18.1326Z" fill="#B2BDD4"/>
</svg>
