<svg width="61" height="61" viewBox="0 0 61 61" fill="none" xmlns="http://www.w3.org/2000/svg">
<g clip-path="url(#clip0_159_45300)">
<path d="M50.25 2.67004H9.92C5.82205 2.67004 2.5 5.99209 2.5 10.09V50.42C2.5 54.518 5.82205 57.84 9.92 57.84H50.25C54.348 57.84 57.67 54.518 57.67 50.42V10.09C57.67 5.99209 54.348 2.67004 50.25 2.67004Z" stroke="#FF233C" stroke-width="5" stroke-miterlimit="10"/>
<path d="M29.9967 19.4479C27.9103 19.4479 25.8708 20.0665 24.1361 21.2257C22.4013 22.3848 21.0493 24.0323 20.2508 25.9598C19.4524 27.8874 19.2435 30.0084 19.6506 32.0547C20.0576 34.101 21.0623 35.9806 22.5375 37.4559C24.0128 38.9311 25.8925 39.9358 27.9387 40.3428C29.985 40.7499 32.106 40.541 34.0336 39.7426C35.9611 38.9441 37.6086 37.5921 38.7677 35.8573C39.9269 34.1226 40.5455 32.0831 40.5455 29.9967C40.5426 27.1999 39.4303 24.5184 37.4526 22.5408C35.475 20.5631 32.7935 19.4508 29.9967 19.4479ZM29.9967 37.0293C28.6058 37.0293 27.2461 36.6168 26.0896 35.8441C24.9331 35.0713 24.0317 33.973 23.4995 32.6879C22.9672 31.4029 22.8279 29.9889 23.0993 28.6247C23.3706 27.2605 24.0404 26.0075 25.0239 25.0239C26.0075 24.0404 27.2605 23.3706 28.6247 23.0993C29.9889 22.8279 31.4029 22.9672 32.6879 23.4995C33.973 24.0317 35.0713 24.9331 35.8441 26.0896C36.6168 27.2461 37.0293 28.6058 37.0293 29.9967C37.0293 31.8619 36.2883 33.6506 34.9695 34.9695C33.6506 36.2883 31.8619 37.0293 29.9967 37.0293ZM49.3362 30.4714C49.345 30.1549 49.345 29.8385 49.3362 29.522L52.6152 25.4255C52.7871 25.2105 52.9061 24.958 52.9626 24.6885C53.0191 24.419 53.0115 24.14 52.9404 23.874C52.4029 21.8534 51.5988 19.9134 50.5494 18.1051C50.4119 17.8684 50.2212 17.6671 49.9923 17.5172C49.7634 17.3672 49.5026 17.2728 49.2308 17.2414L44.0179 16.6612C43.801 16.4327 43.5813 16.2129 43.3586 16.0019L42.7432 10.7758C42.7116 10.5038 42.6168 10.2429 42.4665 10.014C42.3161 9.78504 42.1144 9.5944 41.8773 9.45724C40.0683 8.40971 38.1284 7.60643 36.1084 7.06837C35.8422 6.99759 35.5631 6.99036 35.2936 7.04723C35.0241 7.10411 34.7718 7.22352 34.5569 7.39582L30.4714 10.6572C30.1549 10.6572 29.8385 10.6572 29.522 10.6572L25.4255 7.38483C25.2105 7.2129 24.958 7.0939 24.6885 7.0374C24.419 6.98091 24.14 6.9885 23.874 7.05957C21.8538 7.59806 19.9139 8.4021 18.1051 9.45064C17.8684 9.58806 17.6671 9.77881 17.5172 10.0077C17.3672 10.2366 17.2728 10.4974 17.2414 10.7692L16.6612 15.9909C16.4327 16.2092 16.2129 16.429 16.0019 16.6502L10.7758 17.2502C10.5038 17.2818 10.2429 17.3766 10.014 17.5269C9.78504 17.6773 9.5944 17.879 9.45724 18.1161C8.40971 19.9251 7.60643 21.865 7.06837 23.885C6.99759 24.1512 6.99036 24.4303 7.04723 24.6998C7.10411 24.9693 7.22352 25.2216 7.39582 25.4365L10.6572 29.522C10.6572 29.8385 10.6572 30.1549 10.6572 30.4714L7.38483 34.5679C7.2129 34.783 7.0939 35.0354 7.0374 35.3049C6.98091 35.5744 6.9885 35.8534 7.05957 36.1194C7.5971 38.14 8.40119 40.08 9.45064 41.8883C9.58806 42.125 9.77881 42.3263 10.0077 42.4762C10.2366 42.6262 10.4974 42.7206 10.7692 42.752L15.9821 43.3322C16.2004 43.5607 16.4202 43.7805 16.6414 43.9915L17.2502 49.2176C17.2818 49.4896 17.3766 49.7505 17.5269 49.9794C17.6773 50.2084 17.879 50.399 18.1161 50.5362C19.9251 51.5837 21.865 52.387 23.885 52.925C24.1512 52.9958 24.4303 53.0031 24.6998 52.9462C24.9693 52.8893 25.2216 52.7699 25.4365 52.5976L29.522 49.3362C29.8385 49.345 30.1549 49.345 30.4714 49.3362L34.5679 52.6152C34.783 52.7871 35.0354 52.9061 35.3049 52.9626C35.5744 53.0191 35.8534 53.0115 36.1194 52.9404C38.14 52.4029 40.08 51.5988 41.8883 50.5494C42.125 50.4119 42.3263 50.2212 42.4762 49.9923C42.6262 49.7634 42.7206 49.5026 42.752 49.2308L43.3322 44.0179C43.5607 43.801 43.7805 43.5813 43.9915 43.3586L49.2176 42.7432C49.4896 42.7116 49.7505 42.6168 49.9794 42.4665C50.2084 42.3161 50.399 42.1144 50.5362 41.8773C51.5837 40.0683 52.387 38.1284 52.925 36.1084C52.9958 35.8422 53.0031 35.5631 52.9462 35.2936C52.8893 35.0241 52.7699 34.7718 52.5976 34.5569L49.3362 30.4714ZM45.798 29.0429C45.8353 29.6782 45.8353 30.3152 45.798 30.9505C45.7718 31.3855 45.9081 31.8146 46.1804 32.1548L49.2989 36.0513C48.941 37.1885 48.4829 38.2917 47.9297 39.3478L42.963 39.9104C42.5304 39.9584 42.1311 40.1652 41.8422 40.4906C41.4191 40.9664 40.9686 41.4169 40.4928 41.84C40.1674 42.1289 39.9606 42.5283 39.9126 42.9608L39.361 47.9231C38.305 48.4765 37.2018 48.9347 36.0645 49.2923L32.1658 46.1738C31.8538 45.9245 31.4663 45.7889 31.067 45.7892H30.9615C30.3262 45.8266 29.6892 45.8266 29.0539 45.7892C28.6189 45.763 28.1898 45.8993 27.8496 46.1716L23.9421 49.2923C22.8049 48.9345 21.7017 48.4763 20.6456 47.9231L20.083 42.963C20.035 42.5304 19.8283 42.1311 19.5028 41.8422C19.027 41.4191 18.5765 40.9686 18.1534 40.4928C17.8645 40.1674 17.4652 39.9606 17.0326 39.9126L12.0703 39.3588C11.5169 38.3028 11.0587 37.1996 10.7011 36.0623L13.8196 32.1636C14.0919 31.8234 14.2282 31.3942 14.202 30.9593C14.1647 30.324 14.1647 29.687 14.202 29.0517C14.2282 28.6167 14.0919 28.1876 13.8196 27.8474L10.7011 23.9421C11.059 22.8049 11.5171 21.7017 12.0703 20.6456L17.0304 20.083C17.463 20.035 17.8623 19.8283 18.1512 19.5028C18.5743 19.027 19.0248 18.5765 19.5006 18.1534C19.8274 17.8643 20.0349 17.4641 20.083 17.0304L20.6346 12.0703C21.6906 11.5169 22.7938 11.0587 23.9311 10.7011L27.8298 13.8196C28.17 14.0919 28.5992 14.2282 29.0341 14.202C29.6694 14.1647 30.3064 14.1647 30.9417 14.202C31.3767 14.2282 31.8058 14.0919 32.146 13.8196L36.0513 10.7011C37.1885 11.059 38.2917 11.5171 39.3478 12.0703L39.9104 17.0304C39.9584 17.463 40.1652 17.8623 40.4906 18.1512C40.9664 18.5743 41.4169 19.0248 41.84 19.5006C42.1289 19.8261 42.5283 20.0328 42.9608 20.0808L47.9231 20.6324C48.4765 21.6884 48.9347 22.7916 49.2923 23.9289L46.1738 27.8276C45.8989 28.1706 45.7624 28.6042 45.7914 29.0429H45.798Z" fill="#FF233B"/>
</g>
<defs>
<clipPath id="clip0_159_45300">
<rect width="60.17" height="60.17" fill="white" transform="translate(0 0.170044)"/>
</clipPath>
</defs>
</svg>
