<svg width="34" height="33" viewBox="0 0 34 33" fill="none" xmlns="http://www.w3.org/2000/svg">
<path d="M11.6523 26.475C11.6523 26.3454 11.501 26.1941 11.3065 26.1941C11.1119 26.1941 10.9606 26.3454 10.9606 26.475C10.9606 26.6047 11.1119 26.7344 11.3065 26.6696C11.501 26.6696 11.6523 26.6047 11.6523 26.475ZM9.55581 26.1292C9.62065 25.9996 9.81517 25.9347 10.0313 25.9996C10.2258 26.0644 10.2906 26.1941 10.2906 26.3454C10.2258 26.475 10.0313 26.5399 9.87999 26.475C9.68548 26.475 9.55581 26.2589 9.55581 26.1292ZM12.5816 26.0644C12.7329 25.9996 12.9274 26.1292 12.9274 26.2589C12.9923 26.4102 12.8626 26.475 12.6464 26.5399C12.4519 26.6047 12.2574 26.5399 12.2574 26.4102C12.2574 26.1941 12.3871 26.0644 12.5816 26.0644ZM16.969 0.128906C26.3706 0.128906 34 7.28278 34 16.6196C34 24.0976 29.4181 30.5166 22.6532 32.7428C21.7671 32.9589 21.4429 32.4186 21.4429 31.9431C21.4429 31.4028 21.5077 28.5715 21.5077 26.3454C21.5077 24.7028 20.9674 23.7086 20.3623 23.1683C24.1445 22.7576 28.1213 22.2173 28.1213 15.7334C28.1213 13.8315 27.4513 12.967 26.3706 11.735C26.5003 11.2812 27.1055 9.50891 26.1761 7.1531C24.7497 6.67762 21.5077 8.96858 21.5077 8.96858C20.1461 8.57955 18.7413 8.42826 17.25 8.42826C15.7587 8.42826 14.4187 8.57955 13.0571 8.96858C13.0571 8.96858 9.75033 6.74246 8.41033 7.1531C7.45936 9.50891 7.99967 11.2812 8.19419 11.735C7.11354 12.967 6.57322 13.8315 6.57322 15.7334C6.57322 22.2173 10.4203 22.7576 14.2026 23.1683C13.6623 23.6221 13.2732 24.3786 13.1219 25.4592C12.1277 25.9347 9.68548 26.6696 8.19419 24.0328C7.24322 22.4118 5.55741 22.2821 5.55741 22.2821C3.93644 22.2821 5.49258 23.3628 5.49258 23.3628C6.57322 23.8383 7.32969 25.7834 7.32969 25.7834C8.32388 28.8308 13.0571 27.815 13.0571 27.815V32.0079C13.0571 32.4186 12.7977 32.9589 11.9116 32.8292C5.16839 30.5166 0.5 24.0976 0.5 16.6196C0.5 7.28278 7.65386 0.128906 16.969 0.128906ZM7.04871 23.4276C7.04871 23.4276 7.24323 23.4276 7.39452 23.4925C7.5242 23.6221 7.5242 23.8383 7.45936 23.9031C7.32968 23.9679 7.17838 23.9031 7.04871 23.8383C6.98387 23.7086 6.91903 23.4925 7.04871 23.4276ZM6.31388 22.8873C6.31388 22.8873 6.44354 22.8225 6.57322 22.8873C6.72451 22.9521 6.78936 23.017 6.78936 23.1034C6.72452 23.2331 6.57323 23.2331 6.44355 23.1683C6.31387 23.1034 6.24904 23.017 6.31388 22.8873ZM8.47517 25.3296C8.60484 25.1783 8.79936 25.2647 8.95065 25.3944C9.08033 25.5241 9.08033 25.7186 9.01549 25.7834C8.95065 25.9347 8.73452 25.8699 8.60484 25.7186C8.41032 25.5889 8.41033 25.3944 8.47517 25.3296ZM7.7187 24.3137C7.86999 24.2489 7.99968 24.3137 8.12935 24.4434C8.19419 24.5731 8.19419 24.7892 8.12935 24.8541C7.99968 24.9189 7.86999 24.8541 7.7187 24.7028C7.58902 24.5731 7.58902 24.3786 7.7187 24.3137Z" fill="#B2BDD4"/>
</svg>
