<svg width="61" height="62" viewBox="0 0 61 62" fill="none" xmlns="http://www.w3.org/2000/svg">
<g clip-path="url(#clip0_515_487)">
<path d="M50.7764 3.41992H10.4464C6.34841 3.41992 3.02637 6.74197 3.02637 10.8399V51.1699C3.02637 55.2679 6.34841 58.5899 10.4464 58.5899H50.7764C54.8743 58.5899 58.1964 55.2679 58.1964 51.1699V10.8399C58.1964 6.74197 54.8743 3.41992 50.7764 3.41992Z" stroke="#FF233B" stroke-width="5.5" stroke-miterlimit="10"/>
<path d="M30.6065 58.5799C37.499 58.5799 43.0865 46.2319 43.0865 30.9999C43.0865 15.7679 37.499 3.41992 30.6065 3.41992C23.714 3.41992 18.1265 15.7679 18.1265 30.9999C18.1265 46.2319 23.714 58.5799 30.6065 58.5799Z" stroke="#FF233B" stroke-width="5.5" stroke-miterlimit="10"/>
<path d="M4.94629 5.87012C8.98629 14.1901 18.9563 20.0701 30.6163 20.0701C42.2763 20.0701 51.8463 14.4201 56.0363 6.37012" stroke="#FF233B" stroke-width="5.5" stroke-miterlimit="10"/>
<path d="M56.0265 56.1399C51.9865 47.8199 42.0165 41.9399 30.3565 41.9399C18.6965 41.9399 9.12652 47.5899 4.93652 55.6399" stroke="#FF233B" stroke-width="5.5" stroke-miterlimit="10"/>
<path d="M58.1962 31H3.07617" stroke="#FF233B" stroke-width="5.5" stroke-miterlimit="10"/>
</g>
<defs>
<clipPath id="clip0_515_487">
<rect width="60.67" height="60.67" fill="white" transform="translate(0.276367 0.669922)"/>
</clipPath>
</defs>
</svg>
