<svg width="158" height="41" viewBox="0 0 158 41" fill="none" xmlns="http://www.w3.org/2000/svg">
<g clip-path="url(#clip0_460_327)">
<mask id="mask0_460_327" style="mask-type:luminance" maskUnits="userSpaceOnUse" x="0" y="0" width="158" height="41">
<path d="M157.556 0.265015H0.554993V40.1549H157.556V0.265015Z" fill="white"/>
</mask>
<g mask="url(#mask0_460_327)">
<path d="M17.7783 0.265015L0.554993 10.2375V30.1825L17.7783 40.1549L35.0016 30.1825V10.2375L17.7783 0.265015ZM27.705 25.9557L17.7815 31.7014L7.85799 25.9557V14.4642L17.7815 8.71848L27.705 14.4642V25.9557Z" fill="#617D99"/>
<path d="M53.8988 30.2032C52.1885 30.2032 50.6563 29.8107 49.307 29.0208C47.9563 28.2327 46.8902 27.095 46.1091 25.6048C45.3278 24.1144 44.938 22.321 44.938 20.2228C44.938 18.1246 45.3326 16.3024 46.1169 14.8073C46.9029 13.3138 47.9722 12.1746 49.3277 11.3911C50.6818 10.6077 52.206 10.2168 53.9005 10.2168C55.0014 10.2168 56.0293 10.3748 56.9743 10.6875C57.9211 11.0002 58.7628 11.455 59.5009 12.0517C60.2393 12.6485 60.8391 13.3777 61.3053 14.2393C61.7699 15.1009 62.0706 16.0806 62.2107 17.18H58.3682C58.2806 16.6231 58.112 16.1253 57.8607 15.6833C57.6076 15.2445 57.2894 14.8695 56.9044 14.56C56.5178 14.2504 56.0787 14.0159 55.5902 13.8547C55.0985 13.6936 54.564 13.6138 53.9817 13.6138C52.957 13.6138 52.0549 13.8707 51.2721 14.3845C50.4908 14.8983 49.8798 15.6466 49.4422 16.6311C49.0032 17.614 48.7835 18.8138 48.7835 20.2228C48.7835 21.6317 49.0047 22.8555 49.447 23.8352C49.891 24.8148 50.4988 25.5537 51.2769 26.0547C52.0549 26.5556 52.9523 26.8061 53.9657 26.8061C54.5306 26.8061 55.0555 26.7295 55.5408 26.5764C56.0261 26.4249 56.4636 26.2014 56.8503 25.9095C57.2354 25.6191 57.5599 25.2616 57.8208 24.8388C58.0818 24.416 58.2648 23.9309 58.3682 23.3837H62.2107C62.0976 24.2964 61.8271 25.1643 61.3975 25.9828C60.9679 26.7998 60.3952 27.5258 59.6776 28.1561C58.9617 28.7879 58.1183 29.2841 57.151 29.6528C56.182 30.0181 55.0985 30.2015 53.9021 30.2015V30.2063L53.8988 30.2032Z" fill="#617D99"/>
<path d="M67.9927 21.4434V29.9336H64.268V10.4705H67.8892V17.8757H68.0721C68.4095 17.0316 68.941 16.3646 69.6616 15.8764C70.3808 15.3897 71.2989 15.144 72.4094 15.144C73.4166 15.144 74.2997 15.361 75.0523 15.7966C75.8079 16.2322 76.395 16.8593 76.8103 17.6778C77.2272 18.4948 77.4341 19.4856 77.4341 20.6441V29.9304H73.6951V21.2712C73.6951 20.3297 73.4563 19.5973 72.979 19.0691C72.5017 18.5426 71.8271 18.2793 70.9599 18.2793C70.3776 18.2793 69.8653 18.4054 69.423 18.6591C68.9792 18.9129 68.6307 19.2718 68.3744 19.7362C68.1183 20.2036 67.991 20.7685 67.991 21.4419V21.4449L67.9927 21.4434Z" fill="#617D99"/>
<path d="M84.0557 30.2225C83.1265 30.2225 82.296 30.0565 81.5626 29.7261C80.829 29.3942 80.2514 28.9045 79.8298 28.2567C79.4082 27.6088 79.1982 26.8046 79.1982 25.8473C79.1982 25.0303 79.3478 24.3489 79.6485 23.8082C79.9491 23.2672 80.3565 22.8317 80.8736 22.4965C81.3906 22.1615 81.9747 21.9077 82.6317 21.7385C83.2872 21.5695 83.9761 21.4499 84.6953 21.3796C85.5465 21.2919 86.2324 21.2121 86.7541 21.1387C87.276 21.0654 87.6547 20.9472 87.8933 20.786C88.132 20.6248 88.2513 20.3872 88.2513 20.0744V20.009C88.2513 19.3547 88.0508 18.8475 87.6532 18.4868C87.2538 18.1261 86.6842 17.9443 85.9458 17.9443C85.1648 17.9443 84.5442 18.1151 84.0827 18.4613C83.6229 18.8043 83.3159 19.2208 83.1584 19.7074L79.693 19.3277C79.9094 18.4405 80.304 17.6843 80.8719 17.0619C81.44 16.4397 82.1544 15.9642 83.0136 15.6371C83.8728 15.31 84.8497 15.1456 85.9443 15.1456C86.7001 15.1456 87.4368 15.235 88.1527 15.4137C88.8688 15.5908 89.5148 15.8748 90.0939 16.2641C90.6698 16.6519 91.1328 17.164 91.4733 17.7991C91.8153 18.4357 91.9887 19.2095 91.9887 20.1254V29.9336H88.4215V27.9088H88.3182C88.0907 28.3428 87.79 28.7368 87.4065 29.0863C87.0246 29.4357 86.5553 29.7101 86 29.9161C85.4448 30.1219 84.7971 30.224 84.059 30.224H84.0542L84.0557 30.2225ZM85.0692 27.5578C85.712 27.5578 86.2721 27.4301 86.7494 27.1733C87.2268 26.9163 87.6005 26.5733 87.8696 26.1425C88.1384 25.7117 88.2737 25.2345 88.2737 24.7128V23.079C88.1527 23.1666 87.9729 23.2449 87.7406 23.3151C87.5052 23.3854 87.2411 23.449 86.945 23.505C86.6507 23.5608 86.358 23.6102 86.0716 23.655C85.7853 23.698 85.529 23.7331 85.3031 23.7586C84.8083 23.8289 84.3723 23.9421 83.9936 24.0968C83.6149 24.2548 83.3174 24.4671 83.101 24.7367C82.8848 25.0065 82.775 25.3462 82.775 25.7563C82.775 26.3483 82.9897 26.7966 83.4193 27.103C83.8488 27.4078 84.3977 27.5593 85.0661 27.5593H85.0677L85.0692 27.5578Z" fill="#617D99"/>
<path d="M94.4361 29.935V15.3322H98.1608V29.935H94.4361Z" fill="#617D99"/>
<path d="M104.335 21.4434V29.9336H100.611V15.3291H104.27V17.8757H104.428C104.757 17.0396 105.28 16.3758 105.996 15.8828C106.712 15.3897 107.613 15.1456 108.7 15.1456C109.707 15.1456 110.587 15.3626 111.336 15.7982C112.087 16.2322 112.669 16.8625 113.083 17.6843C113.495 18.5076 113.702 19.4936 113.702 20.6424V29.9288H109.977V21.2694C109.977 20.3377 109.737 19.6053 109.255 19.0756C108.774 18.5459 108.111 18.2778 107.268 18.2778C106.695 18.2778 106.187 18.4039 105.75 18.6575C105.311 18.9111 104.967 19.2703 104.714 19.7346C104.461 20.202 104.337 20.767 104.337 21.4402V21.4434H104.335Z" fill="#617D99"/>
<path d="M119.873 9.51312V29.9351H116.148V9.51312H119.873Z" fill="#617D99"/>
<path d="M122.32 29.935V15.3322H126.045V29.935H122.32Z" fill="#617D99"/>
<path d="M132.218 21.4434V29.9336H128.493V15.3291H132.153V17.8757H132.31C132.64 17.0396 133.163 16.3758 133.879 15.8828C134.595 15.3897 135.496 15.1456 136.582 15.1456C137.59 15.1456 138.469 15.3626 139.22 15.7982C139.971 16.2322 140.554 16.8625 140.966 17.6843C141.378 18.5076 141.585 19.4936 141.585 20.6424V29.9288H137.86V21.2694C137.86 20.3377 137.62 19.6053 137.138 19.0756C136.657 18.5459 135.994 18.2778 135.15 18.2778C134.578 18.2778 134.07 18.4039 133.633 18.6575C133.193 18.9111 132.85 19.2703 132.597 19.7346C132.344 20.202 132.218 20.767 132.218 21.4402V21.4434Z" fill="#617D99"/>
<path d="M153.139 29.9351H157.556L151.741 21.6557L157.255 15.3307H152.932L147.993 21.0397H147.761V10.4705H144.035V29.9351H147.761V25.1675L148.929 23.8688L153.139 29.9336V29.9351Z" fill="#617D99"/>
<path d="M98.19 9.51312H94.4653V13.2484H98.19V9.51312Z" fill="#617D99"/>
<path d="M126.077 9.51312H122.353V13.2484H126.077V9.51312Z" fill="#617D99"/>
</g>
</g>
<defs>
<clipPath id="clip0_460_327">
<rect width="157" height="40" fill="white" transform="translate(0.554993 0.265015)"/>
</clipPath>
</defs>
</svg>
