<svg width="151" height="38" viewBox="0 0 151 38" fill="none" xmlns="http://www.w3.org/2000/svg">
<g clip-path="url(#clip0_519_295)">
<path d="M119.398 26.958L113.64 11.4496H117.156L122.235 25.4122L127.28 11.4496H130.83L125.208 26.9239C124.766 28.1471 123.628 28.8943 122.32 28.8943C121.012 28.8943 119.857 28.1811 119.398 26.958ZM99.5583 26.958L93.783 11.4496H97.2991L102.378 25.4122L107.423 11.4496H110.973L105.351 26.9239C104.909 28.1471 103.771 28.8943 102.463 28.8943C101.155 28.8943 100 28.1811 99.5583 26.958ZM50.1116 13.0294C51.3685 11.8403 53.288 11.1099 54.8847 11.1099C57.2628 11.1099 59.2672 12.0611 60.4392 14.0144C61.7642 12.0611 63.9043 11.1099 66.3165 11.1099C70.8347 11.1099 72.992 14.3881 72.992 18.6348V28.4357H69.6626V18.6348C69.6626 16.4267 68.7962 14.4052 66.3165 14.4052C63.3778 14.4052 61.5604 16.2567 61.5604 19.2123V28.4357H61.0338C60.2695 28.4357 59.505 28.4357 58.7407 28.4357H58.214V18.6348C58.214 16.4267 57.3647 14.4052 54.8847 14.4052C51.946 14.4052 50.1116 16.2567 50.1116 19.2123V28.4357H46.7822V11.4496H50.1116V13.0294ZM79.6505 21.4715C80.2111 23.9175 82.1815 25.4803 84.7633 25.4803C86.6318 25.4803 88.3472 24.631 89.2986 22.9832L89.4854 22.6435L89.876 22.7284C90.6235 22.9322 91.3878 23.0682 92.1523 23.238L92.7808 23.391L92.509 23.9686C91.0991 27.0431 88.1098 28.7757 84.7633 28.7757C79.6505 28.7757 76.1853 24.9368 76.1853 19.8919C76.1853 14.83 79.6504 11.1101 84.7633 11.1101C89.8931 11.1101 93.1035 14.8811 93.1035 19.8919C93.1035 20.2656 93.1035 20.6393 93.0695 21.013L93.0184 21.4715H79.6505ZM138.916 24.6139L133.497 11.4496H137.013L142.057 23.5946L147.137 11.4496H150.686L140.36 36.1644H136.877L138.916 31.1706C139.816 28.9794 139.816 26.7883 138.916 24.6139ZM79.6505 18.3121H89.6215C89.061 15.9509 87.3114 14.4052 84.7633 14.4052C82.2155 14.4052 80.2451 15.9169 79.6505 18.3121Z" fill="#617D99"/>
<path d="M14.3042 7.35626C13.5059 5.75965 13.6757 3.925 14.5761 2.51514C15.4933 1.12229 17.1069 0.238901 18.9076 0.34101C20.6912 0.442898 22.2029 1.51306 22.9504 2.99077C23.6979 4.4855 23.6639 6.33694 22.6785 7.8319C21.6933 9.32684 20.0288 10.1081 18.3641 10.006C16.6824 9.90435 15.1195 8.95309 14.3042 7.35626ZM12.0791 17.2934L11.7902 17.1066C10.907 16.6139 9.90472 16.597 9.02154 17.1066C8.12135 17.6163 7.0682 17.8879 5.96401 17.8371C3.92557 17.7182 2.19304 16.512 1.32689 14.7965C0.477522 13.0978 0.528568 10.9915 1.64956 9.27601C2.77055 7.57728 4.67306 6.67708 6.59257 6.77896C8.49507 6.89787 10.2955 8.00207 11.2129 9.81948C11.6037 10.6178 11.8074 11.4501 11.8074 12.2825C11.8074 13.3016 12.3171 14.168 13.1833 14.6776L13.4889 14.8476C14.3383 15.3403 15.3066 15.3572 16.1728 14.8816C16.9881 14.4571 17.9393 14.2192 18.9246 14.2871C20.827 14.3889 22.4408 15.5269 23.256 17.1068C24.0544 18.7034 24.0035 20.674 22.9504 22.2706C21.8972 23.8673 20.1137 24.6995 18.3301 24.6147C17.5826 24.5637 16.8524 24.3599 16.1897 24.0031C15.3066 23.5275 14.3383 23.5446 13.4889 24.0371L12.4868 24.6147C11.6545 25.0903 11.1618 25.8886 11.111 26.8569C11.06 27.6722 10.8054 28.4875 10.3127 29.235C9.34444 30.7298 7.66296 31.4942 5.99826 31.4094C4.33357 31.3076 2.77101 30.3562 1.95545 28.7594C1.15714 27.1627 1.31008 25.3282 2.2273 23.9183C3.14451 22.5255 4.75815 21.642 6.54174 21.7442C7.23816 21.7782 7.88375 21.965 8.44425 22.2538C9.31064 22.6785 10.2449 22.6614 11.0772 22.1859L12.0793 21.6084C12.8776 21.1499 13.3192 20.3686 13.3192 19.4511C13.3192 18.5332 12.8776 17.7519 12.0791 17.2934ZM22.1689 31.9184C22.8313 33.2264 22.6956 34.7381 21.9481 35.8761C21.2006 37.0312 19.8758 37.7445 18.4149 37.6597C16.9372 37.5919 15.7141 36.7085 15.0855 35.5024C14.4739 34.2793 14.5081 32.7676 15.3063 31.5446C16.1217 30.3048 17.4805 29.6762 18.8565 29.7441C20.2156 29.8292 21.5065 30.6105 22.1689 31.9184ZM31.1547 23.5441C32.2756 23.6119 33.227 24.2746 33.7026 25.2089C34.1782 26.143 34.1442 27.2981 33.5326 28.2493C32.904 29.1835 31.8679 29.6762 30.8148 29.6081C29.7616 29.557 28.7764 28.9457 28.2669 27.9434C27.7575 26.9411 27.8591 25.7861 28.4368 24.9029C29.0144 24.0367 30.0335 23.4763 31.1547 23.5441ZM27.6724 10.1422C28.4707 8.90228 29.8466 8.2737 31.2055 8.34155C32.5814 8.42642 33.8552 9.20793 34.5179 10.5157C35.1803 11.8407 35.0446 13.3354 34.2971 14.4904C33.5496 15.6284 32.2248 16.3419 30.7639 16.274C29.3032 16.1891 28.0631 15.3228 27.4345 14.0999C26.8232 12.8768 26.8571 11.365 27.6724 10.1422Z" fill="url(#paint0_linear_519_295)"/>
</g>
<defs>
<linearGradient id="paint0_linear_519_295" x1="0.742676" y1="0.333008" x2="37.9334" y2="34.4041" gradientUnits="userSpaceOnUse">
<stop stop-color="white"/>
<stop offset="0.48" stop-color="#B1C2D2"/>
<stop offset="1" stop-color="#617D99"/>
</linearGradient>
<clipPath id="clip0_519_295">
<rect width="149.947" height="37.3335" fill="white" transform="translate(0.742676 0.333008)"/>
</clipPath>
</defs>
</svg>
