<svg width="77" height="55" viewBox="0 0 77 55" fill="none" xmlns="http://www.w3.org/2000/svg">
<g clip-path="url(#clip0_513_348)">
<path d="M3.16505 0H48.9132L46.4972 6.34755H32.7618V14.8109H46.4972V21.1585H3.16505C1.4134 21.1585 0 19.7439 0 17.9908C0 16.2376 1.42548 14.823 3.16505 14.823H9.50722V6.34755H3.16505C1.4134 6.34755 0 4.93295 0 3.17982C0 1.42669 1.42548 0 3.16505 0ZM35.9269 27.506H38.0409V33.8536H35.9269C31.8437 33.8536 28.5337 37.1664 28.5337 41.253V49.7164C28.5337 52.6423 26.166 55 23.2546 55H14.7984C11.875 55 9.5193 52.6302 9.5193 49.7164V40.2011C9.5193 36.6949 6.68042 33.8536 3.17713 33.8536C1.42548 33.8536 0.0120803 32.439 0.0120803 30.6859C0.0120803 28.9327 1.43756 27.5181 3.17713 27.5181C10.1837 27.5181 15.8615 33.0798 15.8615 40.2132V48.6766H22.2036V41.2772C22.2036 33.6843 28.3646 27.5302 35.939 27.5302L35.9269 27.506ZM26.4197 6.34755H15.8494V14.8109H26.4197V6.34755Z" fill="#FF233C"/>
<path d="M62.4073 23.2018V31.7982C62.4073 33.2249 61.2597 34.3735 59.8342 34.3735C58.4087 34.3735 57.249 33.2249 57.249 31.7982V23.2018C57.249 21.7751 58.3967 20.6265 59.8342 20.6265C61.2718 20.6265 62.4073 21.7751 62.4073 23.2018Z" fill="#FF233C"/>
<path d="M70.1385 0H49.5295C45.7362 0 42.6558 3.071 42.6558 6.87953V48.1326C42.6558 51.9169 45.7362 55 49.5295 55H70.1385C73.9196 55 77.0001 51.9169 77.0001 48.1326V6.87953C77.0001 3.071 73.9196 0 70.1385 0ZM71.8539 48.1326C71.8539 49.0756 71.0808 49.8494 70.1385 49.8494H62.4071V43.8283C62.4071 42.4016 61.2595 41.253 59.834 41.253C58.4085 41.253 57.2488 42.4016 57.2488 43.8283V49.8494H49.5295C48.5751 49.8494 47.8141 49.0756 47.8141 48.1326V6.87953C47.8141 5.92438 48.5751 5.15058 49.5295 5.15058H57.2488V11.1717C57.2488 12.5984 58.3964 13.747 59.834 13.747C61.2715 13.747 62.4071 12.5984 62.4071 11.1717V5.15058H70.1385C71.0808 5.15058 71.8539 5.92438 71.8539 6.87953V48.1326Z" fill="#FF233C"/>
<path d="M62.4073 23.2018V31.7982C62.4073 33.2249 61.2597 34.3735 59.8342 34.3735C58.4087 34.3735 57.249 33.2249 57.249 31.7982V23.2018C57.249 21.7751 58.3967 20.6265 59.8342 20.6265C61.2718 20.6265 62.4073 21.7751 62.4073 23.2018Z" fill="#FF233C"/>
<path d="M62.4073 23.2018V31.7982C62.4073 33.2249 61.2597 34.3735 59.8342 34.3735C58.4087 34.3735 57.249 33.2249 57.249 31.7982V23.2018C57.249 21.7751 58.3967 20.6265 59.8342 20.6265C61.2718 20.6265 62.4073 21.7751 62.4073 23.2018Z" fill="#FF233C"/>
<path d="M46.8355 27.5061H38.041V33.8416H46.8355V27.5061Z" fill="#FF233C"/>
</g>
<defs>
<clipPath id="clip0_513_348">
<rect width="77" height="55" fill="white"/>
</clipPath>
</defs>
</svg>
