<svg width="61" height="61" viewBox="0 0 61 61" fill="none" xmlns="http://www.w3.org/2000/svg">
<g clip-path="url(#clip0_513_298)">
<path d="M50.25 2.57996H9.92C5.82205 2.57996 2.5 5.902 2.5 9.99996V50.33C2.5 54.4279 5.82205 57.75 9.92 57.75H50.25C54.348 57.75 57.67 54.4279 57.67 50.33V9.99996C57.67 5.902 54.348 2.57996 50.25 2.57996Z" stroke="#FF233C" stroke-width="5" stroke-miterlimit="10"/>
<path d="M49.46 43.25C47.89 43.25 46.45 43.77 45.29 44.65L38 40.28C38.69 38.52 39.07 36.6 39.07 34.6C39.07 32.09 38.47 29.71 37.41 27.61L45.81 21.44C46.87 22.1 48.13 22.4799 49.46 22.4799C53.28 22.4799 56.39 19.37 56.39 15.55C56.39 11.73 53.28 8.61995 49.46 8.61995C45.64 8.61995 42.53 11.72 42.53 15.55C42.53 16.13 42.61 16.71 42.74 17.25L34.34 23.42C31.54 20.69 27.61 19.02 23.48 19.02C22.04 19.02 20.65 19.2099 19.33 19.58L16.42 13.35C17.58 12.11 18.28 10.45 18.28 8.62995C18.28 4.79995 15.17 1.69995 11.35 1.69995C7.53003 1.69995 4.42003 4.79995 4.42003 8.62995C4.42003 12.46 7.53003 15.56 11.35 15.56C11.47 15.56 11.59 15.46 11.71 15.55L14.62 21.78C11.23 24.12 8.82003 27.78 8.01003 32.01H2.03003V37.2H8.03003C9.36003 44.57 15.77 50.19 23.5 50.19C28.24 50.19 32.39 48.08 35.34 44.74L42.63 49.12C42.58 49.47 42.54 49.82 42.54 50.19C42.54 54.01 45.65 57.12 49.47 57.12C53.29 57.12 56.4 54.01 56.4 50.19C56.4 46.37 53.29 43.26 49.47 43.26L49.46 43.25ZM23.48 44.98C17.65 44.98 13.09 40.3299 13.09 34.59C13.09 28.85 17.65 24.2 23.48 24.2C29.31 24.2 33.87 28.76 33.87 34.59C33.87 40.42 29.22 44.98 23.48 44.98Z" fill="#FF233C"/>
</g>
<defs>
<clipPath id="clip0_513_298">
<rect width="60.17" height="60.17" fill="white" transform="translate(0 0.0799561)"/>
</clipPath>
</defs>
</svg>
