<svg width="58" height="48" viewBox="0 0 58 48" fill="none" xmlns="http://www.w3.org/2000/svg">
<path d="M11.6636 37.233L8.35351 36.5153C7.08389 36.2462 6.44909 35.7079 6.44909 34.9901C6.44909 34.5415 6.63045 34.1378 6.99325 33.8687C7.35597 33.5995 7.85474 33.42 8.44422 33.42C9.12435 33.42 9.62312 33.5995 9.98592 33.9584C10.3486 34.3172 10.53 34.8107 10.53 35.3938H15.6992C15.6992 34.1827 15.3818 33.1509 14.7923 32.2537C14.2028 31.3565 13.3866 30.6837 12.3438 30.1902C11.3009 29.6967 10.0766 29.4724 8.71631 29.4724C7.35597 29.4724 6.04096 29.6967 4.90739 30.1453C3.77382 30.5939 2.91233 31.2668 2.27745 32.1192C1.64264 32.9714 1.32524 34.0032 1.32524 35.2144C1.32524 36.7396 1.73336 37.906 2.54953 38.7134C3.3657 39.476 4.58999 40.0592 6.17701 40.4181L9.44176 41.1358C10.1219 41.2704 10.53 41.4947 10.7114 41.719C10.8927 41.9881 11.0288 42.2124 11.0288 42.4816C11.0288 42.9302 10.8474 43.289 10.4394 43.5582C10.0312 43.8273 9.39643 43.962 8.58026 43.962C7.76402 43.962 7.12921 43.7825 6.67584 43.4236C6.2224 43.0647 5.99564 42.6161 5.95032 41.9881H0.69043C0.69043 43.7825 1.37063 45.218 2.73089 46.3395C4.09122 47.4609 5.95032 47.9992 8.30818 47.9992C9.84988 47.9992 11.2101 47.7749 12.3891 47.2815C13.568 46.7881 14.4749 46.1152 15.1551 45.218C15.8352 44.3208 16.1526 43.2442 16.1526 41.9881C16.1526 40.5975 15.7445 39.5209 15.019 38.8031C14.2935 38.0854 13.1146 37.5471 11.6636 37.233Z" fill="#617D99"/>
<path d="M24.4055 29.4724H18.9644V47.5507H24.4055V29.4724Z" fill="#617D99"/>
<path d="M33.9729 21.1287H28.5317V47.5506H33.9729V21.1287Z" fill="#617D99"/>
<path d="M55.9878 33.7285C55.1263 32.3378 53.9927 31.2612 52.5417 30.4986C51.0907 29.736 49.413 29.3323 47.5085 29.3323C45.6041 29.3323 43.9264 29.736 42.4754 30.4986C40.9791 31.2612 39.8455 32.3378 38.984 33.7285C38.1678 35.1191 37.7144 36.7341 37.7144 38.5733C37.7144 40.4125 38.1224 42.0274 38.984 43.418C39.8455 44.8087 40.9791 45.8853 42.4754 46.6479C43.9264 47.4105 45.6494 47.8142 47.5085 47.8142C49.3676 47.8142 51.0907 47.4105 52.5417 46.6479C53.9927 45.8853 55.1716 44.8087 55.9878 43.418C56.804 42.0274 57.2574 40.4125 57.2574 38.5733C57.2574 36.7341 56.8493 35.1191 55.9878 33.7285ZM51.2267 40.9059C50.864 41.5788 50.3652 42.0723 49.7304 42.4312C49.0956 42.79 48.3701 42.9695 47.5085 42.9695C46.647 42.9695 45.9215 42.79 45.2867 42.4312C44.6519 42.0723 44.1531 41.534 43.7904 40.9059C43.4276 40.233 43.2463 39.4704 43.2463 38.5733C43.2463 37.6761 43.4276 36.9135 43.7904 36.2406C44.1531 35.5677 44.6519 35.0743 45.2867 34.7154C45.9215 34.3566 46.647 34.1771 47.5085 34.1771C48.3701 34.1771 49.0956 34.3566 49.7304 34.7154C50.3652 35.0743 50.864 35.5677 51.2267 36.2406C51.5895 36.9135 51.7708 37.6761 51.7708 38.5733C51.7708 39.4704 51.5895 40.233 51.2267 40.9059Z" fill="#617D99"/>
<path d="M17.3315 0C8.12682 0 0.69043 7.35686 0.69043 16.4632H34.018C34.018 7.35686 26.5816 0 17.3769 0H17.3315Z" fill="#617D99"/>
<path d="M24.4055 21.1287H18.9644V26.5117H24.4055V21.1287Z" fill="#617D99"/>
</svg>
