<svg width="62" height="61" viewBox="0 0 62 61" fill="none" xmlns="http://www.w3.org/2000/svg">
<g clip-path="url(#clip0_155_28632)">
<path d="M51.165 2.72949H10.835C6.73709 2.72949 3.41504 6.05154 3.41504 10.1495V50.4795C3.41504 54.5774 6.73709 57.8995 10.835 57.8995H51.165C55.263 57.8995 58.585 54.5774 58.585 50.4795V10.1495C58.585 6.05154 55.263 2.72949 51.165 2.72949Z" stroke="#FF233B" stroke-width="5" stroke-miterlimit="10"/>
<path d="M29.535 2.72949L3.41504 16.6295" stroke="#FF233B" stroke-width="5" stroke-miterlimit="10"/>
<path d="M3.26465 22.4595L9.60465 37.0395L15.1946 40.6895L20.7846 38.7395L26.0046 48.1795H33.0546L30.9946 34.1295L39.0146 22.4595L29.5346 2.72949" stroke="#FF233B" stroke-width="5" stroke-miterlimit="10"/>
<path d="M58.585 16.8691C57.475 17.5991 42.415 30.3091 42.415 30.3091V43.1091L58.585 50.4691" stroke="#FF233B" stroke-width="5" stroke-miterlimit="10"/>
</g>
<defs>
<clipPath id="clip0_155_28632">
<rect width="60.17" height="60.17" fill="white" transform="translate(0.915039 0.229492)"/>
</clipPath>
</defs>
</svg>
