<svg width="68" height="61" viewBox="0 0 68 61" fill="none" xmlns="http://www.w3.org/2000/svg">
<path d="M58.17 29.5449V50.2949C58.17 54.3929 54.848 57.7149 50.75 57.7149H10.42C6.32205 57.7149 3 54.3929 3 50.2949V9.96492C3 5.86697 6.32205 2.54492 10.42 2.54492H50.75C50.75 2.54492 58.17 2.54492 58.17 9.04492C58.17 15.5449 58.17 15.7116 58.17 19.5449" stroke="#FF233C" stroke-width="5" stroke-miterlimit="10"/>
<path d="M65.9246 12.1914L58.1464 19.9696L51.0753 12.8985" stroke="#FF233C" stroke-width="5" stroke-miterlimit="10"/>
<path d="M32.9599 30.3612V17.0033C32.9599 16.3513 32.6986 15.726 32.2335 15.265C31.7684 14.8039 31.1376 14.5449 30.4799 14.5449C29.8222 14.5449 29.1914 14.8039 28.7264 15.265C28.2613 15.726 28 16.3513 28 17.0033V31.7533C27.9999 32.1777 28.1106 32.5949 28.3213 32.9643C28.5321 33.3337 28.8358 33.6427 29.2028 33.8613L41.6024 41.2363C42.1664 41.572 42.8418 41.672 43.4802 41.5141C44.1185 41.3562 44.6674 40.9534 45.0061 40.3943C45.3448 39.8352 45.4456 39.1656 45.2863 38.5329C45.127 37.9001 44.7207 37.356 44.1567 37.0202L32.9599 30.3612Z" fill="#FF233B"/>
</svg>
