<svg width="61" height="61" viewBox="0 0 61 61" fill="none" xmlns="http://www.w3.org/2000/svg">
<path d="M57.9999 16.7704C57.9406 28.1762 53.1909 48.8472 33.076 58.2476C31.1405 59.1442 28.8595 59.1442 26.9141 58.2476C6.81903 48.8472 2.0594 28.1762 2.00015 16.7704C1.9804 13.8877 3.90598 11.4195 6.47341 10.3589L28.4447 1.25749C28.9187 1.03574 29.4618 0.920044 29.9951 0.920044C30.5283 0.920044 31.0714 1.03574 31.5553 1.25749L53.5266 10.3589C56.094 11.4195 58.0196 13.8877 57.9999 16.7704ZM27.2005 7.70756L8.65573 15.2857C7.9645 15.6713 7.59913 16.2691 7.59913 16.8379C7.64851 26.8167 11.707 43.7277 27.2005 52.2217V7.70756ZM32.7995 52.2314C48.293 43.718 52.3515 26.8167 52.4009 16.8379C52.4107 16.2691 52.0355 15.6713 51.2455 15.2857L32.7995 7.70756V52.2314Z" fill="#FF233B"/>
<path d="M29.9951 0.120239C30.6307 0.120247 31.2773 0.255841 31.8613 0.518677L53.8311 9.61926C56.6521 10.7846 58.8201 13.5181 58.7988 16.7736L58.7998 16.7745C58.7398 28.318 53.9374 49.3819 33.415 58.9728L33.4121 58.9738C31.2629 59.9694 28.7363 59.9681 26.5791 58.9738L26.5752 58.9718C6.07295 49.3809 1.26016 28.3182 1.2002 16.7745L1.20117 16.7736C1.17992 13.5181 3.34689 10.7846 6.16797 9.61926L28.1387 0.518677V0.519653C28.7162 0.255541 29.3627 0.120239 29.9951 0.120239ZM29.9951 0.920044C29.4619 0.920044 28.9183 1.03618 28.4443 1.25793L6.47363 10.3585L6.23438 10.462C3.7873 11.5737 1.98087 13.978 2 16.7706C2.0593 28.1764 6.81924 48.8469 26.9141 58.2472C28.7377 59.0878 30.8566 59.1408 32.709 58.4054L33.0762 58.2472C53.1907 48.8469 57.9407 28.1763 58 16.7706C58.0197 13.8879 56.0938 11.4191 53.5264 10.3585L31.5557 1.25793C31.1323 1.0639 30.6631 0.951078 30.1953 0.925903L29.9951 0.920044ZM51.2451 15.2853C52.0351 15.6709 52.4103 16.2692 52.4004 16.838L52.3838 17.7931C52.0862 27.8647 47.8091 43.9842 32.7998 52.2316V7.70715L51.2451 15.2853ZM27.2002 52.2218C11.7069 43.7278 7.64901 26.8168 7.59961 16.838C7.59961 16.2692 7.96416 15.6709 8.65527 15.2853L27.2002 7.70715V52.2218ZM33.5996 50.8458C47.7533 42.3374 51.5532 26.4113 51.6006 16.8341V16.8243C51.6036 16.6496 51.4887 16.2987 50.9033 16.0099L33.5996 8.90051V50.8458ZM9.01758 16.0011C8.54205 16.2767 8.39941 16.6263 8.39941 16.838C8.44785 26.4162 12.2488 42.3482 26.4004 50.838V8.89856L9.01758 16.0011Z" fill="#FF233B"/>
</svg>
