<svg width="61" height="61" viewBox="0 0 61 61" fill="none" xmlns="http://www.w3.org/2000/svg">
<g clip-path="url(#clip0_514_491)">
<path d="M29.629 41.76L24.599 46.79C21.529 49.86 16.549 49.86 13.469 46.79C10.399 43.72 10.399 38.74 13.469 35.66L21.799 27.33C24.869 24.26 29.849 24.26 32.929 27.33" stroke="#B2BDD4" stroke-width="5" stroke-miterlimit="10"/>
<path d="M31.279 19.02L36.349 13.95C39.419 10.88 44.399 10.88 47.479 13.95C50.549 17.02 50.549 22 47.479 25.08L39.149 33.41C36.079 36.48 31.099 36.48 28.019 33.41" stroke="#B2BDD4" stroke-width="5" stroke-miterlimit="10"/>
<path d="M57.6691 27.5699V47.5999C57.6691 53.1599 53.1591 57.6699 47.6091 57.6699H27.5791" stroke="#B2BDD4" stroke-width="5" stroke-miterlimit="10"/>
<path d="M2.49902 32.59V12.56C2.49902 7 7.00902 2.5 12.559 2.5H32.589" stroke="#B2BDD4" stroke-width="5" stroke-miterlimit="10"/>
</g>
<defs>
<clipPath id="clip0_514_491">
<rect width="60.17" height="60.17" fill="white" transform="translate(-0.000976562)"/>
</clipPath>
</defs>
</svg>
