<svg width="61" height="61" viewBox="0 0 61 61" fill="none" xmlns="http://www.w3.org/2000/svg">
<g clip-path="url(#clip0_547_302)">
<path d="M57.67 27.5701V47.6001C57.67 53.1601 53.16 57.6701 47.61 57.6701H27.58" stroke="#FF233B" stroke-width="5" stroke-miterlimit="10"/>
<path d="M2.5 32.59V12.56C2.5 7 7.01 2.5 12.56 2.5H32.59" stroke="#FF233B" stroke-width="5" stroke-miterlimit="10"/>
<path d="M46 17.9098V37.9089C46 38.5719 45.7366 39.2077 45.2678 39.6766C44.799 40.1454 44.1631 40.4088 43.5001 40.4088C42.8371 40.4088 42.2013 40.1454 41.7324 39.6766C41.2636 39.2077 41.0002 38.5719 41.0002 37.9089V23.947L20.2699 44.6773C20.0377 44.9096 19.7619 45.0938 19.4585 45.2195C19.155 45.3452 18.8297 45.4099 18.5013 45.4099C18.1728 45.4099 17.8475 45.3452 17.5441 45.2195C17.2406 45.0938 16.9649 44.9096 16.7326 44.6773C16.5003 44.445 16.3161 44.1693 16.1904 43.8658C16.0647 43.5624 16 43.2371 16 42.9086C16 42.5802 16.0647 42.2549 16.1904 41.9514C16.3161 41.648 16.5003 41.3722 16.7326 41.14L37.4629 20.4097H23.501C22.838 20.4097 22.2022 20.1463 21.7334 19.6775C21.2645 19.2087 21.0012 18.5728 21.0012 17.9098C21.0012 17.2468 21.2645 16.6109 21.7334 16.1421C22.2022 15.6733 22.838 15.4099 23.501 15.4099H43.5001C44.1631 15.4099 44.799 15.6733 45.2678 16.1421C45.7366 16.6109 46 17.2468 46 17.9098Z" fill="#FF233B"/>
</g>
<defs>
<clipPath id="clip0_547_302">
<rect width="60.17" height="60.17" fill="white"/>
</clipPath>
</defs>
</svg>
