<svg width="116" height="51" viewBox="0 0 116 51" fill="none" xmlns="http://www.w3.org/2000/svg">
<g clip-path="url(#clip0_519_353)">
<path d="M107.105 0L82.325 35.54H89.935L114.835 0H107.095H107.105Z" fill="#617D99"/>
<path d="M90.725 0L98.015 10.47L94.215 16.18L82.955 0H90.715H90.725Z" fill="#617D99"/>
<path d="M107.835 35.54L99.7549 23.96L103.555 18.41L115.445 35.55H107.835V35.54Z" fill="#617D99"/>
<path fill-rule="evenodd" clip-rule="evenodd" d="M73.455 0H80.115V35.54H73.455V34.21C71.535 35.26 69.325 35.86 66.975 35.86C59.525 35.86 53.485 29.84 53.485 22.41C53.485 14.98 59.525 8.96 66.975 8.96C69.325 8.96 71.525 9.56 73.455 10.61V0ZM66.905 29.96C71.125 29.96 74.545 26.55 74.545 22.34C74.545 18.13 71.125 14.72 66.905 14.72C62.685 14.72 59.265 18.13 59.265 22.34C59.265 26.55 62.685 29.96 66.905 29.96Z" fill="#617D99"/>
<path d="M54.1449 0L29.3949 35.54H37.1549L61.8849 0H54.1449Z" fill="#617D99"/>
<path d="M37.165 0L44.9249 10.79L40.645 16.82L29.075 0H37.1549H37.165Z" fill="#617D99"/>
<path fill-rule="evenodd" clip-rule="evenodd" d="M20.5249 0H27.1849V35.54H20.5249V34.21C18.6049 35.26 16.3949 35.86 14.0449 35.86C6.59493 35.86 0.554932 29.84 0.554932 22.41C0.554932 14.98 6.59493 8.96 14.0449 8.96C16.3949 8.96 18.5949 9.56 20.5249 10.61V0ZM13.9749 29.96C18.1949 29.96 21.6149 26.55 21.6149 22.34C21.6149 18.13 18.1949 14.72 13.9749 14.72C9.75493 14.72 6.33493 18.13 6.33493 22.34C6.33493 26.55 9.75493 29.96 13.9749 29.96Z" fill="#617D99"/>
<path d="M3.06488 50.35V46.92H6.52488V45.59H3.06488V43.2H6.91488V41.84H1.62488V50.35H3.06488ZM13.3149 46.09C13.3149 44.04 14.7349 43.02 16.1549 43.02C17.5749 43.02 19.0149 44.04 19.0149 46.09C19.0149 48.14 17.5949 49.16 16.1549 49.16C14.7149 49.16 13.3149 48.14 13.3149 46.09ZM11.8349 46.09C11.8349 48.89 13.9249 50.53 16.1549 50.53C18.3849 50.53 20.4849 48.89 20.4849 46.09C20.4849 43.29 18.3849 41.66 16.1549 41.66C13.9249 41.66 11.8349 43.3 11.8349 46.09ZM29.1249 50.53C30.9149 50.53 32.3049 49.44 32.3049 47.39V41.85H30.8649V47.31C30.8649 48.51 30.2149 49.17 29.1249 49.17C28.0349 49.17 27.3849 48.51 27.3849 47.31V41.85H25.9549V47.39C25.9549 49.44 27.3449 50.53 29.1249 50.53ZM45.4649 50.35V41.84H44.0249V47.88L40.1649 41.84H38.3249V50.35H39.7649V43.91L43.9649 50.35H45.4649ZM53.0049 49.03V43.16H54.5249C56.0049 43.16 57.2149 44.12 57.2149 46.11C57.2149 48.1 55.9949 49.03 54.5149 49.03H53.0049ZM54.5649 50.35C56.8649 50.35 58.7149 48.84 58.7149 46.11C58.7149 43.38 56.8949 41.84 54.5749 41.84H51.5649V50.35H54.5649ZM69.7949 50.35H71.3649L68.0549 41.84H66.3849L63.0749 50.35H64.5949L65.3849 48.21H68.9849L69.7849 50.35H69.7949ZM67.1849 43.41L68.4849 46.89H65.8949L67.1949 43.41H67.1849ZM81.7949 43.2V41.84H74.8249V43.2H77.5849V50.35H79.0249V43.2H81.7949ZM88.4949 50.35V41.84H87.0349V50.35H88.4949ZM95.5249 46.09C95.5249 44.04 96.9449 43.02 98.3649 43.02C99.7849 43.02 101.225 44.04 101.225 46.09C101.225 48.14 99.8049 49.16 98.3649 49.16C96.9249 49.16 95.5249 48.14 95.5249 46.09ZM94.0549 46.09C94.0549 48.89 96.1449 50.53 98.3749 50.53C100.605 50.53 102.705 48.89 102.705 46.09C102.705 43.29 100.605 41.66 98.3749 41.66C96.1449 41.66 94.0549 43.3 94.0549 46.09ZM115.395 50.35V41.84H113.955V47.88L110.095 41.84H108.255V50.35H109.695V43.91L113.895 50.35H115.395Z" fill="#617D99"/>
</g>
<defs>
<clipPath id="clip0_519_353">
<rect width="114.89" height="50.53" fill="white" transform="translate(0.554932)"/>
</clipPath>
</defs>
</svg>
