<svg width="61" height="61" viewBox="0 0 61 61" fill="none" xmlns="http://www.w3.org/2000/svg">
<g clip-path="url(#clip0_513_272)">
<path d="M32.5 2.51001H9.92C5.82 2.51001 2.5 5.83001 2.5 9.93001V50.26C2.5 54.36 5.82 57.68 9.92 57.68H32.93" stroke="#FF233C" stroke-width="5" stroke-miterlimit="10"/>
<path d="M60.4299 16.44C60.3699 28.27 55.5599 49.71 35.1899 59.46C33.2299 60.39 30.9199 60.39 28.9499 59.46C8.59988 49.71 3.77988 28.27 3.71988 16.44C3.69988 13.45 5.64988 10.89 8.24988 9.79L30.4999 0.35C30.9799 0.12 31.5299 0 32.0699 0C32.6099 0 33.1599 0.12 33.6499 0.35L55.8999 9.79C58.4999 10.89 60.4499 13.45 60.4299 16.44ZM29.2399 7.04L10.4599 14.9C9.75988 15.3 9.38988 15.92 9.38988 16.51C9.43988 26.86 13.5499 44.4 29.2399 53.21V7.04ZM34.9099 53.22C50.5999 44.39 54.7099 26.86 54.7599 16.51C54.7699 15.92 54.3899 15.3 53.5899 14.9L34.9099 7.04V53.22Z" fill="#FF233C"/>
</g>
<defs>
<clipPath id="clip0_513_272">
<rect width="60.43" height="60.18" fill="white"/>
</clipPath>
</defs>
</svg>
