<svg width="61" height="61" viewBox="0 0 61 61" fill="none" xmlns="http://www.w3.org/2000/svg">
<g clip-path="url(#clip0_513_266)">
<path d="M57.6701 27.575V47.6049C57.6701 53.1649 53.1601 57.6749 47.6101 57.6749H27.5801" stroke="#FF233C" stroke-width="5" stroke-miterlimit="10"/>
<path d="M2.5 32.595V12.565C2.5 7.00501 7.01 2.505 12.56 2.505H32.59" stroke="#FF233C" stroke-width="5" stroke-miterlimit="10"/>
<path d="M35.2001 24.275L43.1001 25.445C43.7501 25.535 44.3001 26.005 44.5101 26.635C44.7201 27.275 44.5501 27.965 44.0801 28.435L38.3501 34.055L39.7001 42.115C39.8101 42.775 39.5401 43.445 38.9901 43.835C38.4501 44.225 37.7201 44.275 37.1401 43.965L30.0801 40.195L23.0201 43.965C22.4301 44.275 21.7101 44.225 21.1601 43.835C20.6201 43.445 20.3401 42.775 20.4601 42.115L21.8101 34.055L16.0801 28.435C15.6101 27.965 15.4401 27.265 15.6501 26.635C15.8601 26.005 16.4101 25.545 17.0701 25.445L24.9701 24.275L28.5101 16.995C28.8001 16.385 29.4201 16.005 30.0901 16.005C30.7601 16.005 31.3801 16.385 31.6701 16.995L35.2101 24.275H35.2001Z" fill="#FF233C"/>
</g>
<defs>
<clipPath id="clip0_513_266">
<rect width="60.17" height="60.17" fill="white" transform="translate(0 0.00500488)"/>
</clipPath>
</defs>
</svg>
