<svg width="156" height="39" viewBox="0 0 156 39" fill="none" xmlns="http://www.w3.org/2000/svg">
<g clip-path="url(#clip0_460_344)">
<path d="M119.008 13.0648H115.822C115.452 13.0648 115.098 12.9054 114.852 12.6284L113.561 11.1723C113.369 10.9557 113.091 10.8304 112.801 10.8304C112.511 10.8304 112.234 10.9542 112.042 11.1723L110.934 12.4226C110.571 12.8311 110.05 13.0663 109.503 13.0663H92.0716C91.5756 14.4791 91.2517 15.9707 91.123 17.5196H107.579C107.869 17.5196 108.145 17.402 108.345 17.1931L109.878 15.5978C110.069 15.3982 110.334 15.2852 110.61 15.2852H110.673C110.963 15.2852 111.241 15.409 111.433 15.6272L112.724 17.0833C112.97 17.3602 113.322 17.5196 113.694 17.5196H127.126C126.998 15.9707 126.674 14.4791 126.178 13.0663H119.008V13.0648Z" fill="#617D99"/>
<path d="M101.083 26.8796C101.373 26.8796 101.649 26.762 101.849 26.5531L103.382 24.9577C103.573 24.7581 103.838 24.6452 104.114 24.6452H104.177C104.467 24.6452 104.744 24.769 104.937 24.9871L106.228 26.4432C106.474 26.7202 106.826 26.8796 107.198 26.8796H125.401C126.083 25.473 126.582 23.9628 126.88 22.3829H109.408C109.038 22.3829 108.685 22.2236 108.438 21.9466L107.147 20.4905C106.955 20.2739 106.677 20.1486 106.387 20.1486C106.098 20.1486 105.82 20.2723 105.628 20.4905L104.52 21.7408C104.157 22.1493 103.636 22.3845 103.089 22.3845H91.3726C91.6702 23.9659 92.1693 25.4746 92.8513 26.8811H101.083V26.8796Z" fill="#617D99"/>
<path d="M113.996 8.19986C114.286 8.19986 114.562 8.08226 114.762 7.87336L116.295 6.27804C116.486 6.07843 116.751 5.96547 117.027 5.96547H117.09C117.38 5.96547 117.657 6.08926 117.85 6.30744L119.141 7.7635C119.387 8.04048 119.739 8.19986 120.111 8.19986H123.572C120.275 3.82548 115.032 0.995361 109.126 0.995361C103.221 0.995361 97.9771 3.82548 94.6803 8.19986H113.998H113.996Z" fill="#617D99"/>
<path d="M107.043 31.3375H102.309C101.939 31.3375 101.586 31.1781 101.339 30.9011L100.048 29.4451C99.8558 29.2284 99.5783 29.1031 99.2885 29.1031C98.9986 29.1031 98.7212 29.2269 98.529 29.4451L97.4207 30.6953C97.058 31.1038 96.5372 31.339 95.9901 31.339H95.9156C99.214 34.867 103.909 37.0751 109.125 37.0751C114.341 37.0751 119.035 34.867 122.334 31.339H107.043V31.3375Z" fill="#617D99"/>
<path d="M29.2455 35.9084L25.5689 26.9941H9.14356L5.46696 35.9084H1.21686L17.3322 2.16052L33.4956 35.9084H29.2455ZM10.5277 23.61H24.1367L17.3105 9.23195L10.5293 23.61H10.5277Z" fill="#617D99"/>
<path d="M39.3654 35.9084V2.16052H48.7724C56.1256 2.16052 59.9928 5.54459 59.9928 11.8841C59.9928 18.2236 55.8869 21.5133 48.7243 21.5133H43.3288V35.9084H39.3654ZM43.3288 17.9853H47.8176C53.4999 17.9853 55.983 16.127 55.983 11.8841C55.983 7.64126 53.4518 5.68695 47.8176 5.68695H43.3288V17.9853Z" fill="#617D99"/>
<path d="M74.3877 5.78289H62.7379V2.16052H90.0024V5.78289H78.351V35.9084H74.3877V5.78289Z" fill="#617D99"/>
<path d="M132.706 29.7592L136.12 27.4474L136.383 27.9952C138.483 31.8079 140.776 33.3336 144.262 33.3336C148.129 33.3336 150.851 30.6644 150.851 27.4227C150.851 24.3713 149.322 22.3226 143.211 19.7958C136.192 16.8883 133.804 13.8849 133.804 9.59559C133.804 4.92411 137.48 1.25378 143.831 1.25378C148.51 1.25378 151.709 3.25606 153.524 6.49778L150.755 8.40412L149.942 8.2138C148.51 5.97322 146.743 4.68582 143.735 4.68582C140.058 4.68582 137.91 6.73607 137.91 9.49965C137.91 12.0729 139.294 13.5506 145.263 16.2678C153.046 19.7958 154.957 22.7032 154.957 27.3747C154.957 32.4748 150.564 36.812 144.308 36.812C139.055 36.812 135.427 34.8098 132.705 29.7576L132.706 29.7592Z" fill="#617D99"/>
</g>
<defs>
<clipPath id="clip0_460_344">
<rect width="155" height="38" fill="white" transform="translate(0.554993 0.265015)"/>
</clipPath>
</defs>
</svg>
