<svg width="70" height="61" viewBox="0 0 70 61" fill="none" xmlns="http://www.w3.org/2000/svg">
<g clip-path="url(#clip0_155_28619)">
<path d="M62.4549 40.1091V15.3891C62.4549 8.4491 56.8349 2.8291 49.8949 2.8291H20.1049C13.1649 2.8291 7.54492 8.4491 7.54492 15.3891V40.1091" stroke="#FF233B" stroke-width="5" stroke-miterlimit="10"/>
<path d="M35.0059 57.7293H43.6759C54.0459 57.7293 62.4559 49.3193 62.4559 38.9493V30.2793" stroke="#FF233B" stroke-width="5" stroke-miterlimit="10"/>
<path d="M7.55566 30.2793V43.1893" stroke="#FF233B" stroke-width="5" stroke-miterlimit="10"/>
<path d="M2.77539 26.8789V43.1889" stroke="#FF233B" stroke-width="5" stroke-miterlimit="10"/>
<path d="M67.2256 26.8789V43.1889" stroke="#FF233B" stroke-width="5" stroke-miterlimit="10"/>
<path d="M62.4551 30.2793V43.1893" stroke="#FF233B" stroke-width="5" stroke-miterlimit="10"/>
<path d="M45.8354 10.8389H24.1754C19.4203 10.8389 15.5654 14.6937 15.5654 19.4489V38.8189C15.5654 43.574 19.4203 47.4289 24.1754 47.4289H45.8354C50.5906 47.4289 54.4454 43.574 54.4454 38.8189V19.4489C54.4454 14.6937 50.5906 10.8389 45.8354 10.8389Z" stroke="#FF233B" stroke-width="5" stroke-miterlimit="10"/>
</g>
<defs>
<clipPath id="clip0_155_28619">
<rect width="69.45" height="59.9" fill="white" transform="translate(0.275391 0.329102)"/>
</clipPath>
</defs>
</svg>
