<svg width="139" height="46" viewBox="0 0 139 46" fill="none" xmlns="http://www.w3.org/2000/svg">
<g clip-path="url(#clip0_519_337)">
<path d="M35.0502 15.4199C34.9908 14.6642 35.2825 11.2885 34.9476 10.8967L18.1861 0.405783L17.8728 0.333008L0.257812 10.8519L0.306428 15.4479L4.9627 18.1798L0.257812 21.1412V25.6477C0.770975 26.0116 4.76824 27.9989 4.82766 28.262C4.88168 28.4859 4.644 28.5419 4.51436 28.6371C3.21795 29.5552 1.61364 30.3053 0.257813 31.1506L0.301026 35.7467L17.6243 45.6554C18.1645 45.7953 19.234 45.0284 19.7742 44.7261C24.9382 41.871 29.87 38.5346 35.0556 35.7243L35.007 31.2682C34.7856 30.8931 31.3771 29.1073 30.7073 28.5867C30.5722 28.4803 30.4804 28.4859 30.4804 28.262C30.4804 27.9933 34.5425 26.0731 35.007 25.5301L35.0826 21.1468L30.3507 18.1854L35.0502 15.4255V15.4199ZM75.9952 6.77084H70.7285V37.4205H75.9952V6.77084ZM51.4174 27.204H58.6449C59.9521 27.204 62.2533 26.2691 63.3444 25.4965C70.4044 20.5198 67.3471 7.33065 58.5099 7.33065H45.8807V37.4205H51.4174V27.204ZM98.1422 37.4205V23.9179C98.1422 22.6639 97.2077 20.3743 96.4407 19.3834C92.438 14.166 80.2788 15.907 80.4516 23.8507H84.908C85.0647 21.0796 87.7547 20.5534 89.9694 20.7717C91.228 20.8949 92.4164 21.5555 92.7837 22.8934C92.8918 23.2909 93.2159 24.668 92.6703 24.6904C88.4516 25.1327 81.2889 24.5225 80.0789 30.115C79.3011 33.7146 81.2781 37.0175 84.7622 37.7788C87.7871 38.4394 91.4171 37.5885 93.1402 34.7614L93.4103 37.4205H98.1368H98.1422ZM117.858 17.1274H101.788V21.6059H110.971C110.906 21.9529 110.577 22.3112 110.366 22.5855C107.644 26.1179 104.484 29.3089 101.788 32.8693V37.4149H117.858V32.7965H108.405L108.605 32.3766L117.858 21.673V17.1274Z" fill="#FEFEFE"/>
<path d="M138.925 23.1453V37.4205L134.35 37.4037L133.928 34.7614L133.07 35.9706C122.585 44.0039 114.131 26.924 127.922 25.1047L133.793 24.6848C133.961 22.5687 132.999 20.9844 130.887 20.7661C128.775 20.5478 125.783 21.0852 125.826 23.8451H121.369C121.153 16.5451 131.184 14.6306 135.943 18.051C137.65 19.277 138.396 21.13 138.925 23.1453ZM133.226 28.3628C131.611 28.5139 128.786 28.5811 127.403 29.3312C125.383 30.4285 126.004 33.457 128.338 33.7705C130.671 34.084 133.129 33.3003 133.734 30.7084C133.831 30.2885 134.026 28.9058 133.912 28.5531C133.799 28.2004 133.486 28.3348 133.232 28.3628H133.226Z" fill="#617D99"/>
<path d="M35.0502 15.4199L30.3507 18.1798L35.0826 21.1412L35.007 25.5245C34.5425 26.0675 30.4858 27.9821 30.4804 28.2564C30.4804 28.4803 30.5722 28.4747 30.7073 28.5811C31.3771 29.1073 34.7856 30.8875 35.007 31.2626L35.0556 35.7187C29.87 38.529 24.9328 41.8654 19.7742 44.7205C19.234 45.0172 18.1645 45.7897 17.6243 45.6498L0.301026 35.7467L0.257813 31.145C1.61364 30.2997 3.21795 29.5496 4.51436 28.6315C4.644 28.5419 4.88168 28.4803 4.82766 28.2564C4.76824 27.9933 0.770975 26.006 0.257812 25.6421V21.1356L4.9573 18.1742L0.306428 15.4479L0.257813 10.8519L17.8728 0.333008L18.1861 0.405783L34.9422 10.8967C35.2771 11.2829 34.9854 14.6642 35.0448 15.4199H35.0502ZM31.161 13.0743L17.862 4.86748L4.15785 13.1415L8.83573 15.8454L17.8836 10.4432L26.5155 15.7334C26.7208 15.7782 26.8883 15.6998 27.0719 15.6271C27.8444 15.3192 30.1833 13.8637 30.9395 13.3374C31.0206 13.2815 31.215 13.1583 31.161 13.0799V13.0743ZM4.0174 23.4252L17.3326 30.9715C17.7161 31.2122 18.1051 31.1674 18.4724 30.9211L31.1556 23.3581L17.8566 15.0393L4.0174 23.4252ZM8.84653 30.5852L4.15785 33.4347L17.7378 41.2049L18.2941 41.0985L31.1556 33.4403L26.5209 30.602L18.2455 35.4556L17.7486 35.5899C14.783 33.9273 11.8499 32.1023 8.84113 30.5908L8.84653 30.5852Z" fill="#617D99"/>
<path d="M51.4171 27.2041V37.4207H45.8804V7.33081H58.5096C67.3468 7.33081 70.4041 20.52 63.3441 25.4967C62.2476 26.2692 59.9518 27.2041 58.6446 27.2041H51.4171ZM51.4171 22.0259H57.6939C57.8452 22.0259 59.0768 21.5556 59.2928 21.4437C61.9235 20.0161 62.0855 14.989 59.6115 13.3264C59.2442 13.0801 57.9478 12.5147 57.5589 12.5147H51.4117V22.0315L51.4171 22.0259Z" fill="#617D99"/>
<path d="M98.1425 37.4205H93.4161L93.146 34.7614C91.4228 37.5884 87.7929 38.4393 84.7679 37.7787C81.2892 37.0174 79.3068 33.7145 80.0846 30.1149C81.2946 24.5224 88.4519 25.1326 92.676 24.6903C93.2216 24.6679 92.8975 23.2964 92.7895 22.8933C92.4221 21.5554 91.2338 20.8948 89.9752 20.7717C87.7605 20.5533 85.065 21.0795 84.9138 23.8506H80.4573C80.2845 15.9069 92.4437 14.1659 96.4464 19.3833C97.2081 20.3798 98.1479 22.6638 98.1479 23.9178V37.4205H98.1425ZM93.0109 28.3235C90.9151 28.7378 85.2216 28.0604 85.3513 31.4361C85.4809 34.8117 90.3641 34.2575 91.9846 32.5053C93.0217 31.3857 93.0649 29.7846 93.0109 28.3235Z" fill="#617D99"/>
<path d="M117.858 17.1274V21.6731L108.605 32.3767L108.405 32.7966H117.858V37.415H101.788V32.8693C104.484 29.3089 107.644 26.1124 110.366 22.5856C110.577 22.3113 110.906 21.9474 110.971 21.6059H101.788V17.1274H117.858Z" fill="#617D99"/>
<path d="M75.9957 6.77075H70.729V37.4204H75.9957V6.77075Z" fill="#617D99"/>
<path d="M133.227 28.3629C133.481 28.3406 133.799 28.2174 133.907 28.5533C134.015 28.8892 133.826 30.2887 133.729 30.7086C133.124 33.3005 130.672 34.0842 128.333 33.7707C125.994 33.4572 125.378 30.4286 127.398 29.3314C128.781 28.5813 131.612 28.5141 133.221 28.3629H133.227Z" fill="#FCFCFC"/>
<path d="M4.01758 23.425L17.8568 15.0391L31.1558 23.3579L18.4726 30.9209C18.1052 31.1672 17.7109 31.2064 17.3328 30.9713L4.01758 23.425ZM23.7338 23.425L17.7271 19.6575L11.5854 23.425L17.7271 26.8007L23.7338 23.425Z" fill="#FCFCFC"/>
<path d="M8.84686 30.5852C11.861 32.0911 14.7941 33.9217 17.7543 35.5843L18.2512 35.45L26.5267 30.5964L31.1613 33.4346L18.2999 41.0929L17.7435 41.1992L4.16357 33.429L8.85226 30.5796L8.84686 30.5852Z" fill="#B2BDD4"/>
<path d="M31.1609 13.0745C31.2149 13.1529 31.015 13.276 30.9394 13.332C30.1832 13.8582 27.8442 15.3137 27.0718 15.6216C26.8881 15.6944 26.7207 15.7728 26.5154 15.728L17.8835 10.4378L8.8356 15.84L4.15771 13.1361L17.8619 4.86206L31.1609 13.0689V13.0745Z" fill="#97A7C0"/>
<path d="M51.4175 22.0256V12.5088H57.5646C57.9536 12.5088 59.25 13.0742 59.6173 13.3205C62.0913 14.9832 61.9292 20.0159 59.2986 21.4378C59.0825 21.5553 57.8563 22.02 57.6997 22.02H51.4229L51.4175 22.0256Z" fill="#FCFCFC"/>
<path d="M93.0103 28.3237C93.0643 29.7848 93.0211 31.3859 91.9839 32.5055C90.358 34.2577 85.4695 34.6384 85.3506 31.4363C85.2264 28.0606 90.9198 28.7324 93.0103 28.3237Z" fill="#FCFCFC"/>
<path d="M23.7334 23.4252L17.7267 26.8009L11.5796 23.4252L17.7267 19.6577L23.7334 23.4252Z" fill="#617D99"/>
</g>
<defs>
<clipPath id="clip0_519_337">
<rect width="138.667" height="45.3336" fill="white" transform="translate(0.257812 0.333008)"/>
</clipPath>
</defs>
</svg>
