<svg width="171" height="44" viewBox="0 0 171 44" fill="none" xmlns="http://www.w3.org/2000/svg">
<g clip-path="url(#clip0_519_310)">
<path d="M163.103 23.5665C163.103 22.2081 162.898 21.2331 162.489 20.6414C162.089 20.0498 161.544 19.754 160.854 19.754C160.471 19.754 160.202 19.9123 160.049 20.229C159.905 20.5456 159.832 20.9248 159.832 21.3665V31.0665H152.244V15.5289H156.434L158.261 17.954C158.968 17.0122 159.922 16.2747 161.122 15.7414C162.323 15.2081 163.566 14.9414 164.853 14.9414C165.926 14.9414 166.909 15.1623 167.804 15.6039C168.698 16.0373 169.409 16.6664 169.937 17.4914C170.474 18.3165 170.742 19.3081 170.742 20.4664V31.0665H163.103V23.5665Z" fill="#617D99"/>
<path d="M139.104 22.7666C139.104 23.8333 139.197 24.6666 139.385 25.2666C139.58 25.8583 139.832 26.2749 140.139 26.5166C140.454 26.7499 140.786 26.8666 141.135 26.8666C141.646 26.8666 141.978 26.7166 142.131 26.4166C142.293 26.1083 142.374 25.7124 142.374 25.2291V15.5291H149.962V31.0666H145.773L143.945 28.6291C143.238 29.5791 142.281 30.3208 141.071 30.8541C139.87 31.3875 138.627 31.6541 137.341 31.6541C136.276 31.6541 135.297 31.4375 134.402 31.0041C133.508 30.5625 132.793 29.9291 132.256 29.1041C131.728 28.2791 131.464 27.2875 131.464 26.1291V15.5291H139.104V22.7666Z" fill="#617D99"/>
<path d="M117.341 15.529H118.797V12.8915C118.797 11.9331 119.065 11.1206 119.602 10.454C120.138 9.77891 120.849 9.26643 121.735 8.91646C122.63 8.55811 123.613 8.37891 124.686 8.37891C125.657 8.37891 126.607 8.49144 127.535 8.71645C128.472 8.9331 129.302 9.24979 130.026 9.66643V13.4039C129.584 13.2873 129.175 13.229 128.8 13.229C127.991 13.229 127.407 13.454 127.05 13.9039C126.692 14.3456 126.488 14.8873 126.436 15.529H130.052V19.4915H126.436V31.0665H118.797V19.4915H117.341V15.529Z" fill="#617D99"/>
<path d="M112.785 24.179C113.56 24.179 114.208 24.3415 114.727 24.6665C115.247 24.9915 115.634 25.4123 115.89 25.929C116.154 26.4456 116.286 26.9957 116.286 27.579C116.286 28.2207 116.128 28.8456 115.813 29.454C115.498 30.054 115.026 30.5498 114.395 30.9415C113.765 31.3332 112.973 31.529 112.019 31.529C111.21 31.529 110.546 31.3707 110.026 31.054C109.515 30.7373 109.136 30.3207 108.889 29.804C108.642 29.2874 108.519 28.7373 108.519 28.154C108.519 27.529 108.689 26.9123 109.03 26.304C109.371 25.6957 109.86 25.1915 110.499 24.7915C111.138 24.3832 111.9 24.179 112.785 24.179Z" fill="#617D99"/>
<path d="M94.8164 15.5289H96.2728V11.3289L103.913 10.5664V15.5289H107.528V19.4915H103.913V23.4164C103.913 24.5498 104.173 25.3915 104.692 25.9415C105.211 26.4915 106.157 26.7665 107.528 26.7665V29.9415C106.795 30.4248 105.961 30.8123 105.024 31.104C104.087 31.404 103.133 31.554 102.162 31.554C101.089 31.554 100.106 31.3332 99.2113 30.8915C98.3256 30.4499 97.6143 29.8123 97.0779 28.979C96.5416 28.1456 96.2728 27.1498 96.2728 25.9915V19.4915H94.8164V15.5289Z" fill="#617D99"/>
<path d="M87.7969 14.9414C89.2277 14.9414 90.4197 15.2248 91.3736 15.7914C92.3362 16.3581 93.0557 17.1165 93.5326 18.0664C94.0183 19.0081 94.2609 20.0581 94.2609 21.2164C94.2609 22.0164 94.1415 22.8623 93.9033 23.754C93.6646 24.6456 93.2814 25.5207 92.7532 26.379C92.2337 27.229 91.548 28.004 90.6966 28.704C89.8447 29.3957 88.8145 29.954 87.605 30.379C86.3955 30.804 84.9777 31.0332 83.3507 31.0665V35.1165H75.7622V15.5289H79.9527L81.7286 17.9289C82.7506 16.8539 83.7938 16.0873 84.8584 15.6289C85.9316 15.1706 86.9111 14.9414 87.7969 14.9414ZM86.5192 20.1039C86.1442 20.1039 85.7528 20.2498 85.344 20.5414C84.9352 20.8248 84.5559 21.1956 84.207 21.654C83.8576 22.1039 83.5726 22.5789 83.3507 23.0789V26.6665C83.5726 26.5165 83.9301 26.2873 84.424 25.979C84.9178 25.6706 85.4372 25.2915 85.9823 24.8415C86.5274 24.3832 86.9918 23.8623 87.375 23.2789C87.7582 22.6956 87.95 22.0581 87.95 21.3665C87.95 21.0248 87.835 20.729 87.605 20.4789C87.3837 20.229 87.0218 20.1039 86.5192 20.1039Z" fill="#617D99"/>
<path d="M64.7297 31.529C63.5883 31.529 62.4769 31.3373 61.3955 30.954C60.314 30.5623 59.3389 30.004 58.4701 29.279C57.6099 28.5456 56.9242 27.6706 56.413 26.654C55.9109 25.629 55.6597 24.4873 55.6597 23.229C55.6597 21.9873 55.8979 20.8581 56.3748 19.8414C56.8517 18.8248 57.5075 17.954 58.342 17.2289C59.177 16.4956 60.1391 15.9331 61.2292 15.5414C62.3281 15.1414 63.4951 14.9414 64.7297 14.9414C66.4674 14.9414 68.0388 15.2789 69.444 15.9539C70.8492 16.6206 71.9606 17.5789 72.7782 18.8289C73.604 20.0706 74.0172 21.554 74.0172 23.2789C74.0172 24.5456 73.7659 25.6873 73.2633 26.704C72.7613 27.7207 72.0756 28.5873 71.2068 29.304C70.3379 30.0207 69.3459 30.5707 68.2301 30.954C67.1231 31.3373 65.9561 31.529 64.7297 31.529ZM63.9251 26.479C64.2996 26.479 64.7171 26.3081 65.1772 25.9665C65.6367 25.6164 66.0798 25.1748 66.5055 24.6415C66.9312 24.0998 67.2806 23.5331 67.5531 22.9414C67.8339 22.3498 67.9745 21.8081 67.9745 21.3165C67.9745 20.9414 67.8726 20.5998 67.6682 20.2915C67.4719 19.9831 67.1313 19.8289 66.6461 19.8289C66.203 19.8289 65.7348 19.9956 65.2409 20.329C64.7466 20.654 64.2827 21.0831 63.8483 21.6164C63.4226 22.1414 63.0732 22.704 62.8007 23.304C62.5368 23.8956 62.4049 24.4623 62.4049 25.004C62.4049 25.3706 62.5156 25.7081 62.7369 26.0164C62.9582 26.3248 63.3545 26.479 63.9251 26.479Z" fill="#617D99"/>
<path d="M32.9233 0.66626C38.8642 0.666351 43.6799 5.3787 43.6802 11.1917V32.8079C43.68 38.6208 38.8643 43.3332 32.9233 43.3333H10.8325C4.89152 43.3333 0.0749246 38.6209 0.074707 32.8079V11.1917C0.0749625 5.37865 4.89154 0.66626 10.8325 0.66626H32.9233ZM30.0308 10.6292C30.0313 10.6559 30.0731 12.859 30.0317 12.8225C30.0309 14.0454 29.3061 14.4449 28.6802 14.5598L22.9097 14.5608H14.8032C14.4104 14.507 13.7829 14.2801 13.7817 13.425C13.7468 13.4639 13.7817 11.2278 13.7817 11.2278L10.1001 10.6292V14.5588C10.0995 15.0393 10.0945 15.5144 10.0894 15.9836C10.0866 16.2294 10.0835 16.4736 10.0815 16.7161L4.9585 16.719L4.95752 19.7366L10.0269 19.7356C10.0096 20.5654 10.0023 21.3663 10.0034 22.1487H4.95752V25.1682L10.0718 25.1702C10.3695 30.2472 11.676 33.8015 16.5444 34.2434C20.464 34.5995 22.2141 32.7928 22.9204 29.9104C23.8312 31.6612 25.4348 32.757 28.1069 32.5012C31.7589 32.1566 32.9838 29.0684 33.3325 25.1702L38.3979 25.1692V22.1487L33.4653 22.1477C33.4653 21.3531 33.4496 20.5429 33.4331 19.7366H38.3979V16.718H33.3335C33.3199 16.064 33.3071 15.4213 33.3071 14.7942H33.3218L33.3237 10.6282L30.0308 10.6292ZM20.5444 19.8088H29.8081C29.8081 19.9812 29.8144 20.1911 29.8208 20.429C29.8779 22.5417 29.9948 26.8696 26.729 26.8704C24.0012 26.8698 23.6592 24.7292 23.6392 22.4856H20.5737C20.6093 25.1721 20.4 28.2749 17.1519 28.2756C13.6376 28.2763 13.715 22.8701 13.7505 20.3967C13.7536 20.1748 13.7565 19.9765 13.7563 19.8079L20.5444 19.8088Z" fill="#617D99"/>
</g>
<defs>
<clipPath id="clip0_519_310">
<rect width="170.667" height="42.6669" fill="white" transform="translate(0.074707 0.66626)"/>
</clipPath>
</defs>
</svg>
