<svg width="47" height="61" viewBox="0 0 47 61" fill="none" xmlns="http://www.w3.org/2000/svg">
<g clip-path="url(#clip0_515_272)">
<path d="M36.71 57.5599V58.3199C36.71 59.5699 35.59 60.5899 34.21 60.5899H12.51C11.12 60.5899 10.01 59.5699 10.01 58.3199V57.5599H5.01C2.25 57.5599 0 55.5299 0 53.0199V48.3699C0 44.4399 1.15 40.6699 3.33 37.3799L13.35 22.2199V17.4199C13.35 10.8599 15.72 4.63994 21.86 0.459941C22.75 -0.150059 23.98 -0.150059 24.86 0.459941C31 4.63994 33.37 10.8599 33.37 17.4199V22.2199L43.39 37.3799C45.48 40.6699 46.72 44.4399 46.72 48.3699V53.0199C46.72 55.5299 44.48 57.5599 41.71 57.5599H36.7H36.71ZM13.35 31.0499L7.63 39.7099C5.92 42.2899 5.01 45.2599 5.01 48.3599V48.4599H10.4C10.92 46.9399 11.97 45.6099 13.35 44.6699V31.0399V31.0499ZM31.7 56.0399V50.7399C31.7 49.5399 30.93 48.4899 29.79 47.9999C28.91 47.6199 28.36 46.8299 28.36 45.9499V17.4199C28.36 14.3299 27.76 11.5099 26.43 9.08994H20.28C18.96 11.5099 18.35 14.3299 18.35 17.4199V45.9499C18.35 46.8299 17.8 47.6299 16.92 47.9999C15.78 48.4799 15.01 49.5299 15.01 50.7399V56.0399H31.7ZM21.69 15.1499H25.03C25.95 15.1499 26.7 15.8299 26.7 16.6599C26.7 17.4899 25.95 18.1699 25.03 18.1699H21.69C20.77 18.1699 20.02 17.4899 20.02 16.6599C20.02 15.8299 20.77 15.1499 21.69 15.1499ZM33.37 31.0499V44.6799C34.75 45.6199 35.8 46.9399 36.32 48.4699H41.71V48.3699C41.71 45.2699 40.8 42.2999 39.09 39.7199L33.37 31.0599V31.0499Z" fill="#FF233C"/>
</g>
<defs>
<clipPath id="clip0_515_272">
<rect width="46.72" height="60.59" fill="white"/>
</clipPath>
</defs>
</svg>
