<svg width="137" height="51" viewBox="0 0 137 51" fill="none" xmlns="http://www.w3.org/2000/svg">
<g clip-path="url(#clip0_460_353)">
<mask id="mask0_460_353" style="mask-type:luminance" maskUnits="userSpaceOnUse" x="0" y="15" width="75" height="21">
<path d="M74.5345 15.67H0.554993V35.6548H74.5345V15.67Z" fill="white"/>
</mask>
<g mask="url(#mask0_460_353)">
<path d="M6.0214 15.8594H0.554993V16.8535H2.6898V22.6714H0.554993V23.6765H6.0214V22.6714H3.88661V16.8535H6.0214V15.8594Z" fill="#617D99"/>
<path d="M9.34833 23.6765V18.0711C9.34833 17.7252 9.34833 17.3794 9.32637 17.0211L11.8565 23.6765H13.585V15.8594H12.4666V21.3096C12.4666 21.6664 12.4666 22.0464 12.4776 22.4046L10.004 15.8594H8.23151V23.6765H9.34833Z" fill="#617D99"/>
<path d="M19.1239 23.6765V16.8535H21.654V15.8594H15.386V16.8535H17.9271V23.6765H19.1239Z" fill="#617D99"/>
<path d="M29.0355 23.6765V22.6714H24.8788V20.1712H28.6967V19.1661H24.8788V16.8535H28.888V15.8594H23.682V23.6765H29.0355Z" fill="#617D99"/>
<path d="M32.2838 23.6765V20.3496H33.7739C34.8688 20.3496 35.2986 20.5528 35.2986 21.8354V23.678H36.4954V21.6105C36.4954 20.4286 35.9872 19.9463 35.1746 19.8129C35.9087 19.6004 36.6538 19.0963 36.6538 17.9144C36.6538 16.3262 35.6484 15.8594 34.1582 15.8594H31.087V23.6765H32.2838ZM32.2838 16.8535H33.8869C34.8813 16.8535 35.4225 17.0304 35.4225 18.0928C35.4225 19.0731 34.8798 19.3429 33.8869 19.3429H32.2838V16.8535Z" fill="#617D99"/>
<path d="M41.5855 23.8562C43.2918 23.8562 44.2157 23.0544 44.4089 21.0427H43.1666C42.9753 22.4743 42.5562 22.8636 41.5636 22.8636C40.3666 22.8636 39.7 22.0865 39.7 19.7368C39.7 17.3978 40.3323 16.6766 41.5636 16.6766C42.4951 16.6766 42.9595 17.0985 43.11 18.4634H44.3979C44.255 16.5494 43.2982 15.67 41.6417 15.67C39.62 15.67 38.4577 16.8596 38.4577 19.7352C38.4577 22.6883 39.5634 23.8562 41.5855 23.8562Z" fill="#617D99"/>
<path d="M47.5329 23.6765V20.1154H50.4804V23.678H51.677V15.8594H50.4804V19.1087H47.5329V15.8594H46.3362V23.6765H47.5329Z" fill="#617D99"/>
<path d="M59.8495 23.6765L57.3758 15.8594H55.8513L53.4011 23.6765H54.5981L55.2647 21.4213H57.9187L58.5743 23.6765H59.8495ZM56.3267 17.8478C56.4285 17.491 56.5179 17.1777 56.5979 16.8427C56.6764 17.1777 56.7564 17.4786 56.8692 17.8478L57.6252 20.4271H55.5578L56.3267 17.8478Z" fill="#617D99"/>
<path d="M66.9709 15.8594H61.5045V16.8535H63.6394V22.6714H61.5045V23.6765H66.9709V22.6714H64.836V16.8535H66.9709V15.8594Z" fill="#617D99"/>
<path d="M70.2975 23.6765V18.0711C70.2975 17.7252 70.2975 17.3794 70.2756 17.0211L72.8059 23.6765H74.5341V15.8594H73.4159V21.3096C73.4159 21.6664 73.4159 22.0464 73.4268 22.4046L70.9532 15.8594H69.1808V23.6765H70.2975Z" fill="#617D99"/>
<path d="M2.15793 35.4753V31.9917H6.03226V30.9975H2.15793V28.6524H6.23462V27.6582H0.961121V35.4753H2.15793Z" fill="#617D99"/>
<path d="M10.9075 35.6552C12.782 35.6552 13.8659 34.5539 13.8659 31.5682C13.8659 28.5825 12.7929 27.4689 10.9075 27.4689C9.00962 27.4689 7.93671 28.5809 7.93671 31.5667C7.93671 34.5524 9.02059 35.6552 10.9075 35.6552ZM10.9075 34.661C9.83467 34.661 9.179 33.9738 9.179 31.5682C9.179 29.1626 9.80015 28.4755 10.9075 28.4755C11.9914 28.4755 12.6236 29.1626 12.6236 31.5682C12.6236 33.9738 11.9679 34.661 10.9075 34.661Z" fill="#617D99"/>
<path d="M18.526 35.6552C20.3895 35.6552 21.3494 34.5493 21.3494 32.6509V27.6582H20.1526V32.5051C20.1526 33.8902 19.6225 34.661 18.526 34.661C17.4187 34.661 16.8995 33.8902 16.8995 32.5051V27.6582H15.7026V32.6493C15.7026 34.5493 16.6736 35.6552 18.526 35.6552Z" fill="#617D99"/>
<path d="M24.6633 35.4753V29.8715C24.6633 29.5256 24.6633 29.1798 24.6413 28.8215L27.1714 35.4769H28.8999V27.6598H27.7816V33.1101C27.7816 33.4668 27.7816 33.8468 27.7926 34.2051L25.3189 27.6613H23.5464V35.4785L24.6633 35.4753Z" fill="#617D99"/>
<path d="M33.4819 35.4753C35.819 35.4753 37.0284 34.4299 37.0284 31.5885C37.0284 28.3778 35.5822 27.6582 33.3235 27.6582H31.449V35.4753H33.4819ZM32.6458 28.6524H33.369C35.041 28.6524 35.7861 29.2169 35.7861 31.5668C35.7861 34.1073 34.8607 34.4703 33.4034 34.4703H32.6474V28.6524H32.6458Z" fill="#617D99"/>
<path d="M44.9264 35.4753L42.4528 27.6582H40.9283L38.478 35.4753H39.6751L40.3417 33.2201H42.9956L43.6513 35.4753H44.9264ZM41.4017 29.6466C41.504 29.2898 41.5934 28.9766 41.6734 28.6415C41.7515 28.9766 41.8318 29.2775 41.9446 29.6466L42.7006 32.226H40.6333L41.4017 29.6466Z" fill="#617D99"/>
<path d="M49.5207 35.4753V28.6524H52.0509V27.6582H45.7828V28.6524H48.324V35.4753H49.5207Z" fill="#617D99"/>
<path d="M59.3523 27.6582H53.8859V28.6524H56.0207V34.4703H53.8859V35.4753H59.3523V34.4703H57.2174V28.6524H59.3523V27.6582Z" fill="#617D99"/>
<path d="M64.2385 35.6552C66.113 35.6552 67.1969 34.5539 67.1969 31.5682C67.1969 28.5825 66.124 27.4689 64.2385 27.4689C62.3405 27.4689 61.2676 28.5809 61.2676 31.5667C61.2676 34.5524 62.3533 35.6552 64.2385 35.6552ZM64.2385 34.661C63.1655 34.661 62.5099 33.9738 62.5099 31.5682C62.5099 29.1626 63.1312 28.4755 64.2385 28.4755C65.3223 28.4755 65.9546 29.1626 65.9546 31.5682C65.9546 33.9738 65.3004 34.661 64.2385 34.661Z" fill="#617D99"/>
<path d="M70.2975 35.4753V29.8715C70.2975 29.5256 70.2975 29.1798 70.2756 28.8215L72.8055 35.4769H74.5341V27.6598H73.4159V33.1101C73.4159 33.4668 73.4159 33.8468 73.4268 34.2051L70.9532 27.6613H69.1808V35.4785L70.2975 35.4753Z" fill="#617D99"/>
</g>
<path d="M111.637 50.265L110.333 50.2317L109.032 50.1276L107.741 49.9565L106.457 49.7188L105.19 49.4149L103.94 49.0436L102.71 48.606L101.505 48.106L100.325 47.5432L99.1786 46.9179L98.0653 46.2344L96.9894 45.4925L95.955 44.6965L94.962 43.8464L94.0148 42.9459L93.1173 41.9955L92.27 40.9993L91.4766 39.9615L90.7372 38.882L90.0558 37.765L89.4326 36.6146L88.8716 35.4309L88.3733 34.2222L87.9372 32.9884L87.5671 31.7338L87.2642 30.4626L87.0272 29.1747L86.8567 27.8784L86.753 26.5738L86.7198 25.265L86.753 23.9562L86.8567 22.6517L87.0272 21.3554L87.2642 20.0674L87.5671 18.7962L87.9372 17.5416L88.3733 16.3079L88.8716 15.0991L89.4326 13.9154L90.0558 12.765L90.7372 11.648L91.4766 10.5685L92.27 9.53061L93.1173 8.53443L94.0148 7.58413L94.962 6.68383L95.955 5.83352L96.9894 5.03742L98.0653 4.29552L99.1786 3.61196L100.325 2.98676L101.505 2.42407L102.71 1.9239L103.94 1.48626L105.19 1.1153L106.457 0.811029L107.741 0.573451L109.032 0.40256L110.333 0.298359L111.637 0.265015L112.942 0.298359L114.242 0.40256L115.534 0.573451L116.818 0.811029L118.085 1.1153L119.335 1.48626L120.565 1.9239L121.77 2.42407L122.946 2.98676L124.092 3.61196L125.205 4.29552L126.281 5.03742L127.316 5.83352L128.309 6.68383L129.256 7.58413L130.153 8.53443L131.001 9.53061L131.794 10.5685L132.534 11.648L133.215 12.765L133.838 13.9154L134.399 15.095L134.897 16.3037L135.333 17.5374L135.704 18.792L136.007 20.0633L136.243 21.3512L136.414 22.6475L136.518 23.9521L136.551 25.2733L136.518 26.5696L136.414 27.8742L136.243 29.1705L136.007 30.4584L135.704 31.7297L135.333 32.9842L134.897 34.218L134.399 35.4267L133.838 36.6105L133.215 37.7608L132.534 38.8778L131.794 39.9573L131.001 40.9951L130.153 41.9914L129.256 42.9418L128.309 43.8422L127.316 44.6923L126.281 45.4883L125.205 46.2302L124.092 46.9138L122.946 47.539L121.77 48.1019L120.565 48.6019L119.335 49.0394L118.085 49.4107L116.818 49.7147L115.534 49.9524L114.238 50.1235L112.938 50.2275L111.633 50.2608L111.637 50.265ZM111.625 1.16115L110.366 1.19449L109.112 1.29452L107.865 1.46125L106.627 1.69049L105.406 1.98642L104.201 2.34487L103.017 2.76585L101.854 3.24934L100.72 3.79119L99.6147 4.3914L98.5429 5.04995L97.5085 5.76683L96.5114 6.53379L95.5562 7.35487L94.6463 8.22183L93.782 9.13882L92.9637 10.0975L92.1994 11.0978L91.489 12.1356L90.8326 13.211L90.2343 14.3197L89.6944 15.4576L89.2123 16.6246L88.7928 17.8125L88.4355 19.0213L88.1405 20.2467L87.9119 21.4887L87.7501 22.7392L87.6505 23.9979L87.6173 25.2609L87.6505 26.5238L87.7501 27.7825L87.9161 29.033L88.1447 30.275L88.4397 31.5004L88.7969 32.7091L89.2165 33.8971L89.6986 35.0641L90.2384 36.202L90.8368 37.3107L91.4932 38.3861L92.2077 39.424L92.972 40.4244L93.7903 41.3827L94.6546 42.2957L95.5687 43.1628L96.5239 43.9838L97.5209 44.7506L98.5554 45.4633L99.6271 46.1219L100.732 46.7222L101.867 47.2639L103.03 47.7476L104.214 48.1685L105.418 48.5269L106.64 48.8229L107.878 49.0523L109.124 49.2147L110.379 49.3146L111.637 49.3479L112.896 49.3146L114.151 49.2147L115.397 49.0478L116.635 48.8188L117.856 48.5228L119.061 48.1643L120.245 47.7434L121.408 47.2597L122.543 46.7181L123.648 46.1178L124.719 45.4592L125.754 44.7465L126.751 43.9796L127.706 43.1587L128.62 42.2915L129.485 41.3744L130.299 40.416L131.063 39.4157L131.773 38.3778L132.43 37.3024L133.028 36.1937L133.568 35.0558L134.05 33.8887L134.47 32.7008L134.827 31.4921L135.122 30.2667L135.35 29.0246L135.516 27.7742L135.616 26.5154L135.649 25.2609L135.616 23.9937L135.516 22.735L135.35 21.4846L135.122 20.2425L134.827 19.0171L134.47 17.8084L134.05 16.6205L133.568 15.4534L133.028 14.3155L132.43 13.2068L131.773 12.1315L131.063 11.0936L130.299 10.0933L129.48 9.13462L128.616 8.22183L127.702 7.35487L126.747 6.53795L125.75 5.77103L124.715 5.05828L123.644 4.39972L122.538 3.79953L121.404 3.25768L120.241 2.77419L119.057 2.35321L117.852 1.99476L116.631 1.69883L115.393 1.46958L114.147 1.30703L112.892 1.20699L111.633 1.17365L111.625 1.16115Z" fill="#617D99"/>
<path d="M112.086 49.8108H111.181V46.1636L110.852 46.1552L110.067 46.1011L109.29 46.0095L108.526 45.8884L107.778 45.7302L107.051 45.5424L106.349 45.3259L105.672 45.0841L105.024 44.8214L104.405 44.5383L103.815 44.2381L103.258 43.9213L102.735 43.592L102.24 43.2544L101.347 42.5625L100.579 41.8581L99.9263 41.1537L99.3823 40.4702L98.9292 39.7991L98.5637 39.1488L98.277 38.5277L98.057 37.9359L97.8989 37.3732L97.7952 36.8356L97.7579 36.5021L97.2674 36.0478L96.5322 35.2725L96.179 34.8516L95.8342 34.4097L95.5019 33.9471L95.182 33.4636L94.879 32.9593L94.5923 32.4341L94.3222 31.8922L94.0687 31.3337L93.8363 30.7585L93.6243 30.1667L93.4372 29.5581L93.2753 28.9371L93.1384 28.3077L93.026 27.6658L92.9388 27.0198L92.8807 26.3654L92.8475 25.7152H87.16V24.8065H92.8351L92.8475 24.3939L92.8973 23.7395L92.9762 23.0893L93.0799 22.4474L93.2089 21.8139L93.3625 21.1887L93.5413 20.576L93.7446 19.9758L93.9691 19.3922L94.2143 18.8254L94.4799 18.2752L94.7625 17.7459L95.0616 17.2332L95.3732 16.7414L95.7014 16.2704L96.0421 15.8202L96.7525 14.9866L97.496 14.2364L97.7496 14.0113L97.7827 13.7154L97.8865 13.1777L98.0446 12.6108L98.2603 12.0148L98.5471 11.3896L98.9085 10.7394L99.3574 10.0641L99.9014 9.37225L100.558 8.66365L101.326 7.95926L101.758 7.60915L102.215 7.26736L102.71 6.92974L103.233 6.60465L103.794 6.28788L104.38 5.98777L105.003 5.70434L105.651 5.44174L106.332 5.19999L107.035 4.98326L107.761 4.79571L108.509 4.63731L109.274 4.51229L110.05 4.42058L111.185 4.35805V0.706848H112.09V4.35389L112.418 4.36222L113.204 4.41642L113.981 4.50813L114.745 4.62899L115.493 4.78739L116.22 4.97494L116.922 5.19166L117.599 5.43341L118.247 5.69602L118.87 5.97944L119.46 6.27955L120.017 6.59632L120.54 6.92558L121.034 7.2632L121.495 7.60915L121.928 7.95926L122.696 8.66365L123.348 9.36808L123.892 10.0516L124.346 10.7227L124.711 11.3729L124.998 11.9939L125.218 12.5858L125.376 13.1485L125.48 13.6862L125.517 14.0196L126.132 14.599L126.863 15.3909L127.216 15.8202L127.557 16.2704L127.885 16.7414L128.201 17.2332L128.5 17.7459L128.782 18.2752L129.048 18.8254L129.293 19.3922L129.518 19.9758L129.721 20.576L129.9 21.1887L130.053 21.8139L130.182 22.4474L130.286 23.0893L130.365 23.7395L130.431 24.8274H136.106V25.736H130.436L130.407 26.3654L130.348 27.0198L130.261 27.67L130.149 28.3119L130.012 28.9412L129.85 29.5623L129.663 30.1708L129.455 30.7627L129.223 31.342L128.973 31.9048L128.703 32.4466L128.417 32.9717L128.114 33.4761L127.794 33.9596L127.461 34.4222L127.116 34.8641L126.398 35.6852L125.521 36.5313L125.488 36.8272L125.388 37.3649L125.23 37.9317L125.014 38.5277L124.728 39.153L124.366 39.8032L123.917 40.4785L123.373 41.1704L122.717 41.8789L121.948 42.5833L121.517 42.9334L121.059 43.2752L120.565 43.6128L120.041 43.938L119.481 44.2548L118.895 44.5549L118.272 44.8381L117.624 45.1007L116.942 45.3426L116.24 45.5591L115.513 45.7468L114.77 45.9051L114.005 46.0303L113.229 46.1219L112.094 46.1844V49.8316L112.086 49.8108ZM98.8296 37.3691L98.9085 37.6566L99.1039 38.1817L99.3616 38.7362L99.6894 39.3241L100.101 39.9365L100.603 40.5701L101.202 41.212L101.916 41.8664L102.747 42.5125L103.208 42.8294L103.703 43.1378L104.226 43.4334L104.779 43.7169L105.364 43.9838L105.979 44.234L106.619 44.4588L107.284 44.6632L107.973 44.8381L108.679 44.9883L109.403 45.1049L110.138 45.1923L111.168 45.251V42.0663L110.345 41.9914L109.519 41.8373L108.734 41.6121L108.002 41.3244L107.334 40.9868L106.74 40.6034L106.22 40.1908L105.722 39.6867L105.269 39.6783L104.563 39.6197L103.835 39.5156L103.092 39.3574L102.332 39.1405L101.559 38.8653L100.774 38.5235L99.9844 38.111L99.1869 37.6191L98.8255 37.3691H98.8296ZM112.086 42.0705V45.2552L112.393 45.2468L113.137 45.1965L113.872 45.1091L114.6 44.9925L115.306 44.8422L115.995 44.6632L116.66 44.4588L117.304 44.2298L117.915 43.9796L118.5 43.7128L119.053 43.4293L119.58 43.1333L120.071 42.8252L120.536 42.5084L121.367 41.8623L122.081 41.2079L122.684 40.5576L123.19 39.9156L123.598 39.3029L123.926 38.7154L124.183 38.1568L124.375 37.6317L124.445 37.3774L123.702 37.8734L123.307 38.1068L122.526 38.5152L121.741 38.8611L120.964 39.1405L120.204 39.3574L119.46 39.5156L118.733 39.6238L118.027 39.6825L117.545 39.695L117.291 39.9656L116.814 40.3952L116.257 40.7953L115.626 41.1579L114.923 41.4747L114.163 41.7328L113.353 41.9247L112.51 42.0413L112.09 42.0705H112.086ZM112.086 37.9776V41.1579L112.805 41.0913L113.549 40.9493L114.251 40.7453L114.903 40.4868L115.488 40.1867L116.008 39.8532L116.452 39.4989L116.822 39.128L117.117 38.7571L117.341 38.3903L117.503 38.0318L117.603 37.69L117.653 37.3649V37.2065L117.615 36.7647L117.549 36.523L117.076 36.7647L116.506 37.0189L115.925 37.244L115.335 37.4399L114.737 37.6066L114.13 37.7442L113.515 37.8526L112.896 37.9276L112.094 37.9776H112.086ZM105.726 36.523L105.63 36.9398L105.614 37.2398L105.643 37.5566L105.722 37.8901L105.854 38.24L106.05 38.5985L106.312 38.9652L106.644 39.3365L107.051 39.6991L107.533 40.0451L108.086 40.3619L108.705 40.6409L109.386 40.8702L110.113 41.0409L110.873 41.1454L111.185 41.1662V37.9859H111.027L110.403 37.9359L109.785 37.8609L109.17 37.7567L108.563 37.6191L107.961 37.4524L107.371 37.2565L106.789 37.0314L106.22 36.7772L105.726 36.5271V36.523ZM118.338 36.0644L118.451 36.3854L118.534 36.7897L118.563 37.219L118.529 37.665L118.43 38.1234L118.259 38.586L118.176 38.7529L118.629 38.7154L119.298 38.6151L119.988 38.4694L120.69 38.2692L121.408 38.0109L122.135 37.69L122.866 37.3065L123.594 36.8564L124.325 36.327L124.649 36.0644V35.8269L124.632 35.4518L124.582 35.1016L124.507 34.7724L124.412 34.4639L124.3 34.1763L124.171 33.9054L123.868 33.4136L123.519 32.9759L123.124 32.5883L122.696 32.2423L122.385 32.0256L122.198 32.3257L121.84 32.8384L121.458 33.3302L121.051 33.8054L120.623 34.2597L120.175 34.689L119.705 35.0975L119.215 35.4809L118.351 36.0686L118.338 36.0644ZM98.6259 36.0644L99.328 36.6105L100.064 37.1023L100.433 37.3191L101.173 37.7067L101.9 38.0234L102.618 38.2779L103.32 38.4777L104.006 38.6238L104.675 38.7196L105.098 38.7529L104.932 38.382L104.791 37.9234L104.72 37.4733L104.708 37.2524L104.733 36.823L104.812 36.4146L104.932 36.0603L104.596 35.8477L104.085 35.4893L103.595 35.1058L103.121 34.6973L102.668 34.268L102.236 33.8137L101.829 33.3427L101.447 32.8509L100.886 32.0214L100.558 32.2507L100.13 32.6008L99.7354 32.9926L99.3865 33.4344L99.0873 33.9304L98.9583 34.2013L98.8462 34.4889L98.7549 34.7974L98.6844 35.1266L98.6384 35.4809L98.6176 35.8602V36.0603L98.6259 36.0644ZM106.183 35.7352L106.61 35.9519L107.138 36.1853L107.678 36.3937L108.227 36.573L108.783 36.7272L109.348 36.8522L109.917 36.9523L110.491 37.0231L111.181 37.0689V33.9054L109.868 34.0305L108.75 34.2722L107.886 34.5681L107.113 34.9558L106.586 35.3309L106.183 35.731V35.7352ZM112.09 33.9054V37.0689H112.227L112.805 37.0231L113.378 36.9523L113.947 36.8522L114.512 36.723L115.069 36.5688L115.617 36.3854L116.157 36.177L116.685 35.9394L117.092 35.7352L116.793 35.4267L116.286 35.0391L115.696 34.7098L114.865 34.3806L113.773 34.1013L112.418 33.9304L112.086 33.9138L112.09 33.9054ZM115.871 33.7887L116.444 34.0721L117.1 34.5014L117.541 34.8849L117.885 35.2767L118.193 35.0808L118.666 34.7474L119.124 34.3889L119.56 34.0096L119.979 33.6095L120.378 33.1885L120.756 32.7509L121.113 32.2924L121.604 31.5713L121.001 31.2879L119.929 30.8877L118.525 30.5001L117.462 30.2834L117.221 31.0086L116.893 31.8422L116.51 32.6633L116.078 33.4678L115.879 33.7887H115.871ZM101.679 31.5671L101.85 31.8339L102.182 32.309L102.54 32.7675L102.918 33.2052L103.316 33.6261L103.736 34.0263L104.176 34.4056L104.633 34.7599L105.393 35.2767L105.722 34.9016L106.162 34.514L106.648 34.1805L107.404 33.7887L107.217 33.4928L106.781 32.6883L106.399 31.8672L106.066 31.0336L105.817 30.2834L104.18 30.646L103.071 30.9836L102.012 31.4087L101.679 31.5713V31.5671ZM93.7446 25.711L93.7737 26.2987L93.8321 26.9156L93.9151 27.5241L94.023 28.1285L94.1517 28.7203L94.3056 29.3039L94.4799 29.8749L94.6795 30.4334L94.8956 30.9753L95.1322 31.5004L95.3857 32.009L95.6558 32.5008L95.9425 32.9717L96.2417 33.4261L96.8728 34.2722L97.5458 35.0391L97.7579 35.2558L97.7952 34.9683L97.8823 34.5681L97.9948 34.193L98.1317 33.8387L98.2894 33.5094L98.4641 33.201L98.655 32.9093L99.0748 32.384L99.5358 31.9214L100.03 31.5171L100.442 31.2295L100.176 30.7043L99.9222 30.1333L99.6981 29.5498L99.5027 28.9579L99.3363 28.3577L99.1993 27.7492L99.0914 27.1323L99.0167 26.5113L98.9666 25.7068H93.7529L93.7446 25.711ZM122.837 31.2337L123.232 31.5088L123.722 31.9089L124.183 32.3674L124.603 32.8884L124.794 33.176L124.969 33.4844L125.126 33.8137L125.263 34.1638L125.38 34.539L125.467 34.9391L125.513 35.26L126.078 34.6598L126.73 33.8512L127.042 33.4177L127.341 32.9634L127.627 32.4882L127.897 31.9964L128.151 31.4879L128.387 30.9628L128.604 30.4209L128.799 29.8624L128.973 29.2914L129.127 28.7079L129.256 28.1118L129.36 27.5074L129.443 26.8989L129.497 26.282L129.526 25.7152H124.312V25.8736L124.262 26.4988L124.187 27.1198L124.084 27.7367L123.947 28.3452L123.78 28.9454L123.585 29.5373L123.361 30.1208L123.107 30.6918L122.833 31.2378L122.837 31.2337ZM112.09 32.9926L113.328 33.0968L114.558 33.3344L115.002 33.4594L115.289 33.0009L115.696 32.2465L116.054 31.4754L116.365 30.6877L116.552 30.125L114.375 29.8916L112.094 29.7957V32.9843L112.09 32.9926ZM106.723 30.1333L106.918 30.7168L107.23 31.5046L107.591 32.2757L107.998 33.0301L108.268 33.4636L109.108 33.2427L110.354 33.0468L111.176 32.9926V29.804L108.588 29.9207L106.715 30.1291L106.723 30.1333ZM117.699 29.3997L119.019 29.6832L120.2 30.0208L121.063 30.3334L122.048 30.7835L122.289 30.3042L122.522 29.7749L122.729 29.233L122.912 28.6828L123.066 28.1243L123.19 27.5574L123.29 26.9864L123.361 26.4112L123.407 25.7193H118.197V25.8361L118.147 26.7113L118.052 27.5825L117.91 28.4494L117.699 29.4081V29.3997ZM99.8641 25.711V25.8485L99.9097 26.4279L99.9803 27.0031L100.08 27.5741L100.209 28.141L100.362 28.6995L100.545 29.2497L100.753 29.7915L100.99 30.3209L101.223 30.7794L101.912 30.4543L102.772 30.1208L103.948 29.7624L105.572 29.3997L105.551 29.3289L105.364 28.4661L105.223 27.5992L105.128 26.728L105.074 25.7152H99.8641V25.711ZM105.979 25.711V25.8194L106.029 26.6488L106.12 27.4741L106.253 28.2952L106.469 29.2497L108.522 29.0163L111.181 28.8954V25.711H105.979ZM112.09 28.8954L114.745 29.0163L116.801 29.2497L116.847 29.0871L117.022 28.2702L117.154 27.4491L117.246 26.6238L117.295 25.711H112.09V28.8954ZM124.312 24.8024H129.526L129.514 24.4231L129.464 23.8062L129.389 23.1935L129.289 22.5891L129.169 21.9931L129.023 21.4054L128.853 20.8302L128.662 20.2675L128.45 19.7215L128.217 19.188L127.968 18.6711L127.702 18.1752L127.42 17.6958L127.125 17.2373L126.497 16.3746L125.833 15.5951L125.504 15.2534L125.467 15.5451L125.38 15.9453L125.268 16.3204L125.131 16.6747L124.973 17.0039L124.798 17.3124L124.607 17.6042L124.187 18.1293L123.726 18.5878L123.232 18.9921L122.821 19.2797L123.087 19.8049L123.34 20.3759L123.564 20.9594L123.76 21.5513L123.926 22.1557L124.063 22.7642L124.171 23.3811L124.246 24.0021L124.296 24.8065L124.312 24.8024ZM118.197 24.8024H123.407V24.6648L123.361 24.0855L123.29 23.5103L123.19 22.9392L123.062 22.3724L122.908 21.8139L122.725 21.2637L122.517 20.7219L122.281 20.1925L122.048 19.734L121.354 20.0591L120.495 20.3926L119.319 20.751L117.69 21.1136L117.782 21.4721L117.952 22.3349L118.077 23.206L118.16 24.0771L118.189 24.8024H118.197ZM112.09 24.8024H117.291L117.262 24.1397L117.183 23.3144L117.063 22.4891L116.901 21.6722L116.797 21.2637L114.749 21.4971L112.09 21.618V24.8024ZM105.983 24.8024H111.185V21.618L108.53 21.4971L106.478 21.2637L106.37 21.6972L106.208 22.5141L106.091 23.3352L106.017 24.1605L105.992 24.7982L105.983 24.8024ZM99.8682 24.8024H105.078L105.107 24.1021L105.186 23.231L105.31 22.3599L105.576 21.1136L104.251 20.8302L103.071 20.4926L102.207 20.18L101.223 19.7299L100.981 20.2092L100.749 20.7385L100.541 21.2804L100.362 21.8305L100.209 22.3891L100.084 22.9559L99.9844 23.5269L99.9139 24.1021L99.8682 24.794V24.8024ZM93.7488 24.8024H98.9624V24.644L99.0126 24.0188L99.0873 23.3978L99.191 22.7809L99.328 22.1723L99.4944 21.568L99.6894 20.9761L99.9139 20.3926L100.167 19.8216L100.442 19.2755L100.047 19.0004L99.5566 18.6003L99.0956 18.1418L98.6761 17.6208L98.4848 17.3332L98.3101 17.0248L98.1525 16.6955L98.0155 16.3454L97.8989 15.9703L97.8118 15.5701L97.7662 15.245L97.0931 15.9786L96.7649 16.3787L96.1417 17.2415L95.8467 17.7L95.5686 18.1793L95.3027 18.6753L95.0533 19.1922L94.8247 19.7257L94.6131 20.2759L94.4218 20.8386L94.2516 21.4137L94.106 22.0014L93.9857 22.5975L93.8902 23.2018L93.8197 23.8146L93.7612 24.794L93.7488 24.8024ZM112.09 17.5208V20.7093L114.678 20.5926L116.556 20.3842L116.361 19.8049L116.157 19.2797L115.933 18.7587L115.688 18.246L115.422 17.7417L115.011 17.054L114.167 17.2749L112.921 17.4708L112.098 17.5249L112.09 17.5208ZM106.723 20.3801L108.904 20.6135L111.185 20.7093V17.5208L109.947 17.4166L108.717 17.179L108.268 17.0498L108.135 17.2582L107.844 17.7542L107.579 18.2585L107.334 18.7712L107.109 19.2922L106.906 19.8174L106.715 20.3801H106.723ZM115.879 16.7247L115.904 16.7622L116.211 17.2915L116.494 17.8292L116.756 18.3752L116.992 18.9296L117.208 19.4881L117.458 20.2342L119.095 19.8716L120.204 19.5339L121.263 19.1088L121.595 18.9462L121.425 18.6795L121.093 18.2043L120.735 17.7459L120.357 17.3082L119.958 16.8872L119.539 16.4871L119.099 16.1078L118.641 15.7493L117.881 15.2325L117.553 15.6076L117.113 15.9953L116.622 16.3287L115.871 16.7163L115.879 16.7247ZM101.679 18.9462L102.282 19.2297L103.354 19.6298L104.758 20.0174L105.817 20.2342L105.867 20.0675L106.058 19.5048L106.274 18.9462L106.511 18.3961L106.769 17.8501L107.051 17.3124L107.396 16.7289L106.827 16.4496L106.324 16.137L105.867 15.7702L105.381 15.245L105.078 15.4409L104.604 15.7744L104.147 16.1328L103.711 16.5121L103.291 16.9123L102.893 17.3332L102.515 17.775L102.162 18.2335L101.671 18.9546L101.679 18.9462ZM98.6301 14.4573V14.6907L98.6467 15.0658L98.6968 15.4159L98.7715 15.7452L98.867 16.0536L98.979 16.3412L99.2533 16.8622L99.5815 17.3249L99.9554 17.7375L100.367 18.1043L100.898 18.4919L101.086 18.1919L101.443 17.6792L101.825 17.1873L102.232 16.7122L102.66 16.2579L103.113 15.8244L103.582 15.4159L104.072 15.0325L104.937 14.4448L104.824 14.1238L104.741 13.7195L104.712 13.2902L104.745 12.8442L104.845 12.3857L105.015 11.9231L105.098 11.7522H105.086L104.205 11.8564L103.291 12.0398L102.822 12.169L102.348 12.3191L101.871 12.4983L101.384 12.7025L100.898 12.9359L100.408 13.1985L99.918 13.4944L99.428 13.8237L98.6218 14.4489L98.6301 14.4573ZM118.342 14.4573L118.679 14.6698L119.19 15.0283L119.68 15.4118L120.154 15.8202L120.607 16.2495L121.039 16.7038L121.446 17.1748L121.828 17.6667L122.389 18.4961L122.717 18.2669L123.145 17.9168L123.539 17.5249L123.888 17.0831L124.187 16.5871L124.317 16.3162L124.429 16.0286L124.52 15.7202L124.59 15.3909L124.636 15.0366L124.657 14.6573L124.649 14.4614L124.308 14.1822L123.822 13.8237L123.332 13.4986L122.841 13.2027L122.351 12.9401L121.866 12.7067L121.379 12.5024L120.897 12.3274L120.424 12.1773L119.497 11.9481L118.6 11.8064L118.172 11.7689L118.342 12.144L118.484 12.6025L118.554 13.0526L118.567 13.2735L118.542 13.7028L118.463 14.1113L118.342 14.4656V14.4573ZM112.09 13.4528V16.6163L113.407 16.4913L114.525 16.2495L115.389 15.9536L116.161 15.566L116.689 15.1908L117.092 14.7907L116.664 14.5739L116.137 14.3406L115.596 14.1322L115.048 13.9487L114.491 13.7945L113.927 13.6695L113.357 13.5695L112.784 13.4986L112.094 13.4528H112.09ZM106.183 14.7866L106.482 15.095L106.989 15.4826L107.579 15.8119L108.41 16.1412L109.502 16.4204L110.856 16.5913L111.189 16.608V13.4444H111.052L110.474 13.4903L109.901 13.5611L109.332 13.6612L108.767 13.7904L108.21 13.9446L107.662 14.128L107.122 14.3364L106.594 14.5739L106.187 14.7782L106.183 14.7866ZM112.09 12.5441H112.248L112.867 12.5941L113.486 12.6692L114.101 12.7734L114.707 12.9109L115.31 13.0776L115.9 13.2735L116.481 13.4986L117.051 13.7529L117.545 14.0029L117.64 13.5861L117.657 13.286L117.628 12.9693L117.549 12.6358L117.416 12.2857L117.221 11.9231L116.959 11.5563L116.627 11.1895L116.22 10.8269L115.738 10.4851L115.185 10.1683L114.566 9.88909L113.885 9.65983L113.158 9.48894L112.398 9.38474L112.082 9.36388V12.5441H112.09ZM111.185 9.36388L110.466 9.43057L109.722 9.57228L109.02 9.77652L108.368 10.035L107.782 10.335L107.267 10.6685L106.823 11.0269L106.453 11.3937L106.158 11.7647L105.934 12.1315L105.776 12.4899L105.676 12.8317L105.626 13.1568V13.311L105.664 13.7529L105.73 13.9946L106.203 13.757L106.773 13.5028L107.354 13.2777L107.944 13.0818L108.542 12.9151L109.149 12.7775L109.764 12.6692L110.383 12.5941L111.185 12.5441V9.36388ZM117.537 10.8311L118.226 10.856L118.7 10.8978L119.182 10.9644L119.672 11.052L120.17 11.1645L120.677 11.302L121.188 11.4646L121.707 11.6563L122.231 11.8772L122.758 12.1273L123.286 12.4107L123.814 12.7275L124.441 13.1527L124.358 12.8609L124.163 12.3357L123.905 11.7814L123.573 11.1937L123.161 10.581L122.659 9.94742L122.061 9.30555L121.346 8.65116L120.515 8.0051L120.054 7.68833L119.564 7.37989L119.04 7.08398L118.488 6.80056L117.902 6.53379L117.287 6.28372L116.647 6.05862L115.983 5.85438L115.293 5.67933L114.587 5.52929L113.864 5.4126L113.129 5.32505L112.098 5.26668V8.45109L112.921 8.52611L113.748 8.68035L114.533 8.9054L115.264 9.19303L115.933 9.53061L116.527 9.90991L117.046 10.3225L117.545 10.8269L117.537 10.8311ZM111.185 5.27089L110.877 5.27921L110.13 5.32921L109.394 5.41676L108.667 5.53345L107.961 5.68349L107.271 5.86275L106.606 6.06695L105.963 6.29621L105.352 6.54628L104.766 6.81305L104.214 7.09647L103.686 7.39242L103.196 7.70086L102.73 8.01763L101.9 8.66365L101.185 9.31805L100.583 9.96827L100.076 10.6101L99.6645 11.2229L99.3363 11.8105L99.0831 12.3691L98.8919 12.8942L98.8213 13.1485L98.9043 13.086L99.4321 12.7317L99.9595 12.4149L100.487 12.1315L101.015 11.8814L101.538 11.6605L102.057 11.4688L102.569 11.3062L103.075 11.1687L103.574 11.0561L104.546 10.9019L105.73 10.8311L105.979 10.5601L106.457 10.1308L107.014 9.73069L107.645 9.36808L108.347 9.05128L109.108 8.79288L109.917 8.60113L110.761 8.48443L111.181 8.45525V5.27089H111.185Z" fill="#617D99"/>
</g>
<defs>
<clipPath id="clip0_460_353">
<rect width="136" height="50" fill="white" transform="translate(0.554993 0.265015)"/>
</clipPath>
</defs>
</svg>
