<svg width="62" height="61" viewBox="0 0 62 61" fill="none" xmlns="http://www.w3.org/2000/svg">
<g clip-path="url(#clip0_155_28610)">
<path d="M30.5455 41.919L25.5155 46.949C22.4455 50.019 17.4655 50.019 14.3855 46.949C11.3155 43.879 11.3155 38.899 14.3855 35.819L22.7155 27.489C25.7855 24.419 30.7655 24.419 33.8455 27.489" stroke="#FF233B" stroke-width="5" stroke-miterlimit="10"/>
<path d="M32.1946 19.1791L37.2646 14.1091C40.3346 11.0391 45.3146 11.0391 48.3946 14.1091C51.4646 17.1791 51.4646 22.1591 48.3946 25.2391L40.0646 33.5691C36.9946 36.6391 32.0146 36.6391 28.9346 33.5691" stroke="#FF233B" stroke-width="5" stroke-miterlimit="10"/>
<path d="M58.5851 27.7295V47.7595C58.5851 53.3195 54.0751 57.8295 48.5251 57.8295H28.4951" stroke="#FF233B" stroke-width="5" stroke-miterlimit="10"/>
<path d="M3.41504 32.7492V12.7192C3.41504 7.15918 7.92504 2.65918 13.475 2.65918H33.505" stroke="#FF233B" stroke-width="5" stroke-miterlimit="10"/>
</g>
<defs>
<clipPath id="clip0_155_28610">
<rect width="60.17" height="60.17" fill="white" transform="translate(0.915039 0.15918)"/>
</clipPath>
</defs>
</svg>
