<svg width="121" height="46" viewBox="0 0 121 46" fill="none" xmlns="http://www.w3.org/2000/svg">
<g clip-path="url(#clip0_460_380)">
<path fill-rule="evenodd" clip-rule="evenodd" d="M22.7999 45.7081C29.4252 45.7081 35.3774 42.812 39.4715 38.2106C37.5671 36.5469 34.6969 36.4459 32.6693 38.0902L32.282 38.4044C28.5695 41.4151 23.1602 40.9705 19.9838 37.3935C18.2514 35.4427 15.2845 35.2435 13.3093 36.9454L8.84321 40.7936C12.6683 43.8691 17.5204 45.7081 22.7999 45.7081ZM30.0492 34.8266C33.5852 31.959 38.5553 32.0618 41.9562 34.8315C43.9889 31.4464 45.1585 27.4788 45.1585 23.2366C45.1585 18.5228 43.7144 14.1481 41.2466 10.5347C39.6558 10.1942 37.9314 10.5919 36.6225 11.7577L36.2499 12.0895C32.6797 15.2693 27.2556 15.076 23.9185 11.6503C22.0983 9.78192 19.1253 9.72052 17.2304 11.5123L12.0333 16.4264L9.17426 13.3721L14.3715 8.45801C17.921 5.10163 23.4901 5.21657 26.8997 8.71656C28.6812 10.5453 31.5768 10.6485 33.4827 8.95104L33.8552 8.61923C35.0121 7.58886 36.3507 6.89422 37.7521 6.52889C33.7909 2.94568 28.5488 0.765015 22.7999 0.765015C11.4498 0.765015 2.07505 9.26505 0.633512 20.2769C4.08098 18.6142 8.33341 19.254 11.1443 22.1471C12.9189 23.9734 15.7762 24.1662 17.7777 22.5946L20.6836 20.313C24.3354 17.4455 29.4979 17.5843 32.992 20.644L38.6494 25.5978L35.9085 28.7596L30.2512 23.8058C28.2644 22.066 25.3288 21.987 23.2522 23.6176L20.3465 25.8992C16.6691 28.7866 11.4195 28.4324 8.15916 25.0769C6.26331 23.1256 3.16263 23.0575 1.18381 24.9237L0.554993 25.5167C1.02558 30.2102 2.93319 34.4774 5.8289 37.8672L10.5935 33.7618C14.2935 30.5737 19.8514 30.9467 23.0967 34.6012C24.7923 36.5107 27.68 36.748 29.6618 35.1408L30.0492 34.8266Z" fill="#617D99"/>
<path d="M61.2632 30.4439C61.2632 35.1459 64.9355 38.23 70.7206 38.23C76.556 38.23 80.5802 35.2471 80.5802 30.5449C80.5802 26.8541 78.5181 24.9329 74.3426 23.9217L70.0164 22.8599C67.6017 22.2532 66.3943 21.1409 66.3943 19.4724C66.3943 17.1972 68.0544 15.8827 71.0225 15.8827C73.8899 15.8827 75.55 17.45 75.6506 19.9275H80.1784C80.0778 15.2253 76.556 12.1918 71.1733 12.1918C65.7404 12.1918 61.9172 15.0737 61.9172 19.6241C61.9172 23.2644 63.9797 25.4385 68.3563 26.5002L72.6826 27.5114C75.2482 28.1687 76.053 29.1799 76.053 30.8483C76.053 33.1236 74.1414 34.4887 70.8212 34.4887C67.7023 34.4887 65.7907 32.9718 65.7907 30.4439H61.2632Z" fill="#617D99"/>
<path d="M97.4448 38.23C103.532 38.23 107.657 35.2471 108.864 29.9383H104.437C103.633 32.7696 101.219 34.2864 97.5451 34.2864C92.8672 34.2864 90.1511 31.4045 89.7982 26.1968L108.814 26.1463V24.3767C108.814 17.0455 104.237 12.1918 97.2441 12.1918C90.1001 12.1918 85.2206 17.5511 85.2206 25.2867C85.2206 32.9718 90.2013 38.23 97.4448 38.23ZM97.2441 16.186C101.419 16.186 104.085 18.9163 104.085 23.0116H89.8994C90.5032 18.6635 93.1189 16.186 97.2441 16.186Z" fill="#617D99"/>
<path d="M117.417 7.03443C119.127 7.03443 120.535 5.61876 120.535 3.89972C120.535 2.13013 119.127 0.765015 117.417 0.765015C115.706 0.765015 114.297 2.13013 114.297 3.89972C114.297 5.61876 115.706 7.03443 117.417 7.03443ZM115.102 37.6231H119.831V12.8994H115.102V37.6231Z" fill="#617D99"/>
</g>
<defs>
<clipPath id="clip0_460_380">
<rect width="120" height="45" fill="white" transform="translate(0.554993 0.765015)"/>
</clipPath>
</defs>
</svg>
