<svg width="62" height="61" viewBox="0 0 62 61" fill="none" xmlns="http://www.w3.org/2000/svg">
<g clip-path="url(#clip0_155_28649)">
<path d="M51.165 3.06934H10.835C6.73709 3.06934 3.41504 6.39138 3.41504 10.4893V50.8193C3.41504 54.9173 6.73709 58.2393 10.835 58.2393H51.165C55.263 58.2393 58.585 54.9173 58.585 50.8193V10.4893C58.585 6.39138 55.263 3.06934 51.165 3.06934Z" stroke="#FF233B" stroke-width="5" stroke-miterlimit="10"/>
<path d="M30.9946 58.2293C37.8872 58.2293 43.4746 45.8813 43.4746 30.6493C43.4746 15.4173 37.8872 3.06934 30.9946 3.06934C24.1021 3.06934 18.5146 15.4173 18.5146 30.6493C18.5146 45.8813 24.1021 58.2293 30.9946 58.2293Z" stroke="#FF233B" stroke-width="5" stroke-miterlimit="10"/>
<path d="M5.33496 5.51953C9.37496 13.8395 19.345 19.7195 31.005 19.7195C42.665 19.7195 52.235 14.0695 56.425 6.01953" stroke="#FF233B" stroke-width="5" stroke-miterlimit="10"/>
<path d="M56.4152 55.7889C52.3752 47.4689 42.4052 41.5889 30.7452 41.5889C19.0852 41.5889 9.5152 47.2389 5.3252 55.2889" stroke="#FF233B" stroke-width="5" stroke-miterlimit="10"/>
<path d="M58.5848 30.6494H3.46484" stroke="#FF233B" stroke-width="5" stroke-miterlimit="10"/>
</g>
<defs>
<clipPath id="clip0_155_28649">
<rect width="60.17" height="60.17" fill="white" transform="translate(0.915039 0.569336)"/>
</clipPath>
</defs>
</svg>
