<svg width="61" height="61" viewBox="0 0 61 61" fill="none" xmlns="http://www.w3.org/2000/svg">
<g clip-path="url(#clip0_514_419)">
<path d="M50.3501 3.09009H10.0201C5.92214 3.09009 2.6001 6.41214 2.6001 10.5101V50.8401C2.6001 54.938 5.92214 58.2601 10.0201 58.2601H50.3501C54.4481 58.2601 57.7701 54.938 57.7701 50.8401V10.5101C57.7701 6.41214 54.4481 3.09009 50.3501 3.09009Z" stroke="#FF233C" stroke-width="5" stroke-miterlimit="10"/>
<path d="M24.8625 43.0147C25.9256 41.949 26.6499 40.5909 26.9437 39.1122C27.2375 37.6334 27.0876 36.1004 26.5129 34.7072C25.9382 33.3139 24.9645 32.123 23.7152 31.2851C22.4658 30.4472 20.9968 30 19.4941 30C17.9913 30 16.5223 30.4472 15.2729 31.2851C14.0236 32.123 13.0499 33.3139 12.4752 34.7072C11.9005 36.1004 11.7506 37.6334 12.0444 39.1122C12.3382 40.5909 13.0625 41.949 14.1256 43.0147C12.1287 44.293 10.68 46.2742 10.064 48.5693C9.93436 49.0576 10.0033 49.5776 10.2557 50.0149C10.5081 50.4522 10.9233 50.771 11.41 50.9012C11.5696 50.9434 11.7339 50.9651 11.899 50.9655C12.3178 50.9653 12.7248 50.8263 13.0567 50.57C13.3885 50.3136 13.6266 49.9544 13.734 49.5482C14.4058 47.0163 16.7748 45.2489 19.4952 45.2489C22.2156 45.2489 24.5847 47.0163 25.2565 49.5482C25.3166 49.7943 25.4251 50.0259 25.5754 50.2294C25.7258 50.4329 25.9151 50.6043 26.1323 50.7335C26.3495 50.8627 26.5901 50.9472 26.8402 50.982C27.0903 51.0167 27.3448 51.0011 27.5889 50.936C27.8329 50.8709 28.0615 50.7577 28.2614 50.6029C28.4612 50.4481 28.6283 50.2548 28.7529 50.0344C28.8774 49.8141 28.9569 49.571 28.9867 49.3194C29.0165 49.0678 28.996 48.8128 28.9264 48.5693C28.3099 46.2738 26.8603 44.2926 24.8625 43.0147ZM19.4952 33.8158C20.2464 33.8158 20.9808 34.0393 21.6054 34.458C22.23 34.8768 22.7168 35.472 23.0042 36.1684C23.2917 36.8648 23.3669 37.631 23.2204 38.3703C23.0738 39.1096 22.7121 39.7886 22.1809 40.3216C21.6497 40.8546 20.973 41.2176 20.2362 41.3646C19.4995 41.5117 18.7358 41.4362 18.0418 41.1478C17.3477 40.8593 16.7546 40.3708 16.3372 39.7441C15.9199 39.1174 15.6971 38.3806 15.6971 37.6268C15.6971 36.6161 16.0973 35.6467 16.8096 34.932C17.5218 34.2173 18.4879 33.8158 19.4952 33.8158Z" fill="#FF233B"/>
<path d="M24.8625 22.0147C25.9256 20.949 26.6499 19.5909 26.9437 18.1122C27.2375 16.6334 27.0876 15.1004 26.5129 13.7072C25.9382 12.3139 24.9645 11.123 23.7152 10.2851C22.4658 9.44724 20.9968 9 19.4941 9C17.9913 9 16.5223 9.44724 15.2729 10.2851C14.0236 11.123 13.0499 12.3139 12.4752 13.7072C11.9005 15.1004 11.7506 16.6334 12.0444 18.1122C12.3382 19.5909 13.0625 20.949 14.1256 22.0147C12.1287 23.293 10.68 25.2742 10.064 27.5693C9.93436 28.0576 10.0033 28.5776 10.2557 29.0149C10.5081 29.4522 10.9233 29.771 11.41 29.9012C11.5696 29.9434 11.7339 29.9651 11.899 29.9655C12.3178 29.9653 12.7248 29.8263 13.0567 29.57C13.3885 29.3136 13.6266 28.9544 13.734 28.5482C14.4058 26.0163 16.7748 24.2489 19.4952 24.2489C22.2156 24.2489 24.5847 26.0163 25.2565 28.5482C25.3166 28.7943 25.4251 29.0259 25.5754 29.2294C25.7258 29.4329 25.9151 29.6043 26.1323 29.7335C26.3495 29.8627 26.5901 29.9472 26.8402 29.982C27.0903 30.0167 27.3448 30.0011 27.5889 29.936C27.8329 29.8709 28.0615 29.7577 28.2614 29.6029C28.4612 29.4481 28.6283 29.2548 28.7529 29.0344C28.8774 28.8141 28.9569 28.571 28.9867 28.3194C29.0165 28.0678 28.996 27.8128 28.9264 27.5693C28.3099 25.2738 26.8603 23.2926 24.8625 22.0147ZM19.4952 12.8158C20.2464 12.8158 20.9808 13.0393 21.6054 13.458C22.23 13.8768 22.7168 14.472 23.0042 15.1684C23.2917 15.8648 23.3669 16.631 23.2204 17.3703C23.0738 18.1096 22.7121 18.7886 22.1809 19.3216C21.6497 19.8546 20.973 20.2176 20.2362 20.3646C19.4995 20.5117 18.7358 20.4362 18.0418 20.1478C17.3477 19.8593 16.7546 19.3708 16.3372 18.7441C15.9199 18.1174 15.6971 17.3806 15.6971 16.6268C15.6971 15.6161 16.0973 14.6467 16.8096 13.932C17.5218 13.2173 18.4879 12.8158 19.4952 12.8158Z" fill="#FF233B"/>
<path d="M46.8625 43.0147C47.9256 41.949 48.6499 40.5909 48.9437 39.1122C49.2375 37.6334 49.0876 36.1004 48.5129 34.7072C47.9382 33.3139 46.9645 32.123 45.7152 31.2851C44.4658 30.4472 42.9968 30 41.4941 30C39.9913 30 38.5223 30.4472 37.2729 31.2851C36.0236 32.123 35.0499 33.3139 34.4752 34.7072C33.9005 36.1004 33.7506 37.6334 34.0444 39.1122C34.3382 40.5909 35.0625 41.949 36.1256 43.0147C34.1287 44.293 32.68 46.2742 32.064 48.5693C31.9344 49.0576 32.0033 49.5776 32.2557 50.0149C32.5081 50.4522 32.9233 50.771 33.41 50.9012C33.5696 50.9434 33.7339 50.9651 33.899 50.9655C34.3178 50.9653 34.7248 50.8263 35.0567 50.57C35.3885 50.3136 35.6266 49.9544 35.734 49.5482C36.4058 47.0163 38.7748 45.2489 41.4952 45.2489C44.2156 45.2489 46.5847 47.0163 47.2565 49.5482C47.3166 49.7943 47.4251 50.0259 47.5754 50.2294C47.7258 50.4329 47.9151 50.6043 48.1323 50.7335C48.3495 50.8627 48.5901 50.9472 48.8402 50.982C49.0903 51.0167 49.3448 51.0011 49.5889 50.936C49.8329 50.8709 50.0615 50.7577 50.2614 50.6029C50.4612 50.4481 50.6283 50.2548 50.7529 50.0344C50.8774 49.8141 50.9569 49.571 50.9867 49.3194C51.0165 49.0678 50.996 48.8128 50.9264 48.5693C50.3099 46.2738 48.8603 44.2926 46.8625 43.0147ZM41.4952 33.8158C42.2464 33.8158 42.9808 34.0393 43.6054 34.458C44.23 34.8768 44.7168 35.472 45.0042 36.1684C45.2917 36.8648 45.3669 37.631 45.2204 38.3703C45.0738 39.1096 44.7121 39.7886 44.1809 40.3216C43.6497 40.8546 42.973 41.2176 42.2362 41.3646C41.4995 41.5117 40.7358 41.4362 40.0418 41.1478C39.3477 40.8593 38.7546 40.3708 38.3372 39.7441C37.9199 39.1174 37.6971 38.3806 37.6971 37.6268C37.6971 36.6161 38.0973 35.6467 38.8096 34.932C39.5218 34.2173 40.4879 33.8158 41.4952 33.8158Z" fill="#FF233B"/>
<path d="M46.8625 22.0147C47.9256 20.949 48.6499 19.5909 48.9437 18.1122C49.2375 16.6334 49.0876 15.1004 48.5129 13.7072C47.9382 12.3139 46.9645 11.123 45.7152 10.2851C44.4658 9.44724 42.9968 9 41.4941 9C39.9913 9 38.5223 9.44724 37.2729 10.2851C36.0236 11.123 35.0499 12.3139 34.4752 13.7072C33.9005 15.1004 33.7506 16.6334 34.0444 18.1122C34.3382 19.5909 35.0625 20.949 36.1256 22.0147C34.1287 23.293 32.68 25.2742 32.064 27.5693C31.9344 28.0576 32.0033 28.5776 32.2557 29.0149C32.5081 29.4522 32.9233 29.771 33.41 29.9012C33.5696 29.9434 33.7339 29.9651 33.899 29.9655C34.3178 29.9653 34.7248 29.8263 35.0567 29.57C35.3885 29.3136 35.6266 28.9544 35.734 28.5482C36.4058 26.0163 38.7748 24.2489 41.4952 24.2489C44.2156 24.2489 46.5847 26.0163 47.2565 28.5482C47.3166 28.7943 47.4251 29.0259 47.5754 29.2294C47.7258 29.4329 47.9151 29.6043 48.1323 29.7335C48.3495 29.8627 48.5901 29.9472 48.8402 29.982C49.0903 30.0167 49.3448 30.0011 49.5889 29.936C49.8329 29.8709 50.0615 29.7577 50.2614 29.6029C50.4612 29.4481 50.6283 29.2548 50.7529 29.0344C50.8774 28.8141 50.9569 28.571 50.9867 28.3194C51.0165 28.0678 50.996 27.8128 50.9264 27.5693C50.3099 25.2738 48.8603 23.2926 46.8625 22.0147ZM41.4952 12.8158C42.2464 12.8158 42.9808 13.0393 43.6054 13.458C44.23 13.8768 44.7168 14.472 45.0042 15.1684C45.2917 15.8648 45.3669 16.631 45.2204 17.3703C45.0738 18.1096 44.7121 18.7886 44.1809 19.3216C43.6497 19.8546 42.973 20.2176 42.2362 20.3646C41.4995 20.5117 40.7358 20.4362 40.0418 20.1478C39.3477 19.8593 38.7546 19.3708 38.3372 18.7441C37.9199 18.1174 37.6971 17.3806 37.6971 16.6268C37.6971 15.6161 38.0973 14.6467 38.8096 13.932C39.5218 13.2173 40.4879 12.8158 41.4952 12.8158Z" fill="#FF233B"/>
</g>
<defs>
<clipPath id="clip0_514_419">
<rect width="60.17" height="60.17" fill="white" transform="translate(0.200195)"/>
</clipPath>
</defs>
</svg>
