<svg width="58" height="49" viewBox="0 0 58 49" fill="none" xmlns="http://www.w3.org/2000/svg">
<g clip-path="url(#clip0_515_396)">
<path d="M28.91 27.0801C24.92 27.0801 21.68 30.3201 21.68 34.3001C21.68 38.2801 24.92 41.5301 28.91 41.5301C32.9 41.5301 36.14 38.2901 36.14 34.3001C36.14 30.3101 32.89 27.0801 28.91 27.0801ZM28.91 27.0801C24.92 27.0801 21.68 30.3201 21.68 34.3001C21.68 38.2801 24.92 41.5301 28.91 41.5301C32.9 41.5301 36.14 38.2901 36.14 34.3001C36.14 30.3101 32.89 27.0801 28.91 27.0801ZM52.4 19.8501H25.74L19.42 25.2701H46.13C46.54 28.4401 49.12 31.1301 52.4 31.5401V37.0701C49.12 37.4801 46.54 40.0601 46.13 43.3401H11.69C11.29 40.1301 8.8 37.5901 5.63 37.1001L0.03 38.4701L0 43.3401C0 46.3301 2.42 48.7601 5.42 48.7601H52.4C55.39 48.7601 57.82 46.3301 57.82 43.3401V25.2701C57.82 22.2801 55.39 19.8501 52.4 19.8501ZM36.14 34.3001C36.14 30.3201 32.89 27.0801 28.91 27.0801C24.93 27.0801 21.68 30.3201 21.68 34.3001C21.68 38.2801 24.92 41.5301 28.91 41.5301C32.9 41.5301 36.14 38.2901 36.14 34.3001Z" fill="#FF233B"/>
<path d="M26.5099 6.29988C25.0099 6.29988 23.7999 5.08988 23.7999 3.58988C23.7999 2.08988 25.0099 0.879883 26.5099 0.879883H38.7699C40.2699 0.879883 41.4799 2.08988 41.4799 3.58988V14.8499C41.4799 16.3499 40.2699 17.5599 38.7699 17.5599C37.2699 17.5599 36.0599 16.3499 36.0599 14.8499V10.1299L4.52994 40.6599C3.56994 41.8099 1.84994 41.8099 0.789941 40.6599C-0.260059 39.6999 -0.260059 37.9799 0.789941 36.9199L32.2399 6.29988H26.5199H26.5099Z" fill="#FF233B"/>
</g>
<defs>
<clipPath id="clip0_515_396">
<rect width="57.82" height="47.88" fill="white" transform="translate(0 0.879883)"/>
</clipPath>
</defs>
</svg>
