<svg width="58" height="48" viewBox="0 0 58 48" fill="none" xmlns="http://www.w3.org/2000/svg">
<g clip-path="url(#clip0_515_363)">
<path d="M28.91 26.2002C24.92 26.2002 21.68 29.4402 21.68 33.4202C21.68 37.4002 24.92 40.6502 28.91 40.6502C32.9 40.6502 36.14 37.4102 36.14 33.4202C36.14 29.4302 32.89 26.2002 28.91 26.2002ZM28.91 26.2002C24.92 26.2002 21.68 29.4402 21.68 33.4202C21.68 37.4002 24.92 40.6502 28.91 40.6502C32.9 40.6502 36.14 37.4102 36.14 33.4202C36.14 29.4302 32.89 26.2002 28.91 26.2002ZM52.4 18.9702H25.74L19.42 24.3902H46.13C46.54 27.5602 49.12 30.2502 52.4 30.6602V36.1902C49.12 36.6002 46.54 39.1802 46.13 42.4602H11.69C11.29 39.2502 8.8 36.7102 5.63 36.2202L0.03 37.5902L0 42.4602C0 45.4502 2.42 47.8802 5.42 47.8802H52.4C55.39 47.8802 57.82 45.4502 57.82 42.4602V24.3902C57.82 21.4002 55.39 18.9702 52.4 18.9702ZM36.14 33.4202C36.14 29.4402 32.89 26.2002 28.91 26.2002C24.93 26.2002 21.68 29.4402 21.68 33.4202C21.68 37.4002 24.92 40.6502 28.91 40.6502C32.9 40.6502 36.14 37.4102 36.14 33.4202Z" fill="#B2BDD4"/>
<path d="M26.5099 5.42C25.0099 5.42 23.7999 4.21 23.7999 2.71C23.7999 1.21 25.0099 0 26.5099 0H38.7699C40.2699 0 41.4799 1.21 41.4799 2.71V13.97C41.4799 15.47 40.2699 16.68 38.7699 16.68C37.2699 16.68 36.0599 15.47 36.0599 13.97V9.25L4.52994 39.78C3.56994 40.93 1.84994 40.93 0.789941 39.78C-0.260059 38.82 -0.260059 37.1 0.789941 36.04L32.2399 5.42H26.5199H26.5099Z" fill="#B2BDD4"/>
</g>
<defs>
<clipPath id="clip0_515_363">
<rect width="57.82" height="47.88" fill="white"/>
</clipPath>
</defs>
</svg>
