<svg width="93" height="15" viewBox="0 0 93 15" fill="none" xmlns="http://www.w3.org/2000/svg">
<path d="M2.0378 10.0306V4.64013H5.13019L6.22604 3.13171H2.0378V0H0.333984V10.2068C0.333984 10.2068 0.424034 14.5406 6.08343 14.5406L5.22026 13.0245C5.22026 13.0245 2.03029 13.1317 2.03029 10.0306H2.0378Z" fill="#7C92AC"/>
<path d="M11.3306 2.84082C5.55866 2.84082 5.79133 8.3079 5.79133 8.72904C5.79133 9.15017 5.93393 14.5407 11.1505 14.5407C11.1505 14.5407 13.8601 14.6938 15.5714 13.1777L14.7533 12.1134C14.7533 12.1134 13.057 13.2849 11.1505 13.0782C9.2365 12.8715 7.55521 11.4932 7.60775 9.53302H16.3145L16.4946 8.59887C16.4946 8.59887 17.1101 2.84082 11.3381 2.84082H11.3306ZM14.8058 8.23133H7.50266V7.26655C7.50266 7.26655 7.65277 4.21908 11.203 4.21908C14.7533 4.21908 14.9034 7.26655 14.9034 7.26655L14.7983 8.23133H14.8058Z" fill="#7C92AC"/>
<path d="M19.4439 2.84063L17.8076 4.21889V14.5405H19.4439V6.38581C19.4439 6.38581 20.2095 4.35671 23.8573 4.35671V2.84829C23.8573 2.84829 21.538 2.43481 19.4139 4.56345L19.4364 2.84829L19.4439 2.84063Z" fill="#7C92AC"/>
<path d="M32.1888 4.21129C30.8978 3.09337 29.5768 2.81006 28.2182 2.81006H25.4561V4.35677H28.6385C28.6385 4.35677 29.922 4.34145 30.8002 4.98464C31.4832 5.48234 31.7384 6.10256 31.7384 6.87591V7.90195C31.168 7.56504 30.0196 7.09797 28.0005 7.09797C24.8556 7.09797 23.6396 9.08878 23.6396 11.003C23.6396 12.9173 24.9532 14.5406 28.0381 14.5406C29.8394 14.5406 31.0479 13.8514 31.7384 13.2848V14.5406H33.4197V7.40425C33.4197 7.40425 33.4873 5.32921 32.1963 4.21129H32.1888ZM28.0456 13.2312C25.0733 13.2312 25.1783 11.0107 25.1783 10.4824C25.1783 9.95402 25.5461 8.4456 28.2858 8.40731C29.9971 8.38434 31.1305 8.85142 31.7384 9.20364V11.7917C31.0329 12.4425 29.8094 13.2389 28.0456 13.2389V13.2312Z" fill="#7C92AC"/>
<path d="M44.8138 4.95398L44.2808 3.65995C44.2808 3.65995 41.7814 2.25107 38.7491 3.3843C35.7167 4.52519 36.5649 7.3889 37.8108 8.07037C39.0568 8.75184 41.0909 8.88967 42.3594 9.18829C43.6278 9.48691 44.4535 10.735 43.7629 12.1209C43.0724 13.5068 41.3761 13.4149 39.6798 13.2235C37.9834 13.0321 36.6699 11.9142 36.6699 11.9142V12.8024C36.6699 12.8024 37.8334 14.3032 40.7381 14.3032C43.6429 14.3032 45.2341 12.7105 45.2341 11.1178C45.2341 9.5252 44.1157 8.5451 41.5337 8.16225C38.9442 7.77175 37.8783 7.31999 37.8783 5.81922C37.8783 4.31845 41.0233 2.7258 44.8138 4.95398Z" fill="#7C92AC"/>
<path d="M45.9844 3.17725L49.8799 14.0961H51.0658L47.2153 3.17725H45.9844Z" fill="#7C92AC"/>
<path d="M50.8193 11.6615L51.4123 13.3231L53.9042 5.89582L53.2587 4.01221L50.8193 11.6615Z" fill="#7C92AC"/>
<path d="M53.498 3.17725L57.1459 14.0961H58.3318L54.729 3.17725H53.498Z" fill="#7C92AC"/>
<path d="M58.1211 11.7071L58.639 13.3227L62.3094 3.17725H61.1009L58.1211 11.7071Z" fill="#7C92AC"/>
<path d="M65.1695 3.17725H64.0361V14.0961H65.1695V3.17725Z" fill="#7C92AC"/>
<path d="M71.9574 13.3234C71.9574 13.3234 70.231 13.0248 69.4429 12.037C68.6548 11.0569 68.6999 9.82417 68.6999 7.61131C68.6999 6.77669 68.6998 5.49032 68.7073 4.21161H71.3419L71.9349 3.17791C71.9349 3.17791 69.6456 3.14729 68.7148 3.1626C68.7148 1.48572 68.7299 0.0615234 68.7299 0.0615234L67.5439 1.19476V10.1228C67.5439 10.1228 67.4239 12.2132 69.0751 13.2162C70.7264 14.2193 72.5053 14.0968 72.5053 14.0968L71.9649 13.3158L71.9574 13.3234Z" fill="#7C92AC"/>
<path d="M81.2342 4.86237V3.70617C81.2342 3.70617 80.281 2.7031 77.609 2.92516C74.9294 3.15487 72.7227 5.51322 72.7227 8.43818C72.7227 11.3632 74.4265 14.2345 77.4363 14.3723C80.5137 14.5178 81.2342 13.4688 81.2342 13.4688C81.2342 13.4688 81.2868 12.3356 81.2342 12.3892C81.1817 12.4428 80.1084 13.7981 77.4138 13.3463C74.7943 12.9022 73.9386 10.7046 73.9386 8.26207C73.9386 5.8195 75.815 4.37233 77.5414 4.02776C79.673 3.59897 81.0616 4.44124 81.2342 4.87003V4.86237Z" fill="#7C92AC"/>
<path d="M91.244 3.97424C90.0055 2.94055 87.5436 3.2162 86.3427 3.97424C85.6071 4.44132 84.9241 4.96199 84.4963 5.30656V0.0615234L83.4004 0.873163V14.1044H84.4963V6.24836C85.2393 5.55924 86.8606 4.29583 88.7596 4.29583C91.3641 4.29583 91.7994 7.08297 91.7994 7.08297V14.1044H93.0003V7.90227C93.0003 6.00334 92.4824 5.00793 91.244 3.97424Z" fill="#7C92AC"/>
</svg>
