<svg width="610" height="311" viewBox="0 0 610 311" fill="none" xmlns="http://www.w3.org/2000/svg">
<g clip-path="url(#clip0_82_3602)">
<path d="M156.975 209.539L145.697 220.819C143.501 223.016 143.501 226.577 145.697 228.774L156.975 240.053C159.172 242.25 162.733 242.25 164.93 240.053L176.208 228.774C178.404 226.577 178.404 223.016 176.208 220.819L164.93 209.539C162.733 207.343 159.172 207.343 156.975 209.539Z" fill="#466883"/>
<path d="M166.571 214.106H155.331C152.533 214.106 150.257 216.373 150.257 219.18V230.421C150.257 233.22 152.523 235.496 155.331 235.496H166.571C169.369 235.496 171.645 233.229 171.645 230.421V219.18C171.645 216.382 169.378 214.106 166.571 214.106ZM170.096 226.373L162.522 233.947C161.655 234.815 160.246 234.815 159.379 233.947L151.805 226.373C150.938 225.505 150.938 224.096 151.805 223.229L159.379 215.654C160.246 214.787 161.655 214.787 162.522 215.654L170.096 223.229C170.964 224.096 170.964 225.505 170.096 226.373Z" fill="white"/>
<path d="M156.974 140.238L145.696 151.517C143.5 153.714 143.5 157.276 145.696 159.472L156.974 170.752C159.171 172.948 162.732 172.948 164.929 170.752L176.207 159.472C178.404 157.276 178.404 153.714 176.207 151.517L164.929 140.238C162.732 138.041 159.171 138.041 156.974 140.238Z" fill="#466883"/>
<path d="M166.571 144.805H155.331C152.533 144.805 150.257 147.072 150.257 149.88V161.12C150.257 163.919 152.523 166.195 155.331 166.195H166.571C169.369 166.195 171.645 163.928 171.645 161.12V149.88C171.645 147.081 169.378 144.805 166.571 144.805ZM170.096 157.072L162.522 164.647C161.655 165.514 160.246 165.514 159.379 164.647L151.805 157.072C150.938 156.204 150.938 154.796 151.805 153.928L159.379 146.354C160.246 145.486 161.655 145.486 162.522 146.354L170.096 153.928C170.964 154.796 170.964 156.204 170.096 157.072Z" fill="white"/>
<path d="M156.976 278.841L145.698 290.121C143.501 292.317 143.501 295.879 145.698 298.076L156.976 309.355C159.173 311.552 162.734 311.552 164.93 309.355L176.209 298.076C178.405 295.879 178.405 292.317 176.209 290.121L164.93 278.841C162.734 276.644 159.173 276.644 156.976 278.841Z" fill="#466883"/>
<path d="M166.571 283.397H155.331C152.533 283.397 150.257 285.664 150.257 288.472V299.713C150.257 302.511 152.523 304.787 155.331 304.787H166.571C169.369 304.787 171.645 302.52 171.645 299.713V288.472C171.645 285.673 169.378 283.397 166.571 283.397ZM170.096 295.664L162.522 303.239C161.655 304.106 160.246 304.106 159.379 303.239L151.805 295.664C150.938 294.797 150.938 293.388 151.805 292.52L159.379 284.946C160.246 284.078 161.655 284.078 162.522 284.946L170.096 292.52C170.964 293.388 170.964 294.797 170.096 295.664Z" fill="white"/>
<path d="M228.998 209.543L217.72 220.823C215.523 223.02 215.523 226.581 217.72 228.778L228.998 240.057C231.195 242.254 234.756 242.254 236.953 240.057L248.231 228.778C250.427 226.581 250.427 223.02 248.231 220.823L236.953 209.543C234.756 207.347 231.195 207.347 228.998 209.543Z" fill="#466883"/>
<path d="M238.597 214.106H227.358C224.56 214.106 222.284 216.373 222.284 219.18V230.421C222.284 233.22 224.55 235.496 227.358 235.496H238.597C241.396 235.496 243.672 233.229 243.672 230.421V219.18C243.672 216.382 241.405 214.106 238.597 214.106ZM242.123 226.373L234.549 233.947C233.682 234.815 232.273 234.815 231.406 233.947L223.832 226.373C222.965 225.505 222.965 224.096 223.832 223.229L231.406 215.654C232.273 214.787 233.682 214.787 234.549 215.654L242.123 223.229C242.991 224.096 242.991 225.505 242.123 226.373Z" fill="white"/>
<path d="M228.997 140.242L217.719 151.521C215.523 153.718 215.523 157.279 217.719 159.476L228.997 170.756C231.194 172.952 234.755 172.952 236.952 170.756L248.23 159.476C250.427 157.279 250.427 153.718 248.23 151.521L236.952 140.242C234.755 138.045 231.194 138.045 228.997 140.242Z" fill="#466883"/>
<path d="M238.597 144.805H227.358C224.56 144.805 222.284 147.072 222.284 149.88V161.12C222.284 163.919 224.55 166.195 227.358 166.195H238.597C241.396 166.195 243.672 163.928 243.672 161.12V149.88C243.672 147.081 241.405 144.805 238.597 144.805ZM242.123 157.072L234.549 164.647C233.682 165.514 232.273 165.514 231.406 164.647L223.832 157.072C222.965 156.204 222.965 154.796 223.832 153.928L231.406 146.354C232.273 145.486 233.682 145.486 234.549 146.354L242.123 153.928C242.991 154.796 242.991 156.204 242.123 157.072Z" fill="white"/>
<path d="M228.999 278.845L217.721 290.125C215.524 292.321 215.524 295.883 217.721 298.08L228.999 309.359C231.196 311.556 234.757 311.556 236.953 309.359L248.232 298.08C250.428 295.883 250.428 292.321 248.232 290.125L236.953 278.845C234.757 276.648 231.196 276.648 228.999 278.845Z" fill="#466883"/>
<path d="M238.597 283.397H227.358C224.56 283.397 222.284 285.664 222.284 288.472V299.713C222.284 302.511 224.55 304.787 227.358 304.787H238.597C241.396 304.787 243.672 302.52 243.672 299.713V288.472C243.672 285.673 241.405 283.397 238.597 283.397ZM242.123 295.664L234.549 303.239C233.682 304.106 232.273 304.106 231.406 303.239L223.832 295.664C222.965 294.797 222.965 293.388 223.832 292.52L231.406 284.946C232.273 284.078 233.682 284.078 234.549 284.946L242.123 292.52C242.991 293.388 242.991 294.797 242.123 295.664Z" fill="white"/>
<path d="M156.98 70.9426L145.702 82.2221C143.505 84.4188 143.505 87.9804 145.702 90.1771L156.98 101.457C159.177 103.653 162.738 103.653 164.934 101.457L176.213 90.1771C178.409 87.9804 178.409 84.4188 176.213 82.2221L164.934 70.9426C162.738 68.7459 159.177 68.7459 156.98 70.9426Z" fill="#466883"/>
<path d="M166.571 75.5135H155.331C152.533 75.5135 150.257 77.7804 150.257 80.5882V91.829C150.257 94.6275 152.523 96.9036 155.331 96.9036H166.571C169.369 96.9036 171.645 94.6368 171.645 91.829V80.5882C171.645 77.7897 169.378 75.5135 166.571 75.5135ZM170.096 87.7804L162.522 95.3551C161.655 96.2226 160.246 96.2226 159.379 95.3551L151.805 87.7804C150.938 86.9129 150.938 85.5043 151.805 84.6367L159.379 77.0621C160.246 76.1945 161.655 76.1945 162.522 77.0621L170.096 84.6367C170.964 85.5043 170.964 86.9129 170.096 87.7804Z" fill="white"/>
<path d="M228.994 70.9466L217.716 82.2261C215.519 84.4228 215.519 87.9844 217.716 90.1811L228.994 101.461C231.19 103.657 234.752 103.657 236.948 101.461L248.226 90.1811C250.423 87.9844 250.423 84.4228 248.226 82.2261L236.948 70.9466C234.752 68.7499 231.19 68.7499 228.994 70.9466Z" fill="#466883"/>
<path d="M238.597 75.5135H227.358C224.56 75.5135 222.284 77.7804 222.284 80.5882V91.829C222.284 94.6275 224.55 96.9036 227.358 96.9036H238.597C241.396 96.9036 243.672 94.6368 243.672 91.829V80.5882C243.672 77.7897 241.405 75.5135 238.597 75.5135ZM242.123 87.7804L234.549 95.3551C233.682 96.2226 232.273 96.2226 231.406 95.3551L223.832 87.7804C222.965 86.9129 222.965 85.5043 223.832 84.6367L231.406 77.0621C232.273 76.1945 233.682 76.1945 234.549 77.0621L242.123 84.6367C242.991 85.5043 242.991 86.9129 242.123 87.7804Z" fill="white"/>
<path d="M156.97 1.64097L145.692 12.9205C143.495 15.1172 143.495 18.6787 145.692 20.8754L156.97 32.1549C159.166 34.3516 162.728 34.3516 164.924 32.1549L176.203 20.8754C178.399 18.6787 178.399 15.1172 176.203 12.9204L164.924 1.64097C162.728 -0.555739 159.166 -0.555741 156.97 1.64097Z" fill="#466883"/>
<path d="M166.571 6.21277H155.331C152.533 6.21277 150.257 8.47957 150.257 11.2874V22.5282C150.257 25.3267 152.523 27.6028 155.331 27.6028H166.571C169.369 27.6028 171.645 25.336 171.645 22.5282V11.2874C171.645 8.4889 169.378 6.21277 166.571 6.21277ZM170.096 18.4796L162.522 26.0543C161.655 26.9218 160.246 26.9218 159.379 26.0543L151.805 18.4796C150.938 17.6121 150.938 16.2035 151.805 15.336L159.379 7.76129C160.246 6.89374 161.655 6.89374 162.522 7.76129L170.096 15.336C170.964 16.2035 170.964 17.6121 170.096 18.4796Z" fill="white"/>
<path d="M228.993 1.645L217.715 12.9245C215.518 15.1212 215.518 18.6828 217.715 20.8795L228.993 32.159C231.189 34.3557 234.751 34.3557 236.947 32.159L248.226 20.8795C250.422 18.6828 250.422 15.1212 248.226 12.9245L236.947 1.645C234.751 -0.551711 231.189 -0.551713 228.993 1.645Z" fill="#466883"/>
<path d="M238.597 6.21277H227.358C224.56 6.21277 222.284 8.47957 222.284 11.2874V22.5282C222.284 25.3267 224.55 27.6028 227.358 27.6028H238.597C241.396 27.6028 243.672 25.336 243.672 22.5282V11.2874C243.672 8.4889 241.405 6.21277 238.597 6.21277ZM242.123 18.4796L234.549 26.0543C233.682 26.9218 232.273 26.9218 231.406 26.0543L223.832 18.4796C222.965 17.6121 222.965 16.2035 223.832 15.336L231.406 7.76129C232.273 6.89374 233.682 6.89374 234.549 7.76129L242.123 15.336C242.991 16.2035 242.991 17.6121 242.123 18.4796Z" fill="white"/>
<path d="M301.029 278.842L289.75 290.122C287.554 292.319 287.554 295.88 289.75 298.077L301.029 309.356C303.225 311.553 306.787 311.553 308.983 309.356L320.261 298.077C322.458 295.88 322.458 292.319 320.261 290.122L308.983 278.842C306.787 276.646 303.225 276.646 301.029 278.842Z" fill="#466883"/>
<path d="M299.375 304.787H310.615C313.413 304.787 315.689 302.52 315.689 299.713V288.472C315.689 285.673 313.423 283.397 310.615 283.397H299.375C296.577 283.397 294.301 285.664 294.301 288.472V299.713C294.301 302.511 296.568 304.787 299.375 304.787ZM295.85 292.52L303.424 284.946C304.291 284.078 305.7 284.078 306.567 284.946L314.141 292.52C315.008 293.388 315.008 294.797 314.141 295.664L306.567 303.239C305.7 304.106 304.291 304.106 303.424 303.239L295.85 295.664C294.982 294.797 294.982 293.388 295.85 292.52Z" fill="white"/>
<path d="M301.019 209.541L289.74 220.82C287.544 223.017 287.544 226.579 289.74 228.775L301.019 240.055C303.215 242.252 306.776 242.252 308.973 240.055L320.251 228.775C322.448 226.579 322.448 223.017 320.251 220.82L308.973 209.541C306.776 207.344 303.215 207.344 301.019 209.541Z" fill="#466883"/>
<path d="M299.375 235.496H310.615C313.413 235.496 315.689 233.229 315.689 230.421V219.18C315.689 216.382 313.423 214.106 310.615 214.106H299.375C296.577 214.106 294.301 216.373 294.301 219.18V230.421C294.301 233.22 296.568 235.496 299.375 235.496ZM295.85 223.229L303.424 215.654C304.291 214.787 305.7 214.787 306.567 215.654L314.141 223.229C315.008 224.096 315.008 225.505 314.141 226.373L306.567 233.947C305.7 234.815 304.291 234.815 303.424 233.947L295.85 226.373C294.982 225.505 294.982 224.096 295.85 223.229Z" fill="white"/>
<path d="M301.018 140.239L289.739 151.519C287.543 153.715 287.543 157.277 289.739 159.474L301.018 170.753C303.214 172.95 306.775 172.95 308.972 170.753L320.25 159.474C322.447 157.277 322.447 153.715 320.25 151.519L308.972 140.239C306.775 138.042 303.214 138.042 301.018 140.239Z" fill="#466883"/>
<path d="M299.375 166.195H310.615C313.413 166.195 315.689 163.928 315.689 161.12V149.88C315.689 147.081 313.423 144.805 310.615 144.805H299.375C296.577 144.805 294.301 147.072 294.301 149.88V161.12C294.301 163.919 296.568 166.195 299.375 166.195ZM295.85 153.928L303.424 146.354C304.291 145.486 305.7 145.486 306.567 146.354L314.141 153.928C315.008 154.796 315.008 156.204 314.141 157.072L306.567 164.647C305.7 165.514 304.291 165.514 303.424 164.647L295.85 157.072C294.982 156.204 294.982 154.796 295.85 153.928Z" fill="white"/>
<path d="M301.023 70.9441L289.745 82.2236C287.549 84.4203 287.549 87.9818 289.745 90.1785L301.023 101.458C303.22 103.655 306.781 103.655 308.978 101.458L320.256 90.1785C322.453 87.9818 322.453 84.4203 320.256 82.2235L308.978 70.9441C306.781 68.7474 303.22 68.7474 301.023 70.9441Z" fill="#466883"/>
<path d="M299.375 96.8943H310.615C313.413 96.8943 315.689 94.6275 315.689 91.8197V80.5789C315.689 77.7804 313.423 75.5043 310.615 75.5043H299.375C296.577 75.5043 294.301 77.7711 294.301 80.5789V91.8197C294.301 94.6182 296.568 96.8943 299.375 96.8943ZM295.85 84.6275L303.424 77.0528C304.291 76.1852 305.7 76.1852 306.567 77.0528L314.141 84.6275C315.008 85.495 315.008 86.9036 314.141 87.7711L306.567 95.3458C305.7 96.2133 304.291 96.2133 303.424 95.3458L295.85 87.7711C294.982 86.9036 294.982 85.495 295.85 84.6275Z" fill="white"/>
<path d="M301.023 1.65171L289.744 12.9312C287.548 15.1279 287.548 18.6895 289.744 20.8862L301.023 32.1657C303.219 34.3624 306.78 34.3624 308.977 32.1657L320.255 20.8862C322.452 18.6895 322.452 15.1279 320.255 12.9312L308.977 1.65172C306.78 -0.544997 303.219 -0.544999 301.023 1.65171Z" fill="#466883"/>
<path d="M299.375 27.6028H310.615C313.413 27.6028 315.689 25.336 315.689 22.5282V11.2874C315.689 8.4889 313.423 6.21277 310.615 6.21277H299.375C296.577 6.21277 294.301 8.47957 294.301 11.2874V22.5282C294.301 25.3267 296.568 27.6028 299.375 27.6028ZM295.85 15.336L303.424 7.76129C304.291 6.89374 305.7 6.89374 306.567 7.76129L314.141 15.336C315.008 16.2035 315.008 17.6121 314.141 18.4796L306.567 26.0543C305.7 26.9218 304.291 26.9218 303.424 26.0543L295.85 18.4796C294.982 17.6121 294.982 16.2035 295.85 15.336Z" fill="white"/>
<path d="M12.9256 209.545L1.64722 220.824C-0.549282 223.021 -0.549282 226.582 1.64722 228.779L12.9256 240.058C15.1221 242.255 18.6833 242.255 20.8798 240.058L32.1582 228.779C34.3547 226.582 34.3547 223.021 32.1582 220.824L20.8798 209.545C18.6833 207.348 15.1221 207.348 12.9256 209.545Z" fill="#466883"/>
<path d="M22.5259 214.106H11.2863C8.48801 214.106 6.2121 216.373 6.2121 219.18V230.421C6.2121 233.22 8.47868 235.496 11.2863 235.496H22.5259C25.3242 235.496 27.6001 233.229 27.6001 230.421V219.18C27.6001 216.382 25.3335 214.106 22.5259 214.106ZM26.0517 226.373L18.4778 233.947C17.6103 234.815 16.2019 234.815 15.3344 233.947L7.76046 226.373C6.893 225.505 6.893 224.096 7.76046 223.229L15.3344 215.654C16.2019 214.787 17.6103 214.787 18.4778 215.654L26.0517 223.229C26.9192 224.096 26.9192 225.505 26.0517 226.373Z" fill="white"/>
<path d="M12.9247 140.243L1.6463 151.522C-0.550197 153.719 -0.550198 157.281 1.6463 159.477L12.9247 170.757C15.1212 172.954 18.6824 172.954 20.8789 170.757L32.1573 159.477C34.3538 157.281 34.3538 153.719 32.1573 151.522L20.8789 140.243C18.6824 138.046 15.1212 138.046 12.9247 140.243Z" fill="#466883"/>
<path d="M22.5259 144.805H11.2863C8.48801 144.805 6.2121 147.072 6.2121 149.88V161.12C6.2121 163.919 8.47868 166.195 11.2863 166.195H22.5259C25.3242 166.195 27.6001 163.928 27.6001 161.12V149.88C27.6001 147.081 25.3335 144.805 22.5259 144.805ZM26.0517 157.072L18.4778 164.646C17.6103 165.514 16.2019 165.514 15.3344 164.646L7.76046 157.072C6.893 156.204 6.893 154.796 7.76046 153.928L15.3344 146.353C16.2019 145.486 17.6103 145.486 18.4778 146.353L26.0517 153.928C26.9192 154.796 26.9192 156.204 26.0517 157.072Z" fill="white"/>
<path d="M12.9265 278.846L1.64813 290.126C-0.548366 292.322 -0.548367 295.884 1.64813 298.081L12.9265 309.36C15.123 311.557 18.6842 311.557 20.8807 309.36L32.1591 298.081C34.3556 295.884 34.3556 292.322 32.1591 290.126L20.8807 278.846C18.6842 276.65 15.123 276.65 12.9265 278.846Z" fill="#466883"/>
<path d="M22.5259 283.397H11.2863C8.48801 283.397 6.2121 285.664 6.2121 288.472V299.713C6.2121 302.511 8.47868 304.787 11.2863 304.787H22.5259C25.3242 304.787 27.6001 302.52 27.6001 299.713V288.472C27.6001 285.673 25.3335 283.397 22.5259 283.397ZM26.0517 295.664L18.4778 303.239C17.6103 304.106 16.2019 304.106 15.3344 303.239L7.76046 295.664C6.893 294.797 6.893 293.388 7.76046 292.52L15.3344 284.946C16.2019 284.078 17.6103 284.078 18.4778 284.946L26.0517 292.52C26.9192 293.388 26.9192 294.797 26.0517 295.664Z" fill="white"/>
<path d="M84.9551 209.542L73.6768 220.821C71.4803 223.018 71.4803 226.58 73.6768 228.776L84.9551 240.056C87.1516 242.253 90.7129 242.253 92.9094 240.056L104.188 228.776C106.384 226.58 106.384 223.018 104.188 220.821L92.9094 209.542C90.7129 207.345 87.1516 207.345 84.9551 209.542Z" fill="#466883"/>
<path d="M94.5529 214.106H83.3132C80.515 214.106 78.2391 216.373 78.2391 219.18V230.421C78.2391 233.22 80.5057 235.496 83.3132 235.496H94.5529C97.3511 235.496 99.627 233.229 99.627 230.421V219.18C99.627 216.382 97.3605 214.106 94.5529 214.106ZM98.0787 226.373L90.5047 233.947C89.6373 234.815 88.2288 234.815 87.3614 233.947L79.7874 226.373C78.92 225.505 78.92 224.096 79.7874 223.229L87.3614 215.654C88.2288 214.787 89.6373 214.787 90.5047 215.654L98.0787 223.229C98.9461 224.096 98.9461 225.505 98.0787 226.373Z" fill="white"/>
<path d="M84.9449 140.24L73.6666 151.52C71.4701 153.717 71.4701 157.278 73.6666 159.475L84.9449 170.754C87.1414 172.951 90.7027 172.951 92.8992 170.754L104.178 159.475C106.374 157.278 106.374 153.717 104.178 151.52L92.8992 140.24C90.7027 138.044 87.1414 138.044 84.9449 140.24Z" fill="#466883"/>
<path d="M94.5529 144.805H83.3132C80.515 144.805 78.2391 147.072 78.2391 149.88V161.12C78.2391 163.919 80.5057 166.195 83.3132 166.195H94.5529C97.3511 166.195 99.627 163.928 99.627 161.12V149.88C99.627 147.081 97.3605 144.805 94.5529 144.805ZM98.0787 157.072L90.5047 164.646C89.6373 165.514 88.2288 165.514 87.3614 164.646L79.7874 157.072C78.92 156.204 78.92 154.796 79.7874 153.928L87.3614 146.353C88.2288 145.486 89.6373 145.486 90.5047 146.353L98.0787 153.928C98.9461 154.796 98.9461 156.204 98.0787 157.072Z" fill="white"/>
<path d="M84.956 278.844L73.6777 290.123C71.4812 292.32 71.4812 295.881 73.6777 298.078L84.956 309.358C87.1525 311.554 90.7138 311.554 92.9103 309.358L104.189 298.078C106.385 295.881 106.385 292.32 104.189 290.123L92.9103 278.844C90.7138 276.647 87.1525 276.647 84.956 278.844Z" fill="#466883"/>
<path d="M94.5529 283.397H83.3132C80.515 283.397 78.2391 285.664 78.2391 288.472V299.713C78.2391 302.511 80.5057 304.787 83.3132 304.787H94.5529C97.3511 304.787 99.627 302.52 99.627 299.713V288.472C99.627 285.673 97.3605 283.397 94.5529 283.397ZM98.0787 295.664L90.5047 303.239C89.6373 304.106 88.2288 304.106 87.3614 303.239L79.7874 295.664C78.92 294.797 78.92 293.388 79.7874 292.52L87.3614 284.946C88.2288 284.078 89.6373 284.078 90.5047 284.946L98.0787 292.52C98.9461 293.388 98.9461 294.797 98.0787 295.664Z" fill="white"/>
<path d="M12.9211 70.9479L1.6427 82.2273C-0.553798 84.424 -0.553799 87.9856 1.6427 90.1823L12.9211 101.462C15.1176 103.659 18.6788 103.659 20.8753 101.462L32.1537 90.1823C34.3502 87.9856 34.3502 84.424 32.1537 82.2273L20.8753 70.9479C18.6788 68.7511 15.1176 68.7511 12.9211 70.9479Z" fill="#466883"/>
<path d="M22.5259 75.5135H11.2863C8.48801 75.5135 6.2121 77.7804 6.2121 80.5882V91.829C6.2121 94.6275 8.47868 96.9036 11.2863 96.9036H22.5259C25.3242 96.9036 27.6001 94.6368 27.6001 91.829V80.5882C27.6001 77.7897 25.3335 75.5135 22.5259 75.5135ZM26.0517 87.7804L18.4778 95.3551C17.6103 96.2226 16.2019 96.2226 15.3344 95.3551L7.76046 87.7804C6.893 86.9129 6.893 85.5043 7.76046 84.6367L15.3344 77.0621C16.2019 76.1945 17.6103 76.1945 18.4778 77.0621L26.0517 84.6367C26.9192 85.5043 26.9192 86.9129 26.0517 87.7804Z" fill="white"/>
<path d="M84.9506 70.9452L73.6722 82.2246C71.4757 84.4214 71.4757 87.9829 73.6722 90.1796L84.9506 101.459C87.1471 103.656 90.7083 103.656 92.9048 101.459L104.183 90.1796C106.38 87.9829 106.38 84.4214 104.183 82.2246L92.9048 70.9452C90.7083 68.7485 87.1471 68.7485 84.9506 70.9452Z" fill="#466883"/>
<path d="M94.5529 75.5135H83.3132C80.515 75.5135 78.2391 77.7804 78.2391 80.5882V91.829C78.2391 94.6275 80.5057 96.9036 83.3132 96.9036H94.5529C97.3511 96.9036 99.627 94.6368 99.627 91.829V80.5882C99.627 77.7897 97.3605 75.5135 94.5529 75.5135ZM98.0787 87.7804L90.5047 95.3551C89.6373 96.2226 88.2288 96.2226 87.3614 95.3551L79.7874 87.7804C78.92 86.9129 78.92 85.5043 79.7874 84.6367L87.3614 77.0621C88.2288 76.1945 89.6373 76.1945 90.5047 77.0621L98.0787 84.6367C98.9461 85.5043 98.9461 86.9129 98.0787 87.7804Z" fill="white"/>
<path d="M12.9202 1.6461L1.64178 12.9256C-0.554714 15.1223 -0.554714 18.6839 1.64178 20.8806L12.9202 32.1601C15.1167 34.3568 18.6779 34.3568 20.8744 32.1601L32.1528 20.8806C34.3493 18.6839 34.3493 15.1223 32.1528 12.9256L20.8744 1.6461C18.6779 -0.550611 15.1167 -0.550613 12.9202 1.6461Z" fill="#466883"/>
<path d="M22.5259 6.21277H11.2863C8.48801 6.21277 6.2121 8.47957 6.2121 11.2874V22.5282C6.2121 25.3267 8.47868 27.6028 11.2863 27.6028H22.5259C25.3242 27.6028 27.6001 25.336 27.6001 22.5282V11.2874C27.6001 8.4889 25.3335 6.21277 22.5259 6.21277ZM26.0517 18.4796L18.4778 26.0543C17.6103 26.9218 16.2019 26.9218 15.3344 26.0543L7.76046 18.4796C6.893 17.6121 6.893 16.2035 7.76046 15.336L15.3344 7.76129C16.2019 6.89374 17.6103 6.89374 18.4778 7.76129L26.0517 15.336C26.9192 16.2035 26.9192 17.6121 26.0517 18.4796Z" fill="white"/>
<path d="M84.9498 1.64354L73.6714 12.923C71.4749 15.1197 71.4749 18.6813 73.6714 20.878L84.9498 32.1575C87.1463 34.3542 90.7075 34.3542 92.904 32.1575L104.182 20.878C106.379 18.6813 106.379 15.1197 104.182 12.923L92.904 1.64354C90.7075 -0.553173 87.1463 -0.553173 84.9498 1.64354Z" fill="#466883"/>
<path d="M94.5529 6.21277H83.3132C80.515 6.21277 78.2391 8.47957 78.2391 11.2874V22.5282C78.2391 25.3267 80.5057 27.6028 83.3132 27.6028H94.5529C97.3511 27.6028 99.627 25.336 99.627 22.5282V11.2874C99.627 8.4889 97.3605 6.21277 94.5529 6.21277ZM98.0787 18.4796L90.5047 26.0543C89.6373 26.9218 88.2288 26.9218 87.3614 26.0543L79.7874 18.4796C78.92 17.6121 78.92 16.2035 79.7874 15.336L87.3614 7.76129C88.2288 6.89374 89.6373 6.89374 90.5047 7.76129L98.0787 15.336C98.9461 16.2035 98.9461 17.6121 98.0787 18.4796Z" fill="white"/>
<path d="M517.091 209.539L505.813 220.819C503.617 223.016 503.617 226.577 505.813 228.774L517.091 240.053C519.288 242.25 522.849 242.25 525.046 240.053L536.324 228.774C538.521 226.577 538.521 223.016 536.324 220.819L525.046 209.539C522.849 207.343 519.288 207.343 517.091 209.539Z" fill="#466883"/>
<path d="M526.696 214.106H515.456C512.658 214.106 510.382 216.373 510.382 219.18V230.421C510.382 233.22 512.649 235.496 515.456 235.496H526.696C529.494 235.496 531.77 233.229 531.77 230.421V219.18C531.77 216.382 529.504 214.106 526.696 214.106ZM530.222 226.373L522.648 233.947C521.781 234.815 520.372 234.815 519.505 233.947L511.931 226.373C511.063 225.505 511.063 224.096 511.931 223.229L519.505 215.654C520.372 214.787 521.781 214.787 522.648 215.654L530.222 223.229C531.089 224.096 531.089 225.505 530.222 226.373Z" fill="white"/>
<path d="M517.091 140.238L505.812 151.517C503.616 153.714 503.616 157.276 505.812 159.472L517.091 170.752C519.287 172.948 522.848 172.948 525.045 170.752L536.323 159.472C538.52 157.276 538.52 153.714 536.323 151.517L525.045 140.238C522.848 138.041 519.287 138.041 517.091 140.238Z" fill="#466883"/>
<path d="M526.696 144.805H515.456C512.658 144.805 510.382 147.072 510.382 149.88V161.12C510.382 163.919 512.649 166.195 515.456 166.195H526.696C529.494 166.195 531.77 163.928 531.77 161.12V149.88C531.77 147.081 529.504 144.805 526.696 144.805ZM530.222 157.072L522.648 164.646C521.781 165.514 520.372 165.514 519.505 164.646L511.931 157.072C511.063 156.204 511.063 154.796 511.931 153.928L519.505 146.353C520.372 145.486 521.781 145.486 522.648 146.353L530.222 153.928C531.089 154.796 531.089 156.204 530.222 157.072Z" fill="white"/>
<path d="M517.092 278.841L505.814 290.121C503.618 292.317 503.618 295.879 505.814 298.076L517.092 309.355C519.289 311.552 522.85 311.552 525.047 309.355L536.325 298.076C538.521 295.879 538.521 292.317 536.325 290.121L525.047 278.841C522.85 276.644 519.289 276.644 517.092 278.841Z" fill="#466883"/>
<path d="M526.696 283.397H515.456C512.658 283.397 510.382 285.664 510.382 288.472V299.713C510.382 302.511 512.649 304.787 515.456 304.787H526.696C529.494 304.787 531.77 302.52 531.77 299.713V288.472C531.77 285.673 529.504 283.397 526.696 283.397ZM530.222 295.664L522.648 303.239C521.781 304.106 520.372 304.106 519.505 303.239L511.931 295.664C511.063 294.797 511.063 293.388 511.931 292.52L519.505 284.946C520.372 284.078 521.781 284.078 522.648 284.946L530.222 292.52C531.089 293.388 531.089 294.797 530.222 295.664Z" fill="white"/>
<path d="M589.121 209.537L577.843 220.816C575.646 223.013 575.646 226.575 577.843 228.771L589.121 240.051C591.318 242.248 594.879 242.248 597.075 240.051L608.354 228.771C610.55 226.575 610.55 223.013 608.354 220.816L597.075 209.537C594.879 207.34 591.318 207.34 589.121 209.537Z" fill="#466883"/>
<path d="M598.714 214.106H587.474C584.676 214.106 582.4 216.373 582.4 219.18V230.421C582.4 233.22 584.667 235.496 587.474 235.496H598.714C601.512 235.496 603.788 233.229 603.788 230.421V219.18C603.788 216.382 601.521 214.106 598.714 214.106ZM602.24 226.373L594.666 233.947C593.798 234.815 592.39 234.815 591.522 233.947L583.948 226.373C583.081 225.505 583.081 224.096 583.948 223.229L591.522 215.654C592.39 214.787 593.798 214.787 594.666 215.654L602.24 223.229C603.107 224.096 603.107 225.505 602.24 226.373Z" fill="white"/>
<path d="M589.111 140.235L577.832 151.515C575.636 153.711 575.636 157.273 577.832 159.47L589.111 170.749C591.307 172.946 594.869 172.946 597.065 170.749L608.343 159.47C610.54 157.273 610.54 153.711 608.343 151.515L597.065 140.235C594.869 138.039 591.307 138.039 589.111 140.235Z" fill="#466883"/>
<path d="M598.714 144.805H587.474C584.676 144.805 582.4 147.072 582.4 149.88V161.12C582.4 163.919 584.667 166.195 587.474 166.195H598.714C601.512 166.195 603.788 163.928 603.788 161.12V149.88C603.788 147.081 601.521 144.805 598.714 144.805ZM602.24 157.072L594.666 164.646C593.798 165.514 592.39 165.514 591.522 164.646L583.948 157.072C583.081 156.204 583.081 154.796 583.948 153.928L591.522 146.353C592.39 145.486 593.798 145.486 594.666 146.353L602.24 153.928C603.107 154.796 603.107 156.204 602.24 157.072Z" fill="white"/>
<path d="M589.122 278.839L577.844 290.118C575.647 292.315 575.647 295.876 577.844 298.073L589.122 309.352C591.318 311.549 594.88 311.549 597.076 309.352L608.355 298.073C610.551 295.876 610.551 292.315 608.355 290.118L597.076 278.839C594.88 276.642 591.318 276.642 589.122 278.839Z" fill="#466883"/>
<path d="M598.714 283.397H587.474C584.676 283.397 582.4 285.664 582.4 288.472V299.713C582.4 302.511 584.667 304.787 587.474 304.787H598.714C601.512 304.787 603.788 302.52 603.788 299.713V288.472C603.788 285.673 601.521 283.397 598.714 283.397ZM602.24 295.664L594.666 303.239C593.798 304.106 592.39 304.106 591.522 303.239L583.948 295.664C583.081 294.797 583.081 293.388 583.948 292.52L591.522 284.946C592.39 284.078 593.798 284.078 594.666 284.946L602.24 292.52C603.107 293.388 603.107 294.797 602.24 295.664Z" fill="white"/>
<path d="M517.096 70.9427L505.818 82.2222C503.621 84.4189 503.621 87.9805 505.818 90.1772L517.096 101.457C519.293 103.653 522.854 103.653 525.051 101.457L536.329 90.1772C538.525 87.9805 538.525 84.4189 536.329 82.2222L525.051 70.9427C522.854 68.746 519.293 68.746 517.096 70.9427Z" fill="#466883"/>
<path d="M526.696 75.5134H515.456C512.658 75.5134 510.382 77.7802 510.382 80.5881V91.8288C510.382 94.6274 512.649 96.9035 515.456 96.9035H526.696C529.494 96.9035 531.77 94.6367 531.77 91.8288V80.5881C531.77 77.7896 529.504 75.5134 526.696 75.5134ZM530.222 87.7803L522.648 95.355C521.781 96.2225 520.372 96.2225 519.505 95.355L511.931 87.7803C511.063 86.9128 511.063 85.5042 511.931 84.6366L519.505 77.0619C520.372 76.1944 521.781 76.1944 522.648 77.0619L530.222 84.6366C531.089 85.5042 531.089 86.9128 530.222 87.7803Z" fill="white"/>
<path d="M589.117 70.9402L577.838 82.2197C575.642 84.4164 575.642 87.9779 577.838 90.1746L589.117 101.454C591.313 103.651 594.874 103.651 597.071 101.454L608.349 90.1747C610.546 87.978 610.546 84.4164 608.349 82.2197L597.071 70.9402C594.874 68.7435 591.313 68.7435 589.117 70.9402Z" fill="#466883"/>
<path d="M598.714 75.5134H587.474C584.676 75.5134 582.4 77.7802 582.4 80.5881V91.8288C582.4 94.6274 584.667 96.9035 587.474 96.9035H598.714C601.512 96.9035 603.788 94.6367 603.788 91.8288V80.5881C603.788 77.7896 601.521 75.5134 598.714 75.5134ZM602.24 87.7803L594.666 95.355C593.798 96.2225 592.39 96.2225 591.522 95.355L583.948 87.7803C583.081 86.9128 583.081 85.5042 583.948 84.6366L591.522 77.0619C592.39 76.1944 593.798 76.1944 594.666 77.0619L602.24 84.6366C603.107 85.5042 603.107 86.9128 602.24 87.7803Z" fill="white"/>
<path d="M517.086 1.65037L505.808 12.9298C503.611 15.1265 503.611 18.6881 505.808 20.8848L517.086 32.1643C519.283 34.361 522.844 34.361 525.04 32.1643L536.319 20.8848C538.515 18.6881 538.515 15.1266 536.319 12.9299L525.04 1.65039C522.844 -0.546321 519.283 -0.546342 517.086 1.65037Z" fill="#466883"/>
<path d="M526.696 6.21265H515.456C512.658 6.21265 510.382 8.47945 510.382 11.2873V22.528C510.382 25.3266 512.649 27.6027 515.456 27.6027H526.696C529.494 27.6027 531.77 25.3359 531.77 22.528V11.2873C531.77 8.48878 529.504 6.21265 526.696 6.21265ZM530.222 18.4795L522.648 26.0542C521.781 26.9217 520.372 26.9217 519.505 26.0542L511.931 18.4795C511.063 17.612 511.063 16.2034 511.931 15.3358L519.505 7.76116C520.372 6.89362 521.781 6.89362 522.648 7.76116L530.222 15.3358C531.089 16.2034 531.089 17.612 530.222 18.4795Z" fill="white"/>
<path d="M589.116 1.64785L577.837 12.9273C575.641 15.124 575.641 18.6856 577.837 20.8823L589.116 32.1618C591.312 34.3585 594.873 34.3585 597.07 32.1618L608.348 20.8823C610.545 18.6856 610.545 15.124 608.348 12.9273L597.07 1.64783C594.873 -0.548884 591.312 -0.548866 589.116 1.64785Z" fill="#466883"/>
<path d="M598.714 6.21265H587.474C584.676 6.21265 582.4 8.47945 582.4 11.2873V22.528C582.4 25.3266 584.667 27.6027 587.474 27.6027H598.714C601.512 27.6027 603.788 25.3359 603.788 22.528V11.2873C603.788 8.48878 601.521 6.21265 598.714 6.21265ZM602.24 18.4795L594.666 26.0542C593.798 26.9217 592.39 26.9217 591.522 26.0542L583.948 18.4795C583.081 17.612 583.081 16.2034 583.948 15.3358L591.522 7.76116C592.39 6.89362 593.798 6.89362 594.666 7.76116L602.24 15.3358C603.107 16.2034 603.107 17.612 602.24 18.4795Z" fill="white"/>
<path d="M373.048 209.538L361.77 220.818C359.573 223.014 359.573 226.576 361.77 228.773L373.048 240.052C375.245 242.249 378.806 242.249 381.002 240.052L392.281 228.773C394.477 226.576 394.477 223.014 392.281 220.818L381.002 209.538C378.806 207.341 375.245 207.341 373.048 209.538Z" fill="#466883"/>
<path d="M382.642 214.106H371.403C368.604 214.106 366.328 216.373 366.328 219.18V230.421C366.328 233.22 368.595 235.496 371.403 235.496H382.642C385.44 235.496 387.716 233.229 387.716 230.421V219.18C387.716 216.382 385.45 214.106 382.642 214.106ZM386.168 226.373L378.594 233.947C377.727 234.815 376.318 234.815 375.451 233.947L367.877 226.373C367.009 225.505 367.009 224.096 367.877 223.229L375.451 215.654C376.318 214.787 377.727 214.787 378.594 215.654L386.168 223.229C387.035 224.096 387.035 225.505 386.168 226.373Z" fill="white"/>
<path d="M373.047 140.236L361.769 151.516C359.572 153.713 359.572 157.274 361.769 159.471L373.047 170.75C375.244 172.947 378.805 172.947 381.002 170.75L392.28 159.471C394.476 157.274 394.476 153.713 392.28 151.516L381.002 140.236C378.805 138.04 375.244 138.04 373.047 140.236Z" fill="#466883"/>
<path d="M382.642 144.805H371.403C368.604 144.805 366.328 147.072 366.328 149.88V161.12C366.328 163.919 368.595 166.195 371.403 166.195H382.642C385.44 166.195 387.716 163.928 387.716 161.12V149.88C387.716 147.081 385.45 144.805 382.642 144.805ZM386.168 157.072L378.594 164.646C377.727 165.514 376.318 165.514 375.451 164.646L367.877 157.072C367.009 156.204 367.009 154.796 367.877 153.928L375.451 146.353C376.318 145.486 377.727 145.486 378.594 146.353L386.168 153.928C387.035 154.796 387.035 156.204 386.168 157.072Z" fill="white"/>
<path d="M373.049 278.84L361.771 290.119C359.574 292.316 359.574 295.877 361.771 298.074L373.049 309.354C375.246 311.55 378.807 311.55 381.003 309.354L392.282 298.074C394.478 295.877 394.478 292.316 392.282 290.119L381.003 278.84C378.807 276.643 375.246 276.643 373.049 278.84Z" fill="#466883"/>
<path d="M382.642 283.397H371.403C368.604 283.397 366.328 285.664 366.328 288.472V299.713C366.328 302.511 368.595 304.787 371.403 304.787H382.642C385.44 304.787 387.716 302.52 387.716 299.713V288.472C387.716 285.673 385.45 283.397 382.642 283.397ZM386.168 295.664L378.594 303.239C377.727 304.106 376.318 304.106 375.451 303.239L367.877 295.664C367.009 294.797 367.009 293.388 367.877 292.52L375.451 284.946C376.318 284.078 377.727 284.078 378.594 284.946L386.168 292.52C387.035 293.388 387.035 294.797 386.168 295.664Z" fill="white"/>
<path d="M445.071 209.542L433.793 220.822C431.596 223.018 431.596 226.58 433.793 228.777L445.071 240.056C447.268 242.253 450.829 242.253 453.025 240.056L464.304 228.777C466.5 226.58 466.5 223.018 464.304 220.822L453.025 209.542C450.829 207.345 447.268 207.345 445.071 209.542Z" fill="#466883"/>
<path d="M454.669 214.106H443.43C440.631 214.106 438.355 216.373 438.355 219.18V230.421C438.355 233.22 440.622 235.496 443.43 235.496H454.669C457.467 235.496 459.743 233.229 459.743 230.421V219.18C459.743 216.382 457.477 214.106 454.669 214.106ZM458.195 226.373L450.621 233.947C449.754 234.815 448.345 234.815 447.478 233.947L439.904 226.373C439.036 225.505 439.036 224.096 439.904 223.229L447.478 215.654C448.345 214.787 449.754 214.787 450.621 215.654L458.195 223.229C459.062 224.096 459.062 225.505 458.195 226.373Z" fill="white"/>
<path d="M445.061 140.24L433.783 151.52C431.586 153.717 431.586 157.278 433.783 159.475L445.061 170.754C447.258 172.951 450.819 172.951 453.015 170.754L464.294 159.475C466.49 157.278 466.49 153.717 464.294 151.52L453.015 140.24C450.819 138.044 447.258 138.044 445.061 140.24Z" fill="#466883"/>
<path d="M454.669 144.805H443.43C440.631 144.805 438.355 147.072 438.355 149.88V161.12C438.355 163.919 440.622 166.195 443.43 166.195H454.669C457.467 166.195 459.743 163.928 459.743 161.12V149.88C459.743 147.081 457.477 144.805 454.669 144.805ZM458.195 157.072L450.621 164.646C449.754 165.514 448.345 165.514 447.478 164.646L439.904 157.072C439.036 156.204 439.036 154.796 439.904 153.928L447.478 146.353C448.345 145.486 449.754 145.486 450.621 146.353L458.195 153.928C459.062 154.796 459.062 156.204 458.195 157.072Z" fill="white"/>
<path d="M445.072 278.844L433.794 290.123C431.597 292.32 431.597 295.882 433.794 298.078L445.072 309.358C447.269 311.555 450.83 311.555 453.026 309.358L464.305 298.078C466.501 295.882 466.501 292.32 464.305 290.123L453.026 278.844C450.83 276.647 447.269 276.647 445.072 278.844Z" fill="#466883"/>
<path d="M454.669 283.397H443.43C440.631 283.397 438.355 285.664 438.355 288.472V299.713C438.355 302.511 440.622 304.787 443.43 304.787H454.669C457.467 304.787 459.743 302.52 459.743 299.713V288.472C459.743 285.673 457.477 283.397 454.669 283.397ZM458.195 295.664L450.621 303.239C449.754 304.106 448.345 304.106 447.478 303.239L439.904 295.664C439.036 294.797 439.036 293.388 439.904 292.52L447.478 284.946C448.345 284.078 449.754 284.078 450.621 284.946L458.195 292.52C459.062 293.388 459.062 294.797 458.195 295.664Z" fill="white"/>
<path d="M373.044 70.9414L361.765 82.2209C359.569 84.4176 359.569 87.9792 361.765 90.1759L373.044 101.455C375.24 103.652 378.801 103.652 380.998 101.455L392.276 90.1759C394.473 87.9791 394.473 84.4176 392.276 82.2209L380.998 70.9414C378.801 68.7447 375.24 68.7447 373.044 70.9414Z" fill="#466883"/>
<path d="M382.642 75.5134H371.403C368.604 75.5134 366.328 77.7802 366.328 80.5881V91.8288C366.328 94.6274 368.595 96.9035 371.403 96.9035H382.642C385.44 96.9035 387.716 94.6367 387.716 91.8288V80.5881C387.716 77.7896 385.45 75.5134 382.642 75.5134ZM386.168 87.7803L378.594 95.355C377.727 96.2225 376.318 96.2225 375.451 95.355L367.877 87.7803C367.009 86.9128 367.009 85.5042 367.877 84.6366L375.451 77.0619C376.318 76.1944 377.727 76.1944 378.594 77.0619L386.168 84.6366C387.035 85.5042 387.035 86.9128 386.168 87.7803Z" fill="white"/>
<path d="M445.067 70.9454L433.788 82.2249C431.592 84.4216 431.592 87.9832 433.788 90.1799L445.067 101.459C447.263 103.656 450.824 103.656 453.021 101.459L464.299 90.1799C466.496 87.9832 466.496 84.4216 464.299 82.2249L453.021 70.9454C450.824 68.7487 447.263 68.7487 445.067 70.9454Z" fill="#466883"/>
<path d="M454.669 75.5134H443.43C440.631 75.5134 438.355 77.7802 438.355 80.5881V91.8288C438.355 94.6274 440.622 96.9035 443.43 96.9035H454.669C457.467 96.9035 459.743 94.6367 459.743 91.8288V80.5881C459.743 77.7896 457.477 75.5134 454.669 75.5134ZM458.195 87.7803L450.621 95.355C449.754 96.2225 448.345 96.2225 447.478 95.355L439.904 87.7803C439.036 86.9128 439.036 85.5042 439.904 84.6366L447.478 77.0619C448.345 76.1944 449.754 76.1944 450.621 77.0619L458.195 84.6366C459.062 85.5042 459.062 86.9128 458.195 87.7803Z" fill="white"/>
<path d="M373.043 1.64903L361.764 12.9285C359.568 15.1252 359.568 18.6868 361.764 20.8835L373.043 32.163C375.239 34.3597 378.801 34.3597 380.997 32.163L392.275 20.8835C394.472 18.6868 394.472 15.1252 392.275 12.9285L380.997 1.64903C378.801 -0.547682 375.239 -0.547684 373.043 1.64903Z" fill="#466883"/>
<path d="M382.642 6.21265H371.403C368.604 6.21265 366.328 8.47945 366.328 11.2873V22.528C366.328 25.3266 368.595 27.6027 371.403 27.6027H382.642C385.44 27.6027 387.716 25.3359 387.716 22.528V11.2873C387.716 8.48878 385.45 6.21265 382.642 6.21265ZM386.168 18.4795L378.594 26.0542C377.727 26.9217 376.318 26.9217 375.451 26.0542L367.877 18.4795C367.009 17.612 367.009 16.2034 367.877 15.3358L375.451 7.76116C376.318 6.89362 377.727 6.89362 378.594 7.76116L386.168 15.3358C387.035 16.2034 387.035 17.612 386.168 18.4795Z" fill="white"/>
<path d="M445.066 1.65306L433.787 12.9325C431.591 15.1292 431.591 18.6908 433.787 20.8875L445.066 32.167C447.262 34.3637 450.824 34.3637 453.02 32.167L464.298 20.8875C466.495 18.6908 466.495 15.1292 464.298 12.9325L453.02 1.65306C450.824 -0.543654 447.262 -0.543656 445.066 1.65306Z" fill="#466883"/>
<path d="M454.669 6.21265H443.43C440.631 6.21265 438.355 8.47945 438.355 11.2873V22.528C438.355 25.3266 440.622 27.6027 443.43 27.6027H454.669C457.467 27.6027 459.743 25.3359 459.743 22.528V11.2873C459.743 8.48878 457.477 6.21265 454.669 6.21265ZM458.195 18.4795L450.621 26.0542C449.754 26.9217 448.345 26.9217 447.478 26.0542L439.904 18.4795C439.036 17.612 439.036 16.2034 439.904 15.3358L447.478 7.76116C448.345 6.89362 449.754 6.89362 450.621 7.76116L458.195 15.3358C459.062 16.2034 459.062 17.612 458.195 18.4795Z" fill="white"/>
</g>
<defs>
<clipPath id="clip0_82_3602">
<rect width="610" height="311" fill="white"/>
</clipPath>
</defs>
</svg>
