<svg width="53" height="60" viewBox="0 0 53 60" fill="none" xmlns="http://www.w3.org/2000/svg">
<g clip-path="url(#clip0_82_3567)">
<path d="M46.6551 2.52173H6.34487C4.24135 2.52173 2.5361 4.21734 2.5361 6.30898V46.3915C2.5361 48.4832 4.24135 50.1788 6.34487 50.1788H46.6551C48.7586 50.1788 50.4639 48.4832 50.4639 46.3915V6.30898C50.4639 4.21734 48.7586 2.52173 46.6551 2.52173Z" stroke="#FF233B" stroke-width="5.5" stroke-miterlimit="10"/>
<path d="M33.6334 17.1115H19.3574C18.1707 17.1115 17.2086 18.0681 17.2086 19.2481V33.4434C17.2086 34.6234 18.1707 35.58 19.3574 35.58H33.6334C34.8201 35.58 35.7821 34.6234 35.7821 33.4434V19.2481C35.7821 18.0681 34.8201 17.1115 33.6334 17.1115Z" stroke="#FF233B" stroke-width="5.5" stroke-miterlimit="10"/>
<path d="M11.0113 50.1788V60" stroke="#FF233B" stroke-width="5.5" stroke-miterlimit="10"/>
<path d="M41.9887 50.1788V60" stroke="#FF233B" stroke-width="5.5" stroke-miterlimit="10"/>
</g>
<defs>
<clipPath id="clip0_82_3567">
<rect width="53" height="60" fill="white"/>
</clipPath>
</defs>
</svg>
