<?xml version="1.0" encoding="utf-8"?>
<!-- Generator: Adobe Illustrator 26.3.1, SVG Export Plug-In . SVG Version: 6.00 Build 0)  -->
<svg version="1.1" id="Layer_1" xmlns="http://www.w3.org/2000/svg" xmlns:xlink="http://www.w3.org/1999/xlink" x="0px" y="0px"
	 viewBox="0 0 170.8 37" style="enable-background:new 0 0 170.8 37;" xml:space="preserve">
<style type="text/css">
	.st0{fill:#FF233B;}
	.st1{fill:#FFFFFF;}
</style>
<g>
	<path class="st0" d="M12.9,4.4V0c-1.6,1.3-3,2.8-4.5,4.3H0v6h10.5l11.9,11.9l0.3,0.6l-3.9,3.8l-8.4-8.1L0,28.8V37
		c0.2,0.1,0.2-0.1,0.4-0.2c0.6-0.4,1.5-1.4,2-1.9c2.8-2.6,5.3-5.5,8.1-8.1l16.1,0l0.6-0.1l4.1-4l4.7-9.9l-0.1-0.2l-9,6l-1-1.1
		l1.3-4.6l-4,1.5h-0.4L12.9,4.4z"/>
	<path class="st1" d="M69.9,19.7c0.7-1.4,1.1-3.1,1.1-5c0-3-1-5.3-2.9-7c-2-1.6-4.7-2.5-8.3-2.5H47v26.4h8.7v-6.8H59l3.2,6.8H72
		l-5.2-8.6C68.2,22.2,69.2,21.1,69.9,19.7L69.9,19.7z M61.9,17.3c-0.5,0.6-1.2,0.8-2.2,0.8h-4v-6.3h4c0.9,0,1.7,0.3,2.2,0.8
		c0.5,0.5,0.8,1.3,0.8,2.3C62.7,16,62.4,16.8,61.9,17.3z"/>
	<path class="st1" d="M90.5,15.5h-8.2V5.3h-8.7v26.3h8.7v-9.5h8.2v9.5h8.7V5.3h-8.7V15.5z"/>
	<path class="st1" d="M111.2,5.3h-8.7v26.3h8.7V5.3z"/>
	<path class="st1" d="M132.1,18.8L121.7,5.3h-7.3v26.3h7.9V18.2l10.4,13.5h7.3V5.3h-7.9V18.8z"/>
	<path class="st1" d="M168.9,11.4c-1.2-2.1-3-3.7-5.2-4.9c-2.2-1.2-4.7-1.8-7.4-1.8c-2.8,0-5.2,0.6-7.4,1.7
		c-2.2,1.2-3.9,2.8-5.2,4.9c-1.2,2.1-1.9,4.4-1.9,7.1s0.6,5,1.9,7.1c1.2,2.1,3,3.7,5.2,4.9c2.2,1.2,4.7,1.8,7.4,1.8
		c2.8,0,5.2-0.6,7.4-1.8c2.2-1.2,3.9-2.8,5.2-4.9c1.2-2.1,1.9-4.5,1.9-7.1S170.1,13.5,168.9,11.4z M161.1,21.8c-0.5,1-1.1,1.8-2,2.3
		c-0.8,0.6-1.7,0.8-2.7,0.8c-1,0-1.9-0.3-2.8-0.9c-0.9-0.6-1.5-1.4-2.1-2.3c-0.5-1-0.8-2.1-0.8-3.3c0-1.2,0.3-2.3,0.8-3.3
		c0.5-1,1.2-1.7,2.1-2.3c0.9-0.6,1.8-0.8,2.8-0.8c1,0,1.9,0.3,2.7,0.8c0.8,0.6,1.5,1.3,2,2.3c0.5,1,0.7,2.1,0.7,3.3
		C161.8,19.7,161.6,20.8,161.1,21.8L161.1,21.8z"/>
</g>
</svg>
