<svg width="148" height="33" viewBox="0 0 148 33" fill="none" xmlns="http://www.w3.org/2000/svg">
<g clip-path="url(#clip0_155_28285)">
<path d="M11.15 4.27488V0.504883C9.76 1.64488 8.55 2.96488 7.27 4.22488H0V9.43488H9.08L19.33 19.6849L19.6 20.1649L16.2 23.4549L8.98 16.4549L0 25.4149V32.4749C0.19 32.5249 0.21 32.3949 0.32 32.3149C0.81 31.9449 1.59 31.1349 2.07 30.6749C4.46 28.3949 6.68 25.9349 9.1 23.6849L23 23.6649L23.51 23.5449L27.02 20.0449L31.12 11.5049L31.07 11.3449L23.31 16.5249L22.44 15.5449L23.57 11.5549L20.07 12.8949H19.75L11.15 4.27488Z" fill="#FF233B"/>
<path d="M60.6699 21.555C61.2899 20.335 61.5999 18.895 61.5999 17.245C61.5999 14.645 60.7599 12.635 59.0699 11.215C57.3799 9.79496 54.9899 9.08496 51.8899 9.08496H40.8799V31.875H48.4199V25.965H51.2499L53.9799 31.875H62.4899L58.0099 24.465C59.1799 23.745 60.0699 22.785 60.6899 21.555H60.6699ZM53.7799 19.505C53.3399 19.995 52.6999 20.235 51.8799 20.235H48.3999V14.805H51.8799C52.6999 14.805 53.3399 15.035 53.7799 15.505C54.2199 15.975 54.4499 16.625 54.4499 17.475C54.4499 18.325 54.2299 19.015 53.7799 19.505Z" fill="#0A1F2D"/>
<path d="M78.5295 17.9347H71.4795V9.09473H63.9395V31.8747H71.4795V23.6547H78.5295V31.8747H86.0695V9.09473H78.5295V17.9347Z" fill="#0A1F2D"/>
<path d="M96.3701 9.09473H88.8301V31.8747H96.3701V9.09473Z" fill="#0A1F2D"/>
<path d="M114.43 20.7947L105.43 9.09473H99.1299V31.8747H105.98V20.2447L114.95 31.8747H121.25V9.09473H114.43V20.7947Z" fill="#0A1F2D"/>
<path d="M146.29 14.3647C145.22 12.5647 143.73 11.1547 141.82 10.1447C139.91 9.12475 137.77 8.61475 135.39 8.61475C133.01 8.61475 130.86 9.11475 128.96 10.1247C127.05 11.1347 125.56 12.5347 124.49 14.3347C123.42 16.1347 122.88 18.1647 122.88 20.4447C122.88 22.7247 123.42 24.7647 124.49 26.5847C125.56 28.4047 127.05 29.8247 128.96 30.8547C130.87 31.8847 133.01 32.3947 135.39 32.3947C137.77 32.3947 139.92 31.8847 141.82 30.8547C143.73 29.8247 145.22 28.4047 146.29 26.5847C147.36 24.7647 147.9 22.7147 147.9 20.4447C147.9 18.1747 147.36 16.1647 146.29 14.3647ZM139.55 23.3647C139.14 24.2347 138.58 24.9047 137.86 25.3947C137.15 25.8847 136.35 26.1247 135.49 26.1247C134.63 26.1247 133.82 25.8747 133.07 25.3747C132.32 24.8747 131.73 24.2047 131.28 23.3447C130.84 22.4847 130.61 21.5347 130.61 20.4647C130.61 19.3947 130.83 18.4547 131.28 17.6047C131.72 16.7647 132.32 16.0947 133.07 15.6047C133.82 15.1147 134.62 14.8747 135.49 14.8747C136.36 14.8747 137.15 15.1147 137.86 15.5847C138.57 16.0647 139.14 16.7247 139.55 17.5847C139.96 18.4447 140.17 19.3947 140.17 20.4647C140.17 21.5347 139.96 22.4947 139.55 23.3547V23.3647Z" fill="#0A1F2D"/>
</g>
<defs>
<clipPath id="clip0_155_28285">
<rect width="147.9" height="31.99" fill="white" transform="translate(0 0.504883)"/>
</clipPath>
</defs>
</svg>
