<svg width="58" height="58" viewBox="0 0 58 58" fill="none" xmlns="http://www.w3.org/2000/svg">
<g clip-path="url(#clip0_514_469)">
<path d="M50.59 3.08997H6.88C4.59906 3.08997 2.75 4.93903 2.75 7.21997V50.93C2.75 53.2109 4.59906 55.06 6.88 55.06H50.59C52.8709 55.06 54.72 53.2109 54.72 50.93V7.21997C54.72 4.93903 52.8709 3.08997 50.59 3.08997Z" stroke="#FF233B" stroke-width="5.5" stroke-miterlimit="10"/>
<path d="M17.1998 40.6L11.2798 46.53" stroke="#FF233B" stroke-width="5.5" stroke-miterlimit="10"/>
<path d="M17.1998 17.54L11.2798 11.62" stroke="#FF233B" stroke-width="5.5" stroke-miterlimit="10"/>
<path d="M40.2598 17.54L46.1898 11.62" stroke="#FF233B" stroke-width="5.5" stroke-miterlimit="10"/>
<path d="M40.2598 40.6L46.1898 46.53" stroke="#FF233B" stroke-width="5.5" stroke-miterlimit="10"/>
<path d="M28.7302 38.87C34.1426 38.87 38.5302 34.4824 38.5302 29.07C38.5302 23.6576 34.1426 19.27 28.7302 19.27C23.3178 19.27 18.9302 23.6576 18.9302 29.07C18.9302 34.4824 23.3178 38.87 28.7302 38.87Z" stroke="#FF233B" stroke-width="5.5" stroke-miterlimit="10"/>
</g>
<defs>
<clipPath id="clip0_514_469">
<rect width="57.47" height="57.47" fill="white" transform="translate(0 0.339966)"/>
</clipPath>
</defs>
</svg>
