<svg width="58" height="59" viewBox="0 0 58 59" fill="none" xmlns="http://www.w3.org/2000/svg">
<g clip-path="url(#clip0_515_387)">
<path d="M0 29.7298C0 13.7598 12.94 0.819824 28.91 0.819824C44.88 0.819824 57.82 13.7598 57.82 29.7298C57.82 45.6998 44.88 58.6398 28.91 58.6398C12.94 58.6398 0 45.6998 0 29.7298ZM28.91 53.2198C41.89 53.2198 52.4 42.7098 52.4 29.7298C52.4 16.7498 41.89 6.23982 28.91 6.23982C15.93 6.23982 5.42 16.7498 5.42 29.7298C5.42 42.7098 15.93 53.2198 28.91 53.2198ZM9.03 29.7298C9.03 27.7298 10.65 26.1198 12.64 26.1198C14.63 26.1198 16.25 27.7398 16.25 29.7298C16.25 31.7198 14.64 33.3398 12.64 33.3398C10.64 33.3398 9.03 31.7198 9.03 29.7298ZM21.68 18.8898C21.68 20.8898 20.07 22.4998 18.07 22.4998C16.07 22.4998 14.46 20.8798 14.46 18.8898C14.46 16.8998 16.07 15.2798 18.07 15.2798C20.07 15.2798 21.68 16.8998 21.68 18.8898ZM22.58 40.5698C22.58 37.1398 25.31 34.3498 28.72 34.2498L36.35 16.8898C36.96 15.5198 38.55 14.8998 39.93 15.4998C41.3 16.1098 41.92 17.6998 41.22 19.0798L33.68 36.4398C34.65 37.5498 35.23 38.8898 35.23 40.5698C35.23 44.0598 32.4 46.8898 28.91 46.8898C25.42 46.8898 22.59 44.0598 22.59 40.5698H22.58ZM32.52 13.4698C32.52 15.4698 30.91 17.0798 28.91 17.0798C26.91 17.0798 25.3 15.4698 25.3 13.4698C25.3 11.4698 26.91 9.85982 28.91 9.85982C30.91 9.85982 32.52 11.4798 32.52 13.4698ZM48.78 29.7298C48.78 31.7298 47.17 33.3398 45.17 33.3398C43.17 33.3398 41.56 31.7198 41.56 29.7298C41.56 27.7398 43.17 26.1198 45.17 26.1198C47.17 26.1198 48.78 27.7398 48.78 29.7298Z" fill="#FF233B"/>
</g>
<defs>
<clipPath id="clip0_515_387">
<rect width="57.82" height="57.82" fill="white" transform="translate(0 0.819824)"/>
</clipPath>
</defs>
</svg>
