<svg width="54" height="60" viewBox="0 0 54 60" fill="none" xmlns="http://www.w3.org/2000/svg">
<g clip-path="url(#clip0_515_332)">
<path d="M30.7526 2.71045H5.46002C3.86516 2.71045 2.5799 4.06065 2.5799 5.73607V38.5547C2.5799 40.2302 3.86516 41.5804 5.46002 41.5804H6.08858C6.97983 41.5804 7.82416 41.1467 8.36829 40.3977L14.5882 33.8734C15.1324 33.1244 15.9767 32.6907 16.8679 32.6907H30.7432C32.3381 32.6907 33.6233 31.3405 33.6233 29.6651V5.73607C33.6233 4.06065 32.3381 2.71045 30.7432 2.71045H30.7526Z" stroke="#FF233B" stroke-width="5.5" stroke-miterlimit="10"/>
<path d="M23.2474 18.4199H48.54C50.1348 18.4199 51.4201 19.7701 51.4201 21.4455V54.2642C51.4201 55.9396 50.1348 57.2898 48.54 57.2898H47.9114C47.0202 57.2898 46.1758 56.8562 45.6317 56.1072L39.4117 49.5829C38.8676 48.8339 38.0233 48.4002 37.132 48.4002H23.2568C21.6619 48.4002 20.3766 47.05 20.3766 45.3746V21.4455C20.3766 19.7701 21.6619 18.4199 23.2568 18.4199H23.2474Z" stroke="#FF233B" stroke-width="5.5" stroke-miterlimit="10"/>
</g>
<defs>
<clipPath id="clip0_515_332">
<rect width="54" height="60" fill="white"/>
</clipPath>
</defs>
</svg>
