<svg width="58" height="58" viewBox="0 0 58 58" fill="none" xmlns="http://www.w3.org/2000/svg">
<g clip-path="url(#clip0_515_345)">
<path d="M0 28.91C0 12.94 12.94 0 28.91 0C44.88 0 57.82 12.94 57.82 28.91C57.82 44.88 44.88 57.82 28.91 57.82C12.94 57.82 0 44.88 0 28.91ZM28.91 52.4C41.89 52.4 52.4 41.89 52.4 28.91C52.4 15.93 41.89 5.42 28.91 5.42C15.93 5.42 5.42 15.93 5.42 28.91C5.42 41.89 15.93 52.4 28.91 52.4ZM9.03 28.91C9.03 26.91 10.65 25.3 12.64 25.3C14.63 25.3 16.25 26.92 16.25 28.91C16.25 30.9 14.64 32.52 12.64 32.52C10.64 32.52 9.03 30.9 9.03 28.91ZM21.68 18.07C21.68 20.07 20.07 21.68 18.07 21.68C16.07 21.68 14.46 20.06 14.46 18.07C14.46 16.08 16.07 14.46 18.07 14.46C20.07 14.46 21.68 16.08 21.68 18.07ZM22.58 39.75C22.58 36.32 25.31 33.53 28.72 33.43L36.35 16.07C36.96 14.7 38.55 14.08 39.93 14.68C41.3 15.29 41.92 16.88 41.22 18.26L33.68 35.62C34.65 36.73 35.23 38.07 35.23 39.75C35.23 43.24 32.4 46.07 28.91 46.07C25.42 46.07 22.59 43.24 22.59 39.75H22.58ZM32.52 12.65C32.52 14.65 30.91 16.26 28.91 16.26C26.91 16.26 25.3 14.65 25.3 12.65C25.3 10.65 26.91 9.04 28.91 9.04C30.91 9.04 32.52 10.66 32.52 12.65ZM48.78 28.91C48.78 30.91 47.17 32.52 45.17 32.52C43.17 32.52 41.56 30.9 41.56 28.91C41.56 26.92 43.17 25.3 45.17 25.3C47.17 25.3 48.78 26.92 48.78 28.91Z" fill="#B2BDD4"/>
</g>
<defs>
<clipPath id="clip0_515_345">
<rect width="57.82" height="57.82" fill="white"/>
</clipPath>
</defs>
</svg>
