<svg width="34" height="35" viewBox="0 0 34 35" fill="none" xmlns="http://www.w3.org/2000/svg">
<path d="M16.75 0.739258C25.9355 0.739258 33.5 8.30377 33.5 17.4893C33.5 26.6747 25.9355 34.2393 16.75 34.2393C7.56452 34.2393 0 26.7396 0 17.4893C0 8.23893 7.49968 0.739258 16.75 0.739258ZM24.4442 12.1509C24.509 11.9564 24.509 11.7402 24.4442 11.4809C24.4442 11.3512 24.3145 11.1351 24.2497 11.0702C24.0336 10.8757 23.7094 10.8757 23.5797 10.8757C22.9529 10.8757 21.9587 11.1999 17.2903 13.1667C15.6694 13.8367 12.4274 15.1983 7.56452 17.3596C6.74323 17.6838 6.3542 17.9647 6.28936 18.3105C6.22452 18.8293 7.08903 19.0454 8.10484 19.3912C8.99097 19.6505 10.1365 19.9964 10.7416 19.9964C11.2819 19.9964 11.8871 19.7802 12.5571 19.3047C17.0958 16.2141 19.4516 14.658 19.5813 14.658C19.711 14.658 19.8623 14.5931 19.9271 14.658C20.0568 14.7876 20.0568 14.9173 19.9919 14.9822C19.9271 15.328 15.6694 19.2399 15.3884 19.5209C14.459 20.4718 13.3784 21.077 15.0642 22.1576C16.469 23.087 17.2903 23.7138 18.7816 24.6431C19.711 25.2483 20.4674 26.0047 21.4184 25.9399C21.8723 25.8751 22.3477 25.4644 22.5639 24.1676C23.169 21.2715 24.2497 14.7876 24.4442 12.1509Z" fill="#B2BDD4"/>
</svg>
