<svg width="390" height="168" viewBox="0 0 390 168" fill="none" xmlns="http://www.w3.org/2000/svg">
<g clip-path="url(#clip0_155_38109)">
<path d="M36.95 38.3682L30.8401 44.4761C29.6529 45.6629 29.6529 47.5871 30.8401 48.7739L36.95 54.8818C38.1373 56.0686 40.0621 56.0686 41.2494 54.8818L47.3593 48.7739C48.5465 47.5871 48.5465 45.6629 47.3593 44.4761L41.2494 38.3682C40.0621 37.1814 38.1373 37.1814 36.95 38.3682Z" fill="#466883"/>
<path d="M42.1404 40.8438H36.0556C34.5379 40.8438 33.3135 42.0724 33.3135 43.585V49.6677C33.3135 51.1849 34.5425 52.4089 36.0556 52.4089H42.1404C43.6582 52.4089 44.8826 51.1803 44.8826 49.6677V43.585C44.8826 42.0678 43.6535 40.8438 42.1404 40.8438ZM44.0446 47.4803L39.9477 51.5759C39.4775 52.0459 38.7186 52.0459 38.2484 51.5759L34.1515 47.4803C33.6813 47.0103 33.6813 46.2517 34.1515 45.7816L38.2484 41.6861C38.7186 41.2161 39.4775 41.2161 39.9477 41.6861L44.0446 45.7816C44.5148 46.2517 44.5148 47.0103 44.0446 47.4803Z" fill="white"/>
<path d="M36.951 75.8516L30.8411 81.9595C29.6538 83.1463 29.6538 85.0705 30.8411 86.2573L36.951 92.3652C38.1382 93.552 40.0631 93.552 41.2503 92.3652L47.3603 86.2573C48.5475 85.0705 48.5475 83.1463 47.3603 81.9595L41.2503 75.8516C40.0631 74.6648 38.1382 74.6648 36.951 75.8516Z" fill="#466883"/>
<path d="M42.1414 78.3271H36.0566C34.5389 78.3271 33.3145 79.5558 33.3145 81.0684V87.1511C33.3145 88.6683 34.5435 89.8923 36.0566 89.8923H42.1414C43.6591 89.8923 44.8835 88.6637 44.8835 87.1511V81.0684C44.8835 79.5511 43.6545 78.3271 42.1414 78.3271ZM44.0456 84.9637L39.9486 89.0593C39.4784 89.5293 38.7196 89.5293 38.2494 89.0593L34.1525 84.9637C33.6822 84.4937 33.6822 83.7351 34.1525 83.265L38.2494 79.1695C38.7196 78.6995 39.4784 78.6995 39.9486 79.1695L44.0456 83.265C44.5158 83.7351 44.5158 84.4937 44.0456 84.9637Z" fill="white"/>
<path d="M114.899 38.3721L108.789 44.48C107.602 45.6668 107.602 47.591 108.789 48.7778L114.899 54.8857C116.086 56.0725 118.011 56.0725 119.199 54.8857L125.309 48.7778C126.496 47.591 126.496 45.6668 125.309 44.48L119.199 38.3721C118.011 37.1853 116.086 37.1853 114.899 38.3721Z" fill="#466883"/>
<path d="M120.09 40.8433H114.005C112.487 40.8433 111.263 42.0719 111.263 43.5845V49.6672C111.263 51.1844 112.492 52.4084 114.005 52.4084H120.09C121.607 52.4084 122.832 51.1798 122.832 49.6672V43.5845C122.832 42.0673 121.603 40.8433 120.09 40.8433ZM121.994 47.4799L117.897 51.5754C117.427 52.0454 116.668 52.0454 116.198 51.5754L112.101 47.4799C111.63 47.0098 111.63 46.2512 112.101 45.7812L116.198 41.6856C116.668 41.2156 117.427 41.2156 117.897 41.6856L121.994 45.7812C122.464 46.2512 122.464 47.0098 121.994 47.4799Z" fill="white"/>
<path d="M114.899 75.8555L108.789 81.9634C107.602 83.1502 107.602 85.0744 108.789 86.2612L114.899 92.3691C116.086 93.5559 118.011 93.5559 119.199 92.3691L125.309 86.2612C126.496 85.0744 126.496 83.1502 125.309 81.9634L119.199 75.8555C118.011 74.6687 116.086 74.6687 114.899 75.8555Z" fill="#466883"/>
<path d="M120.09 78.3267H114.005C112.487 78.3267 111.263 79.5553 111.263 81.0679V87.1506C111.263 88.6678 112.492 89.8918 114.005 89.8918H120.09C121.607 89.8918 122.832 88.6632 122.832 87.1506V81.0679C122.832 79.5507 121.603 78.3267 120.09 78.3267ZM121.994 84.9633L117.897 89.0588C117.427 89.5288 116.668 89.5288 116.198 89.0588L112.101 84.9633C111.63 84.4932 111.63 83.7346 112.101 83.2646L116.198 79.169C116.668 78.699 117.427 78.699 117.897 79.169L121.994 83.2646C122.464 83.7346 122.464 84.4932 121.994 84.9633Z" fill="white"/>
<path d="M192.847 38.3716L186.738 44.4795C185.55 45.6663 185.55 47.5905 186.738 48.7774L192.847 54.8852C194.035 56.072 195.96 56.0721 197.147 54.8852L203.257 48.7774C204.444 47.5905 204.444 45.6663 203.257 44.4795L197.147 38.3716C195.96 37.1848 194.035 37.1848 192.847 38.3716Z" fill="#466883"/>
<path d="M198.042 40.8433H191.957C190.439 40.8433 189.215 42.0719 189.215 43.5845V49.6672C189.215 51.1844 190.444 52.4084 191.957 52.4084H198.042C199.56 52.4084 200.784 51.1798 200.784 49.6672V43.5845C200.784 42.0673 199.555 40.8433 198.042 40.8433ZM199.946 47.4799L195.849 51.5754C195.379 52.0454 194.62 52.0454 194.15 51.5754L190.053 47.4799C189.583 47.0098 189.583 46.2512 190.053 45.7812L194.15 41.6856C194.62 41.2156 195.379 41.2156 195.849 41.6856L199.946 45.7812C200.416 46.2512 200.416 47.0098 199.946 47.4799Z" fill="white"/>
<path d="M192.847 0.88823L186.738 6.99609C185.55 8.18292 185.55 10.1071 186.738 11.294L192.847 17.4018C194.035 18.5886 195.96 18.5887 197.147 17.4018L203.257 11.294C204.444 10.1071 204.444 8.18291 203.257 6.99608L197.147 0.88822C195.96 -0.298607 194.035 -0.298597 192.847 0.88823Z" fill="#466883"/>
<path d="M198.043 3.35986H191.958C190.44 3.35986 189.216 4.58852 189.216 6.10107V12.1838C189.216 13.701 190.445 14.925 191.958 14.925H198.043C199.561 14.925 200.785 13.6964 200.785 12.1838V6.10572C200.785 4.58852 199.556 3.36452 198.043 3.36452V3.35986ZM199.947 9.99646L195.85 14.092C195.38 14.562 194.621 14.562 194.151 14.092L190.054 9.99646C189.584 9.52641 189.584 8.76781 190.054 8.29775L194.151 4.20224C194.621 3.73218 195.38 3.73218 195.85 4.20224L199.947 8.29775C200.417 8.76781 200.417 9.52641 199.947 9.99646Z" fill="white"/>
<path d="M192.847 75.8555L186.738 81.9634C185.55 83.1502 185.55 85.0744 186.738 86.2612L192.847 92.3691C194.035 93.5559 195.96 93.5559 197.147 92.3691L203.257 86.2613C204.444 85.0744 204.444 83.1502 203.257 81.9634L197.147 75.8555C195.96 74.6687 194.035 74.6687 192.847 75.8555Z" fill="#466883"/>
<path d="M198.042 78.3271H191.957C190.439 78.3271 189.215 79.5558 189.215 81.0684V87.1511C189.215 88.6683 190.444 89.8923 191.957 89.8923H198.042C199.56 89.8923 200.784 88.6637 200.784 87.1511V81.0684C200.784 79.5511 199.555 78.3271 198.042 78.3271ZM199.946 84.9637L195.849 89.0593C195.379 89.5293 194.62 89.5293 194.15 89.0593L190.053 84.9637C189.583 84.4937 189.583 83.7351 190.053 83.265L194.15 79.1695C194.62 78.6995 195.379 78.6995 195.849 79.1695L199.946 83.265C200.416 83.7351 200.416 84.4937 199.946 84.9637Z" fill="white"/>
<path d="M270.8 38.3726L264.69 44.4805C263.502 45.6673 263.502 47.5915 264.69 48.7783L270.8 54.8862C271.987 56.073 273.912 56.073 275.099 54.8862L281.209 48.7783C282.396 47.5915 282.396 45.6673 281.209 44.4805L275.099 38.3726C273.912 37.1858 271.987 37.1858 270.8 38.3726Z" fill="#466883"/>
<path d="M275.991 40.8433H269.906C268.388 40.8433 267.164 42.0719 267.164 43.5845V49.6672C267.164 51.1844 268.393 52.4084 269.906 52.4084H275.991C277.509 52.4084 278.733 51.1798 278.733 49.6672V43.5845C278.733 42.0673 277.504 40.8433 275.991 40.8433ZM277.895 47.4799L273.798 51.5754C273.328 52.0454 272.569 52.0454 272.099 51.5754L268.002 47.4799C267.532 47.0098 267.532 46.2512 268.002 45.7812L272.099 41.6856C272.569 41.2156 273.328 41.2156 273.798 41.6856L277.895 45.7812C278.365 46.2512 278.365 47.0098 277.895 47.4799Z" fill="white"/>
<path d="M270.8 75.856L264.69 81.9639C263.502 83.1507 263.502 85.0749 264.69 86.2617L270.8 92.3696C271.987 93.5564 273.912 93.5564 275.099 92.3696L281.209 86.2617C282.396 85.0749 282.396 83.1507 281.209 81.9639L275.099 75.856C273.912 74.6692 271.987 74.6692 270.8 75.856Z" fill="#466883"/>
<path d="M275.99 78.3267H269.905C268.387 78.3267 267.163 79.5553 267.163 81.0679V87.1506C267.163 88.6678 268.392 89.8918 269.905 89.8918H275.99C277.508 89.8918 278.732 88.6632 278.732 87.1506V81.0679C278.732 79.5507 277.503 78.3267 275.99 78.3267ZM277.894 84.9633L273.797 89.0588C273.327 89.5288 272.568 89.5288 272.098 89.0588L268.001 84.9633C267.531 84.4932 267.531 83.7346 268.001 83.2646L272.098 79.169C272.568 78.699 273.327 78.699 273.797 79.169L277.894 83.2646C278.364 83.7346 278.364 84.4932 277.894 84.9633Z" fill="white"/>
<path d="M348.748 38.3726L342.638 44.4805C341.451 45.6673 341.451 47.5915 342.638 48.7783L348.748 54.8862C349.935 56.073 351.86 56.073 353.047 54.8862L359.157 48.7783C360.344 47.5915 360.344 45.6673 359.157 44.4805L353.047 38.3726C351.86 37.1858 349.935 37.1858 348.748 38.3726Z" fill="#466883"/>
<path d="M353.943 40.8438H347.858C346.341 40.8438 345.116 42.0724 345.116 43.585V49.6677C345.116 51.1849 346.345 52.4089 347.858 52.4089H353.943C355.461 52.4089 356.685 51.1803 356.685 49.6677V43.585C356.685 42.0678 355.456 40.8438 353.943 40.8438ZM355.847 47.4803L351.75 51.5759C351.28 52.0459 350.521 52.0459 350.051 51.5759L345.954 47.4803C345.484 47.0103 345.484 46.2517 345.954 45.7816L350.051 41.6861C350.521 41.2161 351.28 41.2161 351.75 41.6861L355.847 45.7816C356.318 46.2517 356.318 47.0103 355.847 47.4803Z" fill="white"/>
<path d="M348.749 75.856L342.639 81.9639C341.452 83.1507 341.452 85.0749 342.639 86.2617L348.749 92.3696C349.936 93.5564 351.861 93.5564 353.048 92.3696L359.158 86.2617C360.345 85.0749 360.345 83.1507 359.158 81.9639L353.048 75.856C351.861 74.6692 349.936 74.6692 348.749 75.856Z" fill="#466883"/>
<path d="M353.944 78.3271H347.859C346.342 78.3271 345.117 79.5558 345.117 81.0684V87.1511C345.117 88.6683 346.346 89.8923 347.859 89.8923H353.944C355.462 89.8923 356.686 88.6637 356.686 87.1511V81.0684C356.686 79.5511 355.457 78.3271 353.944 78.3271ZM355.848 84.9637L351.751 89.0593C351.281 89.5293 350.522 89.5293 350.052 89.0593L345.955 84.9637C345.485 84.4937 345.485 83.7351 345.955 83.265L350.052 79.1695C350.522 78.6995 351.281 78.6995 351.751 79.1695L355.848 83.265C356.318 83.7351 356.318 84.4937 355.848 84.9637Z" fill="white"/>
<path d="M-2.02361 57.1114L-8.13354 63.2192C-9.32076 64.4061 -9.32077 66.3303 -8.13354 67.5171L-2.02361 73.625C-0.836376 74.8118 1.0885 74.8118 2.27573 73.625L8.38566 67.5171C9.57289 66.3303 9.57289 64.4061 8.38566 63.2192L2.27573 57.1114C1.0885 55.9245 -0.836376 55.9245 -2.02361 57.1114Z" fill="#466883"/>
<path d="M3.16388 59.585H-2.92095C-4.43867 59.585 -5.66309 60.8136 -5.66309 62.3262V68.4089C-5.66309 69.9261 -4.43401 71.1501 -2.92095 71.1501H3.16388C4.6816 71.1501 5.90601 69.9215 5.90601 68.4089V62.3262C5.90601 60.809 4.67694 59.585 3.16388 59.585ZM5.06801 66.2216L0.971106 70.3171C0.500893 70.7871 -0.257966 70.7871 -0.728179 70.3171L-4.82508 66.2216C-5.2953 65.7515 -5.2953 64.9929 -4.82508 64.5229L-0.728179 60.4273C-0.257966 59.9573 0.500893 59.9573 0.971106 60.4273L5.06801 64.5229C5.53822 64.9929 5.53822 65.7515 5.06801 66.2216Z" fill="white"/>
<path d="M-2.02263 94.5952L-8.13256 100.703C-9.31979 101.89 -9.31979 103.814 -8.13256 105.001L-2.02263 111.109C-0.835402 112.296 1.08948 112.296 2.2767 111.109L8.38663 105.001C9.57386 103.814 9.57386 101.89 8.38663 100.703L2.27671 94.5952C1.08948 93.4084 -0.8354 93.4084 -2.02263 94.5952Z" fill="#466883"/>
<path d="M3.16486 97.0688H-2.91998C-4.43769 97.0688 -5.66211 98.2975 -5.66211 99.8101V105.893C-5.66211 107.41 -4.43304 108.634 -2.91998 108.634H3.16486C4.68257 108.634 5.90699 107.405 5.90699 105.893V99.8101C5.90699 98.2928 4.67792 97.0688 3.16486 97.0688ZM5.06898 103.705L0.972083 107.801C0.50187 108.271 -0.256989 108.271 -0.727202 107.801L-4.82411 103.705C-5.29432 103.235 -5.29432 102.477 -4.82411 102.007L-0.727202 97.9112C-0.256989 97.4412 0.50187 97.4412 0.972083 97.9112L5.06898 102.007C5.5392 102.477 5.5392 103.235 5.06898 103.705Z" fill="white"/>
<path d="M75.9256 57.1158L69.8157 63.2236C68.6284 64.4105 68.6285 66.3347 69.8157 67.5215L75.9256 73.6294C77.1128 74.8162 79.0377 74.8162 80.2249 73.6294L86.3349 67.5215C87.5221 66.3347 87.5221 64.4105 86.3349 63.2236L80.2249 57.1158C79.0377 55.9289 77.1128 55.9289 75.9256 57.1158Z" fill="#466883"/>
<path d="M81.118 59.585H75.0331C73.5154 59.585 72.291 60.8136 72.291 62.3262V68.4089C72.291 69.9261 73.5201 71.1501 75.0331 71.1501H81.118C82.6357 71.1501 83.8601 69.9215 83.8601 68.4089V62.3262C83.8601 60.809 82.631 59.585 81.118 59.585ZM83.0221 66.2216L78.9252 70.3171C78.455 70.7871 77.6961 70.7871 77.2259 70.3171L73.129 66.2216C72.6588 65.7515 72.6588 64.9929 73.129 64.5229L77.2259 60.4273C77.6961 59.9573 78.455 59.9573 78.9252 60.4273L83.0221 64.5229C83.4923 64.9929 83.4923 65.7515 83.0221 66.2216Z" fill="white"/>
<path d="M75.9256 19.6324L69.8157 25.7402C68.6284 26.9271 68.6285 28.8513 69.8157 30.0381L75.9256 36.146C77.1128 37.3328 79.0377 37.3328 80.2249 36.146L86.3349 30.0381C87.5221 28.8513 87.5221 26.9271 86.3349 25.7402L80.2249 19.6324C79.0377 18.4455 77.1128 18.4455 75.9256 19.6324Z" fill="#466883"/>
<path d="M81.118 22.1021H75.0331C73.5154 22.1021 72.291 23.3307 72.291 24.8433V30.926C72.291 32.4432 73.5201 33.6672 75.0331 33.6672H81.118C82.6357 33.6672 83.8601 32.4386 83.8601 30.926V24.8433C83.8601 23.3261 82.631 22.1021 81.118 22.1021ZM83.0221 28.7386L78.9252 32.8342C78.455 33.3042 77.6961 33.3042 77.2259 32.8342L73.129 28.7386C72.6588 28.2686 72.6588 27.51 73.129 27.0399L77.2259 22.9444C77.6961 22.4744 78.455 22.4744 78.9252 22.9444L83.0221 27.0399C83.4923 27.51 83.4923 28.2686 83.0221 28.7386Z" fill="white"/>
<path d="M75.9256 94.5992L69.8157 100.707C68.6284 101.894 68.6285 103.818 69.8157 105.005L75.9256 111.113C77.1128 112.3 79.0377 112.3 80.2249 111.113L86.3349 105.005C87.5221 103.818 87.5221 101.894 86.3349 100.707L80.2249 94.5992C79.0377 93.4123 77.1128 93.4123 75.9256 94.5992Z" fill="#466883"/>
<path d="M81.118 97.0684H75.0331C73.5154 97.0684 72.291 98.297 72.291 99.8096V105.892C72.291 107.41 73.5201 108.634 75.0331 108.634H81.118C82.6357 108.634 83.8601 107.405 83.8601 105.892V99.8096C83.8601 98.2924 82.631 97.0684 81.118 97.0684ZM83.0221 103.705L78.9252 107.8C78.455 108.271 77.6961 108.271 77.2259 107.8L73.129 103.705C72.6588 103.235 72.6588 102.476 73.129 102.006L77.2259 97.9107C77.6961 97.4407 78.455 97.4407 78.9252 97.9107L83.0221 102.006C83.4923 102.476 83.4923 103.235 83.0221 103.705Z" fill="white"/>
<path d="M153.878 57.1123L147.768 63.2202C146.581 64.407 146.581 66.3313 147.768 67.5181L153.878 73.6259C155.065 74.8128 156.99 74.8128 158.177 73.6259L164.287 67.5181C165.474 66.3313 165.474 64.407 164.287 63.2202L158.177 57.1123C156.99 55.9255 155.065 55.9255 153.878 57.1123Z" fill="#466883"/>
<path d="M159.066 59.5854H152.981C151.464 59.5854 150.239 60.8141 150.239 62.3267V68.4094C150.239 69.9266 151.468 71.1506 152.981 71.1506H159.066C160.584 71.1506 161.808 69.922 161.808 68.4094V62.3267C161.808 60.8095 160.579 59.5854 159.066 59.5854ZM160.97 66.222L156.873 70.3176C156.403 70.7876 155.644 70.7876 155.174 70.3176L151.077 66.222C150.607 65.752 150.607 64.9934 151.077 64.5233L155.174 60.4278C155.644 59.9578 156.403 59.9578 156.873 60.4278L160.97 64.5233C161.441 64.9934 161.441 65.752 160.97 66.222Z" fill="white"/>
<path d="M153.877 19.6285L147.767 25.7363C146.58 26.9231 146.58 28.8474 147.767 30.0342L153.877 36.1421C155.064 37.3289 156.989 37.3289 158.176 36.1421L164.286 30.0342C165.473 28.8474 165.473 26.9231 164.286 25.7363L158.176 19.6285C156.989 18.4416 155.064 18.4416 153.877 19.6285Z" fill="#466883"/>
<path d="M159.065 22.1016H152.98C151.463 22.1016 150.238 23.3302 150.238 24.8428V30.9255C150.238 32.4427 151.467 33.6667 152.98 33.6667H159.065C160.583 33.6667 161.807 32.4381 161.807 30.9255V24.8428C161.807 23.3256 160.578 22.1016 159.065 22.1016ZM160.969 28.7382L156.872 32.8337C156.402 33.3037 155.643 33.3037 155.173 32.8337L151.076 28.7382C150.606 28.2681 150.606 27.5095 151.076 27.0395L155.173 22.9439C155.643 22.4739 156.402 22.4739 156.872 22.9439L160.969 27.0395C161.44 27.5095 161.44 28.2681 160.969 28.7382Z" fill="white"/>
<path d="M153.878 94.5957L147.768 100.704C146.581 101.89 146.581 103.815 147.768 105.001L153.878 111.109C155.065 112.296 156.99 112.296 158.177 111.109L164.287 105.001C165.474 103.815 165.474 101.89 164.287 100.704L158.177 94.5957C156.99 93.4089 155.065 93.4089 153.878 94.5957Z" fill="#466883"/>
<path d="M159.066 97.0684H152.981C151.464 97.0684 150.239 98.297 150.239 99.8096V105.892C150.239 107.41 151.468 108.634 152.981 108.634H159.066C160.584 108.634 161.808 107.405 161.808 105.892V99.8096C161.808 98.2924 160.579 97.0684 159.066 97.0684ZM160.97 103.705L156.873 107.8C156.403 108.271 155.644 108.271 155.174 107.8L151.077 103.705C150.607 103.235 150.607 102.476 151.077 102.006L155.174 97.9107C155.644 97.4407 156.403 97.4407 156.873 97.9107L160.97 102.006C161.441 102.476 161.441 103.235 160.97 103.705Z" fill="white"/>
<path d="M231.826 57.1118L225.716 63.2197C224.529 64.4065 224.529 66.3308 225.716 67.5176L231.826 73.6255C233.013 74.8123 234.938 74.8123 236.125 73.6254L242.235 67.5176C243.423 66.3308 243.422 64.4065 242.235 63.2197L236.125 57.1119C234.938 55.925 233.013 55.925 231.826 57.1118Z" fill="#466883"/>
<path d="M237.018 59.5854H230.934C229.416 59.5854 228.191 60.8141 228.191 62.3267V68.4094C228.191 69.9266 229.42 71.1506 230.934 71.1506H237.018C238.536 71.1506 239.76 69.922 239.76 68.4094V62.3267C239.76 60.8095 238.531 59.5854 237.018 59.5854ZM238.922 66.222L234.826 70.3176C234.355 70.7876 233.597 70.7876 233.126 70.3176L229.029 66.222C228.559 65.752 228.559 64.9934 229.029 64.5233L233.126 60.4278C233.597 59.9578 234.355 59.9578 234.826 60.4278L238.922 64.5233C239.393 64.9934 239.393 65.752 238.922 66.222Z" fill="white"/>
<path d="M231.826 19.6284L225.716 25.7363C224.529 26.9231 224.529 28.8474 225.716 30.0342L231.826 36.1421C233.013 37.3289 234.938 37.3289 236.125 36.142L242.235 30.0342C243.423 28.8474 243.422 26.9231 242.235 25.7363L236.125 19.6285C234.938 18.4416 233.013 18.4416 231.826 19.6284Z" fill="#466883"/>
<path d="M237.019 22.1021H230.935C229.417 22.1021 228.192 23.3307 228.192 24.8433V30.926C228.192 32.4432 229.421 33.6672 230.935 33.6672H237.019C238.537 33.6672 239.761 32.4386 239.761 30.926V24.8433C239.761 23.3261 238.532 22.1021 237.019 22.1021ZM238.923 28.7386L234.827 32.8342C234.356 33.3042 233.597 33.3042 233.127 32.8342L229.03 28.7386C228.56 28.2686 228.56 27.51 229.03 27.0399L233.127 22.9444C233.597 22.4744 234.356 22.4744 234.827 22.9444L238.923 27.0399C239.394 27.51 239.394 28.2686 238.923 28.7386Z" fill="white"/>
<path d="M231.826 94.5952L225.716 100.703C224.529 101.89 224.529 103.814 225.716 105.001L231.826 111.109C233.013 112.296 234.938 112.296 236.125 111.109L242.235 105.001C243.423 103.814 243.422 101.89 242.235 100.703L236.125 94.5953C234.938 93.4084 233.013 93.4084 231.826 94.5952Z" fill="#466883"/>
<path d="M237.018 97.0684H230.934C229.416 97.0684 228.191 98.297 228.191 99.8096V105.892C228.191 107.41 229.42 108.634 230.934 108.634H237.018C238.536 108.634 239.76 107.405 239.76 105.892V99.8096C239.76 98.2924 238.531 97.0684 237.018 97.0684ZM238.922 103.705L234.826 107.8C234.355 108.271 233.597 108.271 233.126 107.8L229.029 103.705C228.559 103.235 228.559 102.476 229.029 102.006L233.126 97.9107C233.597 97.4407 234.355 97.4407 234.826 97.9107L238.922 102.006C239.393 102.476 239.393 103.235 238.922 103.705Z" fill="white"/>
<path d="M309.778 57.1128L303.668 63.2207C302.481 64.4075 302.481 66.3317 303.668 67.5186L309.778 73.6264C310.965 74.8133 312.89 74.8132 314.077 73.6264L320.187 67.5186C321.375 66.3317 321.375 64.4075 320.187 63.2207L314.077 57.1128C312.89 55.926 310.965 55.926 309.778 57.1128Z" fill="#466883"/>
<path d="M314.968 59.5854H308.883C307.365 59.5854 306.141 60.8141 306.141 62.3267V68.4094C306.141 69.9266 307.37 71.1506 308.883 71.1506H314.968C316.485 71.1506 317.71 69.922 317.71 68.4094V62.3267C317.71 60.8095 316.481 59.5854 314.968 59.5854ZM316.872 66.222L312.775 70.3176C312.305 70.7876 311.546 70.7876 311.076 70.3176L306.979 66.222C306.508 65.752 306.508 64.9934 306.979 64.5233L311.076 60.4278C311.546 59.9578 312.305 59.9578 312.775 60.4278L316.872 64.5233C317.342 64.9934 317.342 65.752 316.872 66.222Z" fill="white"/>
<path d="M309.778 19.6294L303.668 25.7373C302.481 26.9241 302.481 28.8483 303.668 30.0352L309.778 36.143C310.965 37.3299 312.89 37.3298 314.077 36.143L320.187 30.0352C321.375 28.8483 321.375 26.9241 320.187 25.7373L314.077 19.6294C312.89 18.4426 310.965 18.4426 309.778 19.6294Z" fill="#466883"/>
<path d="M314.968 22.1021H308.883C307.365 22.1021 306.141 23.3307 306.141 24.8433V30.926C306.141 32.4432 307.37 33.6672 308.883 33.6672H314.968C316.485 33.6672 317.71 32.4386 317.71 30.926V24.8433C317.71 23.3261 316.481 22.1021 314.968 22.1021ZM316.872 28.7386L312.775 32.8342C312.305 33.3042 311.546 33.3042 311.076 32.8342L306.979 28.7386C306.508 28.2686 306.508 27.51 306.979 27.0399L311.076 22.9444C311.546 22.4744 312.305 22.4744 312.775 22.9444L316.872 27.0399C317.342 27.51 317.342 28.2686 316.872 28.7386Z" fill="white"/>
<path d="M309.778 94.5962L303.668 100.704C302.481 101.891 302.481 103.815 303.668 105.002L309.778 111.11C310.965 112.297 312.89 112.297 314.077 111.11L320.187 105.002C321.375 103.815 321.375 101.891 320.187 100.704L314.077 94.5962C312.89 93.4094 310.965 93.4094 309.778 94.5962Z" fill="#466883"/>
<path d="M314.967 97.0684H308.882C307.364 97.0684 306.14 98.297 306.14 99.8096V105.892C306.14 107.41 307.369 108.634 308.882 108.634H314.967C316.484 108.634 317.709 107.405 317.709 105.892V99.8096C317.709 98.2924 316.48 97.0684 314.967 97.0684ZM316.871 103.705L312.774 107.8C312.304 108.271 311.545 108.271 311.075 107.8L306.978 103.705C306.507 103.235 306.507 102.476 306.978 102.006L311.075 97.9107C311.545 97.4407 312.304 97.4407 312.774 97.9107L316.871 102.006C317.341 102.476 317.341 103.235 316.871 103.705Z" fill="white"/>
<path d="M387.726 57.1123L381.616 63.2202C380.429 64.407 380.429 66.3313 381.616 67.5181L387.726 73.6259C388.914 74.8128 390.839 74.8128 392.026 73.6259L398.136 67.5181C399.323 66.3312 399.323 64.407 398.136 63.2202L392.026 57.1123C390.838 55.9255 388.914 55.9255 387.726 57.1123Z" fill="#466883"/>
<path d="M392.915 59.5854H386.83C385.312 59.5854 384.088 60.8141 384.088 62.3267V68.4094C384.088 69.9266 385.317 71.1506 386.83 71.1506H392.915C394.433 71.1506 395.657 69.922 395.657 68.4094V62.3267C395.657 60.8095 394.428 59.5854 392.915 59.5854ZM394.819 66.222L390.722 70.3176C390.252 70.7876 389.493 70.7876 389.023 70.3176L384.926 66.222C384.456 65.752 384.456 64.9934 384.926 64.5233L389.023 60.4278C389.493 59.9578 390.252 59.9578 390.722 60.4278L394.819 64.5233C395.289 64.9934 395.289 65.752 394.819 66.222Z" fill="white"/>
<path d="M387.727 94.5957L381.617 100.704C380.43 101.89 380.43 103.815 381.617 105.001L387.727 111.109C388.915 112.296 390.839 112.296 392.027 111.109L398.137 105.001C399.324 103.815 399.324 101.89 398.137 100.704L392.027 94.5957C390.839 93.4089 388.915 93.4089 387.727 94.5957Z" fill="#466883"/>
<path d="M392.916 97.0684H386.831C385.313 97.0684 384.089 98.297 384.089 99.8096V105.892C384.089 107.41 385.318 108.634 386.831 108.634H392.916C394.434 108.634 395.658 107.405 395.658 105.892V99.8096C395.658 98.2924 394.429 97.0684 392.916 97.0684ZM394.82 103.705L390.723 107.8C390.253 108.271 389.494 108.271 389.024 107.8L384.927 103.705C384.457 103.235 384.457 102.476 384.927 102.006L389.024 97.9107C389.494 97.4407 390.253 97.4407 390.723 97.9107L394.82 102.006C395.29 102.476 395.29 103.235 394.82 103.705Z" fill="white"/>
<path d="M348.749 113.116L342.639 119.224C341.452 120.411 341.452 122.335 342.639 123.522L348.749 129.63C349.936 130.817 351.861 130.817 353.048 129.63L359.158 123.522C360.345 122.335 360.345 120.411 359.158 119.224L353.048 113.116C351.861 111.929 349.936 111.929 348.749 113.116Z" fill="#466883"/>
<path d="M347.858 127.152H353.943C355.461 127.152 356.685 125.923 356.685 124.411V118.328C356.685 116.811 355.456 115.587 353.943 115.587H347.858C346.341 115.587 345.116 116.816 345.116 118.328V124.411C345.116 125.928 346.345 127.152 347.858 127.152ZM345.954 120.516L350.051 116.42C350.521 115.95 351.28 115.95 351.75 116.42L355.847 120.516C356.318 120.986 356.318 121.744 355.847 122.214L351.75 126.31C351.28 126.78 350.521 126.78 350.051 126.31L345.954 122.214C345.484 121.744 345.484 120.986 345.954 120.516Z" fill="white"/>
<path d="M270.801 113.112L264.691 119.22C263.503 120.407 263.503 122.331 264.691 123.518L270.801 129.625C271.988 130.812 273.913 130.812 275.1 129.625L281.21 123.518C282.397 122.331 282.397 120.407 281.21 119.22L275.1 113.112C273.913 111.925 271.988 111.925 270.801 113.112Z" fill="#466883"/>
<path d="M269.906 127.152H275.991C277.509 127.152 278.733 125.923 278.733 124.41V118.328C278.733 116.81 277.504 115.586 275.991 115.586H269.906C268.388 115.586 267.164 116.815 267.164 118.328V124.41C267.164 125.928 268.393 127.152 269.906 127.152ZM268.002 120.515L272.099 116.419C272.569 115.949 273.328 115.949 273.798 116.419L277.895 120.515C278.365 120.985 278.365 121.744 277.895 122.214L273.798 126.309C273.328 126.779 272.569 126.779 272.099 126.309L268.002 122.214C267.532 121.744 267.532 120.985 268.002 120.515Z" fill="white"/>
<path d="M192.848 113.116L186.739 119.224C185.551 120.41 185.551 122.335 186.739 123.521L192.848 129.629C194.036 130.816 195.961 130.816 197.148 129.629L203.258 123.522C204.445 122.335 204.445 120.41 203.258 119.224L197.148 113.116C195.961 111.929 194.036 111.929 192.848 113.116Z" fill="#466883"/>
<path d="M191.958 127.152H198.043C199.561 127.152 200.785 125.923 200.785 124.411V118.328C200.785 116.811 199.556 115.587 198.043 115.587H191.958C190.44 115.587 189.216 116.816 189.216 118.328V124.411C189.216 125.928 190.445 127.152 191.958 127.152ZM190.054 120.516L194.151 116.42C194.621 115.95 195.38 115.95 195.85 116.42L199.947 120.516C200.417 120.986 200.417 121.744 199.947 122.214L195.85 126.31C195.38 126.78 194.621 126.78 194.151 126.31L190.054 122.214C189.584 121.744 189.584 120.986 190.054 120.516Z" fill="white"/>
<path d="M192.848 150.599L186.739 156.707C185.551 157.894 185.551 159.818 186.739 161.005L192.848 167.113C194.036 168.3 195.961 168.3 197.148 167.113L203.258 161.005C204.445 159.818 204.445 157.894 203.258 156.707L197.148 150.599C195.961 149.412 194.036 149.412 192.848 150.599Z" fill="#466883"/>
<path d="M191.958 164.635H198.043C199.561 164.635 200.785 163.406 200.785 161.894V155.811C200.785 154.294 199.556 153.07 198.043 153.07H191.958C190.44 153.07 189.216 154.298 189.216 155.811V161.894C189.216 163.411 190.445 164.635 191.958 164.635ZM190.054 157.998L194.151 153.903C194.621 153.433 195.38 153.433 195.85 153.903L199.947 157.998C200.417 158.468 200.417 159.227 199.947 159.697L195.85 163.793C195.38 164.263 194.621 164.263 194.151 163.793L190.054 159.697C189.584 159.227 189.584 158.468 190.054 157.998Z" fill="white"/>
<path d="M114.899 113.116L108.789 119.224C107.602 120.411 107.602 122.335 108.789 123.522L114.899 129.63C116.086 130.817 118.011 130.817 119.199 129.63L125.309 123.522C126.496 122.335 126.496 120.411 125.309 119.224L119.199 113.116C118.011 111.929 116.086 111.929 114.899 113.116Z" fill="#466883"/>
<path d="M114.004 127.152H120.089C121.606 127.152 122.831 125.923 122.831 124.411V118.328C122.831 116.811 121.602 115.587 120.089 115.587H114.004C112.486 115.587 111.262 116.816 111.262 118.328V124.411C111.262 125.928 112.491 127.152 114.004 127.152ZM112.1 120.516L116.197 116.42C116.667 115.95 117.426 115.95 117.896 116.42L121.993 120.516C122.463 120.986 122.463 121.744 121.993 122.214L117.896 126.31C117.426 126.78 116.667 126.78 116.197 126.31L112.1 122.214C111.63 121.744 111.63 120.986 112.1 120.516Z" fill="white"/>
<path d="M36.951 113.112L30.8411 119.22C29.6538 120.407 29.6538 122.331 30.8411 123.518L36.951 129.625C38.1382 130.812 40.0631 130.812 41.2503 129.625L47.3603 123.518C48.5475 122.331 48.5475 120.407 47.3603 119.22L41.2503 113.112C40.0631 111.925 38.1382 111.925 36.951 113.112Z" fill="#466883"/>
<path d="M36.0566 127.152H42.1414C43.6591 127.152 44.8835 125.923 44.8835 124.411V118.328C44.8835 116.811 43.6545 115.587 42.1414 115.587H36.0566C34.5389 115.587 33.3145 116.816 33.3145 118.328V124.411C33.3145 125.928 34.5435 127.152 36.0566 127.152ZM34.1525 120.516L38.2494 116.42C38.7196 115.95 39.4784 115.95 39.9486 116.42L44.0456 120.516C44.5158 120.986 44.5158 121.744 44.0456 122.214L39.9486 126.31C39.4784 126.78 38.7196 126.78 38.2494 126.31L34.1525 122.214C33.6822 121.744 33.6822 120.986 34.1525 120.516Z" fill="white"/>
<path d="M309.779 131.852L303.669 137.96C302.482 139.147 302.482 141.071 303.669 142.258L309.779 148.366C310.966 149.553 312.891 149.553 314.078 148.366L320.188 142.258C321.376 141.071 321.376 139.147 320.188 137.96L314.078 131.852C312.891 130.665 310.966 130.665 309.779 131.852Z" fill="#466883"/>
<path d="M308.883 145.894H314.968C316.485 145.894 317.71 144.665 317.71 143.153V137.07C317.71 135.553 316.481 134.329 314.968 134.329H308.883C307.365 134.329 306.141 135.557 306.141 137.07V143.153C306.141 144.67 307.37 145.894 308.883 145.894ZM306.979 139.257L311.076 135.162C311.546 134.692 312.305 134.692 312.775 135.162L316.872 139.257C317.342 139.727 317.342 140.486 316.872 140.956L312.775 145.051C312.305 145.521 311.546 145.521 311.076 145.051L306.979 140.956C306.508 140.486 306.508 139.727 306.979 139.257Z" fill="white"/>
<path d="M231.827 131.855L225.717 137.963C224.53 139.15 224.53 141.074 225.717 142.261L231.827 148.369C233.014 149.556 234.939 149.556 236.126 148.369L242.236 142.261C243.423 141.074 243.423 139.15 242.236 137.963L236.126 131.856C234.939 130.669 233.014 130.669 231.827 131.855Z" fill="#466883"/>
<path d="M230.935 145.893H237.019C238.537 145.893 239.761 144.665 239.761 143.152V137.069C239.761 135.552 238.532 134.328 237.019 134.328H230.935C229.417 134.328 228.192 135.557 228.192 137.069V143.152C228.192 144.669 229.421 145.893 230.935 145.893ZM229.03 139.257L233.127 135.161C233.597 134.691 234.356 134.691 234.827 135.161L238.923 139.257C239.394 139.727 239.394 140.485 238.923 140.955L234.827 145.051C234.356 145.521 233.597 145.521 233.127 145.051L229.03 140.955C228.56 140.485 228.56 139.727 229.03 139.257Z" fill="white"/>
<path d="M153.878 131.856L147.768 137.964C146.581 139.151 146.581 141.075 147.768 142.262L153.878 148.37C155.065 149.556 156.99 149.556 158.177 148.37L164.287 142.262C165.474 141.075 165.474 139.151 164.287 137.964L158.177 131.856C156.99 130.669 155.065 130.669 153.878 131.856Z" fill="#466883"/>
<path d="M152.98 145.894H159.065C160.583 145.894 161.807 144.665 161.807 143.153V137.07C161.807 135.553 160.578 134.329 159.065 134.329H152.98C151.463 134.329 150.238 135.557 150.238 137.07V143.153C150.238 144.67 151.467 145.894 152.98 145.894ZM151.076 139.257L155.173 135.162C155.643 134.692 156.402 134.692 156.872 135.162L160.969 139.257C161.44 139.727 161.44 140.486 160.969 140.956L156.872 145.051C156.402 145.521 155.643 145.521 155.173 145.051L151.076 140.956C150.606 140.486 150.606 139.727 151.076 139.257Z" fill="white"/>
<path d="M75.9266 131.855L69.8167 137.963C68.6294 139.15 68.6294 141.074 69.8167 142.261L75.9266 148.369C77.1138 149.555 79.0387 149.555 80.2259 148.369L86.3358 142.261C87.5231 141.074 87.5231 139.15 86.3358 137.963L80.2259 131.855C79.0387 130.668 77.1138 130.668 75.9266 131.855Z" fill="#466883"/>
<path d="M75.0331 145.893H81.118C82.6357 145.893 83.8601 144.665 83.8601 143.152V137.069C83.8601 135.552 82.631 134.328 81.118 134.328H75.0331C73.5154 134.328 72.291 135.557 72.291 137.069V143.152C72.291 144.669 73.5201 145.893 75.0331 145.893ZM73.129 139.257L77.2259 135.161C77.6961 134.691 78.455 134.691 78.9252 135.161L83.0221 139.257C83.4923 139.727 83.4923 140.485 83.0221 140.955L78.9252 145.051C78.455 145.521 77.6961 145.521 77.2259 145.051L73.129 140.955C72.6588 140.485 72.6588 139.727 73.129 139.257Z" fill="white"/>
</g>
<defs>
<clipPath id="clip0_155_38109">
<rect width="486" height="168" fill="white" transform="translate(-48)"/>
</clipPath>
</defs>
</svg>
