<svg width="720" height="249" viewBox="0 0 720 249" fill="none" xmlns="http://www.w3.org/2000/svg">
<g clip-path="url(#clip0_145_17491)">
<path d="M125.852 56.7176L116.801 65.7466C115.042 67.5011 115.042 70.3456 116.801 72.1L125.852 81.129C127.611 82.8835 130.463 82.8835 132.222 81.129L141.274 72.1C143.032 70.3456 143.032 67.5011 141.274 65.7466L132.222 56.7176C130.463 54.9632 127.611 54.9632 125.852 56.7176Z" fill="#466883"/>
<path d="M133.543 60.377H124.528C122.28 60.377 120.466 62.1932 120.466 64.4292V73.4211C120.466 75.6639 122.286 77.4733 124.528 77.4733H133.543C135.791 77.4733 137.605 75.657 137.605 73.4211V64.4292C137.605 62.1863 135.784 60.377 133.543 60.377ZM136.363 70.1876L130.294 76.2418C129.597 76.9367 128.473 76.9367 127.777 76.2418L121.707 70.1876C121.01 69.4927 121.01 68.3713 121.707 67.6764L127.777 61.6222C128.473 60.9273 129.597 60.9273 130.294 61.6222L136.363 67.6764C137.06 68.3713 137.06 69.4927 136.363 70.1876Z" fill="white"/>
<path d="M125.853 112.128L116.801 121.157C115.042 122.912 115.042 125.756 116.801 127.511L125.853 136.54C127.612 138.294 130.463 138.294 132.222 136.54L141.274 127.511C143.033 125.756 143.033 122.912 141.274 121.157L132.222 112.128C130.463 110.374 127.612 110.374 125.853 112.128Z" fill="#466883"/>
<path d="M133.543 115.788H124.528C122.28 115.788 120.466 117.604 120.466 119.84V128.832C120.466 131.075 122.286 132.884 124.528 132.884H133.543C135.791 132.884 137.605 131.068 137.605 128.832V119.84C137.605 117.597 135.784 115.788 133.543 115.788ZM136.363 125.598L130.294 131.652C129.597 132.347 128.473 132.347 127.777 131.652L121.707 125.598C121.01 124.903 121.01 123.782 121.707 123.087L127.777 117.033C128.473 116.338 129.597 116.338 130.294 117.033L136.363 123.087C137.06 123.782 137.06 124.903 136.363 125.598Z" fill="white"/>
<path d="M241.332 56.724L232.28 65.753C230.521 67.5074 230.521 70.3519 232.28 72.1064L241.332 81.1354C243.091 82.8898 245.942 82.8898 247.701 81.1354L256.753 72.1064C258.512 70.3519 258.512 67.5074 256.753 65.753L247.701 56.724C245.942 54.9695 243.091 54.9695 241.332 56.724Z" fill="#466883"/>
<path d="M249.021 60.377H240.007C237.758 60.377 235.944 62.1932 235.944 64.4292V73.4211C235.944 75.6639 237.765 77.4733 240.007 77.4733H249.021C251.27 77.4733 253.084 75.657 253.084 73.4211V64.4292C253.084 62.1863 251.263 60.377 249.021 60.377ZM251.842 70.1876L245.773 76.2418C245.076 76.9367 243.952 76.9367 243.255 76.2418L237.186 70.1876C236.489 69.4927 236.489 68.3713 237.186 67.6764L243.255 61.6222C243.952 60.9273 245.076 60.9273 245.773 61.6222L251.842 67.6764C252.539 68.3713 252.539 69.4927 251.842 70.1876Z" fill="white"/>
<path d="M241.332 112.135L232.28 121.164C230.522 122.918 230.522 125.763 232.28 127.517L241.332 136.546C243.091 138.3 245.943 138.3 247.702 136.546L256.753 127.517C258.512 125.763 258.512 122.918 256.753 121.164L247.702 112.135C245.943 110.38 243.091 110.38 241.332 112.135Z" fill="#466883"/>
<path d="M249.021 115.788H240.007C237.758 115.788 235.944 117.604 235.944 119.84V128.832C235.944 131.075 237.765 132.884 240.007 132.884H249.021C251.27 132.884 253.084 131.068 253.084 128.832V119.84C253.084 117.597 251.263 115.788 249.021 115.788ZM251.842 125.598L245.773 131.652C245.076 132.347 243.952 132.347 243.255 131.652L237.186 125.598C236.489 124.903 236.489 123.782 237.186 123.087L243.255 117.033C243.952 116.338 245.076 116.338 245.773 117.033L251.842 123.087C252.539 123.782 252.539 124.903 251.842 125.598Z" fill="white"/>
<path d="M10.3682 112.134L1.31647 121.163C-0.44239 122.917 -0.44239 125.762 1.31647 127.516L10.3682 136.545C12.1271 138.299 14.9787 138.299 16.7376 136.545L25.7893 127.516C27.5482 125.762 27.5482 122.917 25.7893 121.163L16.7376 112.134C14.9787 110.379 12.1271 110.379 10.3682 112.134Z" fill="#466883"/>
<path d="M18.0636 115.788H9.04905C6.80058 115.788 4.98663 117.604 4.98663 119.84V128.832C4.98663 131.075 6.80748 132.884 9.04905 132.884H18.0636C20.3121 132.884 22.126 131.068 22.126 128.832V119.84C22.126 117.597 20.3052 115.788 18.0636 115.788ZM20.8846 125.598L14.8151 131.652C14.1185 132.347 12.9942 132.347 12.2976 131.652L6.22812 125.598C5.53151 124.903 5.53151 123.782 6.22812 123.087L12.2976 117.033C12.9942 116.338 14.1185 116.338 14.8151 117.033L20.8846 123.087C21.5812 123.782 21.5812 124.903 20.8846 125.598Z" fill="white"/>
<path d="M356.811 56.7235L347.76 65.7525C346.001 67.507 346.001 70.3515 347.76 72.1059L356.811 81.1349C358.57 82.8893 361.422 82.8894 363.181 81.1349L372.233 72.1059C373.991 70.3515 373.991 67.5069 372.233 65.7525L363.181 56.7235C361.422 54.9691 358.57 54.9691 356.811 56.7235Z" fill="#466883"/>
<path d="M364.507 60.3774H355.493C353.244 60.3774 351.43 62.1937 351.43 64.4297V73.4216C351.43 75.6644 353.251 77.4738 355.493 77.4738H364.507C366.756 77.4738 368.57 75.6575 368.57 73.4216V64.4297C368.57 62.1868 366.749 60.3774 364.507 60.3774ZM367.328 70.1881L361.259 76.2423C360.562 76.9372 359.438 76.9372 358.741 76.2423L352.672 70.1881C351.975 69.4932 351.975 68.3718 352.672 67.6769L358.741 61.6227C359.438 60.9278 360.562 60.9278 361.259 61.6227L367.328 67.6769C368.025 68.3718 368.025 69.4932 367.328 70.1881Z" fill="white"/>
<path d="M356.811 1.31335L347.759 10.3424C346.001 12.0968 346.001 14.9413 347.759 16.6957L356.811 25.7247C358.57 27.4792 361.422 27.4792 363.181 25.7248L372.232 16.6958C373.991 14.9413 373.991 12.0968 372.232 10.3423L363.181 1.31334C361.422 -0.441099 358.57 -0.441085 356.811 1.31335Z" fill="#466883"/>
<path d="M364.507 4.96729H355.493C353.244 4.96729 351.43 6.78356 351.43 9.0195V18.0114C351.43 20.2543 353.251 22.0636 355.493 22.0636H364.507C366.756 22.0636 368.57 20.2474 368.57 18.0114V9.02638C368.57 6.78356 366.749 4.97417 364.507 4.97417V4.96729ZM367.328 14.7779L361.259 20.8322C360.562 21.527 359.438 21.527 358.741 20.8322L352.672 14.7779C351.975 14.0831 351.975 12.9616 352.672 12.2668L358.741 6.21253C359.438 5.51767 360.562 5.51767 361.259 6.21253L367.328 12.2668C368.025 12.9616 368.025 14.0831 367.328 14.7779Z" fill="white"/>
<path d="M356.812 112.134L347.76 121.163C346.001 122.917 346.001 125.762 347.76 127.516L356.812 136.545C358.571 138.299 361.422 138.3 363.181 136.545L372.233 127.516C373.992 125.762 373.992 122.917 372.233 121.163L363.181 112.134C361.422 110.379 358.571 110.379 356.812 112.134Z" fill="#466883"/>
<path d="M364.507 115.787H355.493C353.244 115.787 351.43 117.603 351.43 119.839V128.831C351.43 131.074 353.251 132.883 355.493 132.883H364.507C366.756 132.883 368.57 131.067 368.57 128.831V119.839C368.57 117.597 366.749 115.787 364.507 115.787ZM367.328 125.598L361.259 131.652C360.562 132.347 359.438 132.347 358.741 131.652L352.672 125.598C351.975 124.903 351.975 123.781 352.672 123.087L358.741 117.032C359.438 116.337 360.562 116.337 361.259 117.032L367.328 123.087C368.025 123.781 368.025 124.903 367.328 125.598Z" fill="white"/>
<path d="M472.296 56.725L463.244 65.754C461.485 67.5084 461.485 70.3529 463.244 72.1074L472.296 81.1364C474.055 82.8908 476.906 82.8908 478.665 81.1364L487.717 72.1074C489.476 70.3529 489.476 67.5084 487.717 65.754L478.665 56.725C476.906 54.9705 474.055 54.9705 472.296 56.725Z" fill="#466883"/>
<path d="M479.986 60.3774H470.972C468.723 60.3774 466.909 62.1937 466.909 64.4297V73.4216C466.909 75.6644 468.73 77.4738 470.972 77.4738H479.986C482.235 77.4738 484.049 75.6575 484.049 73.4216V64.4297C484.049 62.1868 482.228 60.3774 479.986 60.3774ZM482.807 70.1881L476.738 76.2423C476.041 76.9372 474.917 76.9372 474.22 76.2423L468.151 70.1881C467.454 69.4932 467.454 68.3718 468.151 67.6769L474.22 61.6227C474.917 60.9278 476.041 60.9278 476.738 61.6227L482.807 67.6769C483.504 68.3718 483.504 69.4932 482.807 70.1881Z" fill="white"/>
<path d="M472.296 112.135L463.244 121.164C461.486 122.919 461.486 125.763 463.244 127.518L472.296 136.547C474.055 138.301 476.907 138.301 478.666 136.547L487.717 127.518C489.476 125.763 489.476 122.919 487.717 121.164L478.666 112.135C476.907 110.381 474.055 110.381 472.296 112.135Z" fill="#466883"/>
<path d="M479.986 115.787H470.972C468.723 115.787 466.909 117.603 466.909 119.839V128.831C466.909 131.074 468.73 132.883 470.972 132.883H479.986C482.235 132.883 484.049 131.067 484.049 128.831V119.839C484.049 117.597 482.228 115.787 479.986 115.787ZM482.807 125.598L476.738 131.652C476.041 132.347 474.917 132.347 474.22 131.652L468.151 125.598C467.454 124.903 467.454 123.781 468.151 123.087L474.22 117.032C474.917 116.337 476.041 116.337 476.738 117.032L482.807 123.087C483.504 123.781 483.504 124.903 482.807 125.598Z" fill="white"/>
<path d="M587.775 56.7245L578.724 65.7535C576.965 67.5079 576.965 70.3524 578.724 72.1069L587.775 81.1359C589.534 82.8903 592.386 82.8903 594.145 81.1359L603.196 72.1069C604.955 70.3524 604.955 67.5079 603.197 65.7535L594.145 56.7245C592.386 54.97 589.534 54.97 587.775 56.7245Z" fill="#466883"/>
<path d="M595.472 60.3774H586.457C584.209 60.3774 582.395 62.1937 582.395 64.4297V73.4216C582.395 75.6644 584.216 77.4738 586.457 77.4738H595.472C597.72 77.4738 599.534 75.6575 599.534 73.4216V64.4297C599.534 62.1868 597.714 60.3774 595.472 60.3774ZM598.293 70.1881L592.223 76.2423C591.527 76.9372 590.403 76.9372 589.706 76.2423L583.636 70.1881C582.94 69.4932 582.94 68.3718 583.636 67.6769L589.706 61.6227C590.403 60.9278 591.527 60.9278 592.223 61.6227L598.293 67.6769C598.99 68.3718 598.99 69.4932 598.293 70.1881Z" fill="white"/>
<path d="M587.776 112.135L578.724 121.164C576.965 122.918 576.965 125.763 578.724 127.517L587.776 136.546C589.534 138.3 592.386 138.3 594.145 136.546L603.197 127.517C604.956 125.763 604.956 122.918 603.197 121.164L594.145 112.135C592.386 110.38 589.534 110.38 587.776 112.135Z" fill="#466883"/>
<path d="M595.472 115.788H586.457C584.209 115.788 582.395 117.604 582.395 119.84V128.832C582.395 131.075 584.216 132.884 586.457 132.884H595.472C597.72 132.884 599.534 131.068 599.534 128.832V119.84C599.534 117.597 597.714 115.788 595.472 115.788ZM598.293 125.598L592.223 131.652C591.527 132.347 590.403 132.347 589.706 131.652L583.636 125.598C582.94 124.903 582.94 123.782 583.636 123.087L589.706 117.033C590.403 116.338 591.527 116.338 592.223 117.033L598.293 123.087C598.99 123.782 598.99 124.903 598.293 125.598Z" fill="white"/>
<path d="M703.26 112.129L694.208 121.158C692.45 122.913 692.45 125.757 694.208 127.512L703.26 136.541C705.019 138.295 707.871 138.295 709.629 136.541L718.681 127.512C720.44 125.757 720.44 122.913 718.681 121.158L709.629 112.129C707.871 110.375 705.019 110.375 703.26 112.129Z" fill="#466883"/>
<path d="M710.951 115.788H701.936C699.688 115.788 697.874 117.604 697.874 119.84V128.832C697.874 131.075 699.695 132.884 701.936 132.884H710.951C713.199 132.884 715.013 131.068 715.013 128.832V119.84C715.013 117.597 713.193 115.788 710.951 115.788ZM713.772 125.598L707.702 131.652C707.006 132.347 705.882 132.347 705.185 131.652L699.116 125.598C698.419 124.903 698.419 123.782 699.116 123.087L705.185 117.033C705.882 116.338 707.006 116.338 707.702 117.033L713.772 123.087C714.469 123.782 714.469 124.903 713.772 125.598Z" fill="white"/>
<path d="M68.1138 84.4256L59.062 93.4547C57.3032 95.2091 57.3032 98.0536 59.062 99.808L68.1138 108.837C69.8726 110.591 72.7243 110.591 74.4831 108.837L83.5349 99.808C85.2938 98.0536 85.2938 95.2091 83.5349 93.4547L74.4831 84.4256C72.7243 82.6712 69.8726 82.6712 68.1138 84.4256Z" fill="#466883"/>
<path d="M75.7996 88.082H66.7851C64.5366 88.082 62.7227 89.8983 62.7227 92.1342V101.126C62.7227 103.369 64.5435 105.178 66.7851 105.178H75.7996C78.0481 105.178 79.8621 103.362 79.8621 101.126V92.1342C79.8621 89.8914 78.0412 88.082 75.7996 88.082ZM78.6206 97.8927L72.5511 103.947C71.8545 104.642 70.7302 104.642 70.0336 103.947L63.9641 97.8927C63.2675 97.1978 63.2675 96.0764 63.9641 95.3815L70.0336 89.3273C70.7302 88.6324 71.8545 88.6324 72.5511 89.3273L78.6206 95.3815C79.3172 96.0764 79.3172 97.1978 78.6206 97.8927Z" fill="white"/>
<path d="M68.114 139.836L59.0623 148.865C57.3034 150.62 57.3034 153.464 59.0623 155.219L68.114 164.248C69.8729 166.002 72.7245 166.002 74.4834 164.248L83.5351 155.219C85.294 153.464 85.294 150.62 83.5351 148.865L74.4834 139.836C72.7245 138.082 69.8729 138.082 68.114 139.836Z" fill="#466883"/>
<path d="M75.7996 143.493H66.7851C64.5366 143.493 62.7227 145.309 62.7227 147.545V156.537C62.7227 158.78 64.5435 160.589 66.7851 160.589H75.7996C78.0481 160.589 79.8621 158.773 79.8621 156.537V147.545C79.8621 145.302 78.0412 143.493 75.7996 143.493ZM78.6206 153.303L72.5511 159.358C71.8545 160.052 70.7302 160.052 70.0336 159.358L63.9641 153.303C63.2675 152.608 63.2675 151.487 63.9641 150.792L70.0336 144.738C70.7302 144.043 71.8545 144.043 72.5511 144.738L78.6206 150.792C79.3172 151.487 79.3172 152.608 78.6206 153.303Z" fill="white"/>
<path d="M183.593 84.432L174.541 93.461C172.783 95.2154 172.783 98.0599 174.542 99.8144L183.593 108.843C185.352 110.598 188.204 110.598 189.963 108.843L199.014 99.8144C200.773 98.06 200.773 95.2155 199.014 93.461L189.963 84.432C188.204 82.6776 185.352 82.6776 183.593 84.432Z" fill="#466883"/>
<path d="M191.285 88.0825H182.271C180.022 88.0825 178.208 89.8988 178.208 92.1347V101.127C178.208 103.369 180.029 105.179 182.271 105.179H191.285C193.534 105.179 195.348 103.363 195.348 101.127V92.1347C195.348 89.8919 193.527 88.0825 191.285 88.0825ZM194.106 97.8931L188.037 103.947C187.34 104.642 186.216 104.642 185.519 103.947L179.45 97.8931C178.753 97.1983 178.753 96.0769 179.45 95.382L185.519 89.3278C186.216 88.6329 187.34 88.6329 188.037 89.3278L194.106 95.382C194.803 96.0769 194.803 97.1983 194.106 97.8931Z" fill="white"/>
<path d="M183.593 29.0218L174.541 38.0509C172.782 39.8053 172.782 42.6498 174.541 44.4042L183.593 53.4332C185.352 55.1877 188.204 55.1877 189.962 53.4333L199.014 44.4042C200.773 42.6498 200.773 39.8053 199.014 38.0509L189.962 29.0218C188.204 27.2674 185.352 27.2674 183.593 29.0218Z" fill="#466883"/>
<path d="M191.285 32.6724H182.271C180.022 32.6724 178.208 34.4886 178.208 36.7246V45.7165C178.208 47.9593 180.029 49.7687 182.271 49.7687H191.285C193.534 49.7687 195.348 47.9524 195.348 45.7165V36.7246C195.348 34.4818 193.527 32.6724 191.285 32.6724ZM194.106 42.483L188.037 48.5372C187.34 49.2321 186.216 49.2321 185.519 48.5372L179.45 42.483C178.753 41.7881 178.753 40.6667 179.45 39.9719L185.519 33.9176C186.216 33.2227 187.34 33.2227 188.037 33.9176L194.106 39.9719C194.803 40.6667 194.803 41.7881 194.106 42.483Z" fill="white"/>
<path d="M183.594 139.843L174.542 148.872C172.783 150.626 172.783 153.471 174.542 155.225L183.594 164.254C185.352 166.008 188.204 166.008 189.963 164.254L199.015 155.225C200.774 153.471 200.774 150.626 199.015 148.872L189.963 139.843C188.204 138.088 185.352 138.088 183.594 139.843Z" fill="#466883"/>
<path d="M191.285 143.493H182.271C180.022 143.493 178.208 145.309 178.208 147.545V156.537C178.208 158.78 180.029 160.589 182.271 160.589H191.285C193.534 160.589 195.348 158.773 195.348 156.537V147.545C195.348 145.302 193.527 143.493 191.285 143.493ZM194.106 153.303L188.037 159.358C187.34 160.052 186.216 160.052 185.519 159.358L179.45 153.303C178.753 152.608 178.753 151.487 179.45 150.792L185.519 144.738C186.216 144.043 187.34 144.043 188.037 144.738L194.106 150.792C194.803 151.487 194.803 152.608 194.106 153.303Z" fill="white"/>
<path d="M299.078 84.4266L290.026 93.4556C288.267 95.2101 288.267 98.0546 290.026 99.809L299.078 108.838C300.837 110.592 303.688 110.592 305.447 108.838L314.499 99.809C316.258 98.0546 316.258 95.2101 314.499 93.4556L305.447 84.4266C303.688 82.6722 300.837 82.6722 299.078 84.4266Z" fill="#466883"/>
<path d="M306.764 88.0825H297.75C295.501 88.0825 293.687 89.8988 293.687 92.1347V101.127C293.687 103.369 295.508 105.179 297.75 105.179H306.764C309.013 105.179 310.827 103.363 310.827 101.127V92.1347C310.827 89.8919 309.006 88.0825 306.764 88.0825ZM309.585 97.8931L303.516 103.947C302.819 104.642 301.695 104.642 300.998 103.947L294.929 97.8931C294.232 97.1983 294.232 96.0769 294.929 95.382L300.998 89.3278C301.695 88.6329 302.819 88.6329 303.516 89.3278L309.585 95.382C310.282 96.0769 310.282 97.1983 309.585 97.8931Z" fill="white"/>
<path d="M299.078 29.0165L290.026 38.0455C288.267 39.7999 288.267 42.6444 290.026 44.3989L299.078 53.4279C300.836 55.1823 303.688 55.1823 305.447 53.4279L314.499 44.3989C316.257 42.6444 316.257 39.7999 314.499 38.0455L305.447 29.0165C303.688 27.262 300.836 27.262 299.078 29.0165Z" fill="#466883"/>
<path d="M306.764 32.6724H297.75C295.501 32.6724 293.687 34.4886 293.687 36.7246V45.7165C293.687 47.9593 295.508 49.7687 297.75 49.7687H306.764C309.013 49.7687 310.827 47.9524 310.827 45.7165V36.7246C310.827 34.4818 309.006 32.6724 306.764 32.6724ZM309.585 42.483L303.516 48.5372C302.819 49.2321 301.695 49.2321 300.998 48.5372L294.929 42.483C294.232 41.7881 294.232 40.6667 294.929 39.9719L300.998 33.9176C301.695 33.2227 302.819 33.2227 303.516 33.9176L309.585 39.9719C310.282 40.6667 310.282 41.7881 309.585 42.483Z" fill="white"/>
<path d="M299.078 139.837L290.026 148.866C288.267 150.62 288.267 153.465 290.026 155.219L299.078 164.248C300.837 166.003 303.689 166.003 305.447 164.248L314.499 155.219C316.258 153.465 316.258 150.62 314.499 148.866L305.447 139.837C303.689 138.082 300.837 138.082 299.078 139.837Z" fill="#466883"/>
<path d="M306.764 143.492H297.75C295.501 143.492 293.687 145.308 293.687 147.544V156.536C293.687 158.779 295.508 160.589 297.75 160.589H306.764C309.013 160.589 310.827 158.772 310.827 156.536V147.544C310.827 145.302 309.006 143.492 306.764 143.492ZM309.585 153.303L303.516 159.357C302.819 160.052 301.695 160.052 300.998 159.357L294.929 153.303C294.232 152.608 294.232 151.487 294.929 150.792L300.998 144.737C301.695 144.043 302.819 144.043 303.516 144.737L309.585 150.792C310.282 151.487 310.282 152.608 309.585 153.303Z" fill="white"/>
<path d="M414.557 84.4261L405.506 93.4551C403.747 95.2096 403.747 98.0541 405.505 99.8085L414.557 108.838C416.316 110.592 419.168 110.592 420.927 108.838L429.978 99.8085C431.737 98.0541 431.737 95.2096 429.978 93.4551L420.927 84.4261C419.168 82.6717 416.316 82.6717 414.557 84.4261Z" fill="#466883"/>
<path d="M422.25 88.0825H413.236C410.987 88.0825 409.173 89.8988 409.173 92.1347V101.127C409.173 103.369 410.994 105.179 413.236 105.179H422.25C424.499 105.179 426.313 103.363 426.313 101.127V92.1347C426.313 89.8919 424.492 88.0825 422.25 88.0825ZM425.071 97.8931L419.002 103.947C418.305 104.642 417.181 104.642 416.484 103.947L410.415 97.8931C409.718 97.1983 409.718 96.0769 410.415 95.382L416.484 89.3278C417.181 88.6329 418.305 88.6329 419.002 89.3278L425.071 95.382C425.768 96.0769 425.768 97.1983 425.071 97.8931Z" fill="white"/>
<path d="M414.557 29.0155L405.505 38.0445C403.746 39.7989 403.746 42.6434 405.505 44.3979L414.557 53.4269C416.316 55.1813 419.168 55.1813 420.926 53.4269L429.978 44.3979C431.737 42.6434 431.737 39.7989 429.978 38.0445L420.926 29.0155C419.168 27.261 416.316 27.261 414.557 29.0155Z" fill="#466883"/>
<path d="M422.25 32.6724H413.236C410.987 32.6724 409.173 34.4886 409.173 36.7246V45.7165C409.173 47.9593 410.994 49.7687 413.236 49.7687H422.25C424.499 49.7687 426.313 47.9524 426.313 45.7165V36.7246C426.313 34.4818 424.492 32.6724 422.25 32.6724ZM425.071 42.483L419.002 48.5372C418.305 49.2321 417.181 49.2321 416.484 48.5372L410.415 42.483C409.718 41.7881 409.718 40.6667 410.415 39.9719L416.484 33.9176C417.181 33.2227 418.305 33.2227 419.002 33.9176L425.071 39.9719C425.768 40.6667 425.768 41.7881 425.071 42.483Z" fill="white"/>
<path d="M414.557 139.836L405.506 148.865C403.747 150.62 403.747 153.464 405.506 155.219L414.557 164.248C416.316 166.002 419.168 166.002 420.927 164.248L429.979 155.219C431.737 153.464 431.737 150.62 429.979 148.865L420.927 139.836C419.168 138.082 416.316 138.082 414.557 139.836Z" fill="#466883"/>
<path d="M422.25 143.492H413.236C410.987 143.492 409.173 145.308 409.173 147.544V156.536C409.173 158.779 410.994 160.589 413.236 160.589H422.25C424.499 160.589 426.313 158.772 426.313 156.536V147.544C426.313 145.302 424.492 143.492 422.25 143.492ZM425.071 153.303L419.002 159.357C418.305 160.052 417.181 160.052 416.484 159.357L410.415 153.303C409.718 152.608 409.718 151.487 410.415 150.792L416.484 144.737C417.181 144.043 418.305 144.043 419.002 144.737L425.071 150.792C425.768 151.487 425.768 152.608 425.071 153.303Z" fill="white"/>
<path d="M530.042 84.4276L520.99 93.4566C519.231 95.211 519.231 98.0556 520.99 99.81L530.042 108.839C531.8 110.593 534.652 110.593 536.411 108.839L545.463 99.81C547.222 98.0555 547.222 95.211 545.463 93.4566L536.411 84.4276C534.652 82.6732 531.8 82.6731 530.042 84.4276Z" fill="#466883"/>
<path d="M537.729 88.0825H528.715C526.466 88.0825 524.652 89.8988 524.652 92.1347V101.127C524.652 103.369 526.473 105.179 528.715 105.179H537.729C539.978 105.179 541.792 103.363 541.792 101.127V92.1347C541.792 89.8919 539.971 88.0825 537.729 88.0825ZM540.55 97.8931L534.481 103.947C533.784 104.642 532.66 104.642 531.963 103.947L525.894 97.8931C525.197 97.1983 525.197 96.0769 525.894 95.382L531.963 89.3278C532.66 88.6329 533.784 88.6329 534.481 89.3278L540.55 95.382C541.247 96.0769 541.247 97.1983 540.55 97.8931Z" fill="white"/>
<path d="M530.041 29.0169L520.99 38.0459C519.231 39.8004 519.231 42.6449 520.99 44.3993L530.041 53.4284C531.8 55.1828 534.652 55.1828 536.411 53.4283L545.463 44.3993C547.221 42.6449 547.221 39.8004 545.462 38.046L536.411 29.017C534.652 27.2625 531.8 27.2625 530.041 29.0169Z" fill="#466883"/>
<path d="M537.729 32.6724H528.715C526.466 32.6724 524.652 34.4886 524.652 36.7246V45.7165C524.652 47.9593 526.473 49.7687 528.715 49.7687H537.729C539.978 49.7687 541.792 47.9524 541.792 45.7165V36.7246C541.792 34.4818 539.971 32.6724 537.729 32.6724ZM540.55 42.483L534.481 48.5372C533.784 49.2321 532.66 49.2321 531.963 48.5372L525.894 42.483C525.197 41.7881 525.197 40.6667 525.894 39.9719L531.963 33.9176C532.66 33.2227 533.784 33.2227 534.481 33.9176L540.55 39.9719C541.247 40.6667 541.247 41.7881 540.55 42.483Z" fill="white"/>
<path d="M530.042 139.838L520.99 148.867C519.231 150.621 519.231 153.466 520.99 155.22L530.042 164.249C531.801 166.004 534.652 166.004 536.411 164.249L545.463 155.22C547.222 153.466 547.222 150.621 545.463 148.867L536.411 139.838C534.652 138.083 531.801 138.083 530.042 139.838Z" fill="#466883"/>
<path d="M537.729 143.493H528.715C526.466 143.493 524.652 145.309 524.652 147.545V156.537C524.652 158.78 526.473 160.589 528.715 160.589H537.729C539.978 160.589 541.792 158.773 541.792 156.537V147.545C541.792 145.302 539.971 143.493 537.729 143.493ZM540.55 153.303L534.481 159.358C533.784 160.052 532.66 160.052 531.963 159.358L525.894 153.303C525.197 152.608 525.197 151.487 525.894 150.792L531.963 144.738C532.66 144.043 533.784 144.043 534.481 144.738L540.55 150.792C541.247 151.487 541.247 152.608 540.55 153.303Z" fill="white"/>
<path d="M645.521 84.4266L636.469 93.4556C634.711 95.2101 634.71 98.0546 636.469 99.809L645.521 108.838C647.28 110.592 650.132 110.592 651.891 108.838L660.942 99.809C662.701 98.0546 662.701 95.2101 660.942 93.4556L651.89 84.4266C650.132 82.6722 647.28 82.6722 645.521 84.4266Z" fill="#466883"/>
<path d="M653.208 88.082H644.193C641.945 88.082 640.131 89.8983 640.131 92.1342V101.126C640.131 103.369 641.952 105.178 644.193 105.178H653.208C655.456 105.178 657.27 103.362 657.27 101.126V92.1342C657.27 89.8914 655.45 88.082 653.208 88.082ZM656.029 97.8927L649.959 103.947C649.263 104.642 648.139 104.642 647.442 103.947L641.372 97.8927C640.676 97.1978 640.676 96.0764 641.372 95.3815L647.442 89.3273C648.139 88.6324 649.263 88.6324 649.959 89.3273L656.029 95.3815C656.726 96.0764 656.726 97.1978 656.029 97.8927Z" fill="white"/>
<path d="M645.521 139.837L636.47 148.866C634.711 150.621 634.711 153.465 636.47 155.22L645.521 164.249C647.28 166.003 650.132 166.003 651.891 164.249L660.942 155.22C662.701 153.465 662.701 150.621 660.942 148.866L651.891 139.837C650.132 138.083 647.28 138.083 645.521 139.837Z" fill="#466883"/>
<path d="M653.208 143.493H644.193C641.945 143.493 640.131 145.309 640.131 147.545V156.537C640.131 158.78 641.952 160.589 644.193 160.589H653.208C655.456 160.589 657.27 158.773 657.27 156.537V147.545C657.27 145.302 655.45 143.493 653.208 143.493ZM656.029 153.303L649.959 159.358C649.263 160.052 648.139 160.052 647.442 159.358L641.372 153.303C640.676 152.608 640.676 151.487 641.372 150.792L647.442 144.738C648.139 144.043 649.263 144.043 649.959 144.738L656.029 150.792C656.726 151.487 656.726 152.608 656.029 153.303Z" fill="white"/>
<path d="M587.776 167.215L578.724 176.244C576.966 177.999 576.966 180.843 578.724 182.598L587.776 191.627C589.535 193.381 592.387 193.381 594.146 191.627L603.197 182.598C604.956 180.843 604.956 177.999 603.197 176.244L594.146 167.215C592.387 165.461 589.535 165.461 587.776 167.215Z" fill="#466883"/>
<path d="M586.457 187.964H595.472C597.72 187.964 599.534 186.147 599.534 183.911V174.919C599.534 172.677 597.714 170.867 595.472 170.867H586.457C584.209 170.867 582.395 172.683 582.395 174.919V183.911C582.395 186.154 584.216 187.964 586.457 187.964ZM583.636 178.153L589.706 172.099C590.403 171.404 591.527 171.404 592.223 172.099L598.293 178.153C598.99 178.848 598.99 179.969 598.293 180.664L592.223 186.718C591.527 187.413 590.403 187.413 589.706 186.718L583.636 180.664C582.94 179.969 582.94 178.848 583.636 178.153Z" fill="white"/>
<path d="M472.297 167.209L463.245 176.238C461.486 177.992 461.486 180.837 463.245 182.591L472.297 191.62C474.056 193.375 476.907 193.375 478.666 191.62L487.718 182.591C489.477 180.837 489.477 177.992 487.718 176.238L478.666 167.209C476.907 165.454 474.056 165.454 472.297 167.209Z" fill="#466883"/>
<path d="M470.972 187.964H479.986C482.235 187.964 484.049 186.147 484.049 183.911V174.919C484.049 172.677 482.228 170.867 479.986 170.867H470.972C468.723 170.867 466.909 172.683 466.909 174.919V183.911C466.909 186.154 468.73 187.964 470.972 187.964ZM468.151 178.153L474.22 172.099C474.917 171.404 476.041 171.404 476.738 172.099L482.807 178.153C483.504 178.848 483.504 179.969 482.807 180.664L476.738 186.718C476.041 187.413 474.917 187.413 474.22 186.718L468.151 180.664C467.454 179.969 467.454 178.848 468.151 178.153Z" fill="white"/>
<path d="M356.812 167.214L347.761 176.243C346.002 177.998 346.002 180.842 347.761 182.597L356.812 191.626C358.571 193.38 361.423 193.38 363.182 191.626L372.233 182.597C373.992 180.842 373.992 177.998 372.234 176.243L363.182 167.214C361.423 165.46 358.571 165.46 356.812 167.214Z" fill="#466883"/>
<path d="M355.493 187.964H364.507C366.756 187.964 368.57 186.147 368.57 183.911V174.919C368.57 172.677 366.749 170.867 364.507 170.867H355.493C353.244 170.867 351.43 172.683 351.43 174.919V183.911C351.43 186.154 353.251 187.964 355.493 187.964ZM352.672 178.153L358.741 172.099C359.438 171.404 360.562 171.404 361.259 172.099L367.328 178.153C368.025 178.848 368.025 179.969 367.328 180.664L361.259 186.718C360.562 187.413 359.438 187.413 358.741 186.718L352.672 180.664C351.975 179.969 351.975 178.848 352.672 178.153Z" fill="white"/>
<path d="M356.813 222.625L347.761 231.654C346.002 233.408 346.002 236.253 347.761 238.007L356.813 247.036C358.571 248.791 361.423 248.791 363.182 247.036L372.234 238.007C373.993 236.253 373.993 233.408 372.234 231.654L363.182 222.625C361.423 220.87 358.571 220.87 356.813 222.625Z" fill="#466883"/>
<path d="M355.493 243.374H364.507C366.756 243.374 368.57 241.557 368.57 239.321V230.33C368.57 228.087 366.749 226.277 364.507 226.277H355.493C353.244 226.277 351.43 228.094 351.43 230.33V239.321C351.43 241.564 353.251 243.374 355.493 243.374ZM352.672 233.563L358.741 227.509C359.438 226.814 360.562 226.814 361.259 227.509L367.328 233.563C368.025 234.258 368.025 235.379 367.328 236.074L361.259 242.128C360.562 242.823 359.438 242.823 358.741 242.128L352.672 236.074C351.975 235.379 351.975 234.258 352.672 233.563Z" fill="white"/>
<path d="M241.333 167.215L232.281 176.244C230.522 177.999 230.522 180.843 232.281 182.598L241.333 191.627C243.092 193.381 245.943 193.381 247.702 191.627L256.754 182.598C258.513 180.843 258.513 177.999 256.754 176.244L247.702 167.215C245.943 165.461 243.092 165.461 241.333 167.215Z" fill="#466883"/>
<path d="M240.007 187.964H249.021C251.27 187.964 253.084 186.148 253.084 183.912V174.92C253.084 172.677 251.263 170.868 249.021 170.868H240.007C237.758 170.868 235.944 172.684 235.944 174.92V183.912C235.944 186.155 237.765 187.964 240.007 187.964ZM237.186 178.153L243.255 172.099C243.952 171.404 245.076 171.404 245.773 172.099L251.842 178.153C252.539 178.848 252.539 179.97 251.842 180.665L245.773 186.719C245.076 187.414 243.952 187.414 243.255 186.719L237.186 180.665C236.489 179.97 236.489 178.848 237.186 178.153Z" fill="white"/>
<path d="M125.853 167.209L116.802 176.238C115.043 177.992 115.043 180.837 116.802 182.591L125.853 191.62C127.612 193.375 130.464 193.375 132.223 191.62L141.274 182.591C143.033 180.837 143.033 177.992 141.274 176.238L132.223 167.209C130.464 165.454 127.612 165.454 125.853 167.209Z" fill="#466883"/>
<path d="M124.528 187.964H133.542C135.791 187.964 137.605 186.147 137.605 183.911V174.919C137.605 172.677 135.784 170.867 133.542 170.867H124.528C122.279 170.867 120.465 172.683 120.465 174.919V183.911C120.465 186.154 122.286 187.964 124.528 187.964ZM121.707 178.153L127.776 172.099C128.473 171.404 129.597 171.404 130.294 172.099L136.363 178.153C137.06 178.848 137.06 179.969 136.363 180.664L130.294 186.718C129.597 187.413 128.473 187.413 127.776 186.718L121.707 180.664C121.01 179.969 121.01 178.848 121.707 178.153Z" fill="white"/>
<path d="M530.043 194.911L520.991 203.94C519.232 205.695 519.232 208.539 520.991 210.294L530.043 219.323C531.801 221.077 534.653 221.077 536.412 219.323L545.464 210.294C547.223 208.539 547.223 205.695 545.464 203.94L536.412 194.911C534.653 193.157 531.801 193.157 530.043 194.911Z" fill="#466883"/>
<path d="M528.715 215.669H537.729C539.978 215.669 541.792 213.852 541.792 211.616V202.624C541.792 200.382 539.971 198.572 537.729 198.572H528.715C526.466 198.572 524.652 200.389 524.652 202.624V211.616C524.652 213.859 526.473 215.669 528.715 215.669ZM525.894 205.858L531.963 199.804C532.66 199.109 533.784 199.109 534.481 199.804L540.55 205.858C541.247 206.553 541.247 207.674 540.55 208.369L534.481 214.423C533.784 215.118 532.66 215.118 531.963 214.423L525.894 208.369C525.197 207.674 525.197 206.553 525.894 205.858Z" fill="white"/>
<path d="M414.558 194.917L405.506 203.946C403.748 205.7 403.748 208.545 405.506 210.299L414.558 219.328C416.317 221.083 419.169 221.083 420.928 219.328L429.979 210.299C431.738 208.545 431.738 205.7 429.979 203.946L420.928 194.917C419.169 193.162 416.317 193.162 414.558 194.917Z" fill="#466883"/>
<path d="M413.236 215.669H422.25C424.499 215.669 426.313 213.852 426.313 211.616V202.624C426.313 200.382 424.492 198.572 422.25 198.572H413.236C410.987 198.572 409.173 200.389 409.173 202.624V211.616C409.173 213.859 410.994 215.669 413.236 215.669ZM410.415 205.858L416.484 199.804C417.181 199.109 418.305 199.109 419.002 199.804L425.071 205.858C425.768 206.553 425.768 207.674 425.071 208.369L419.002 214.423C418.305 215.118 417.181 215.118 416.484 214.423L410.415 208.369C409.718 207.674 409.718 206.553 410.415 205.858Z" fill="white"/>
<path d="M299.079 194.917L290.027 203.946C288.268 205.701 288.268 208.545 290.027 210.3L299.079 219.329C300.837 221.083 303.689 221.083 305.448 219.329L314.5 210.3C316.259 208.545 316.259 205.701 314.5 203.946L305.448 194.917C303.689 193.163 300.837 193.163 299.079 194.917Z" fill="#466883"/>
<path d="M297.75 215.669H306.764C309.013 215.669 310.827 213.852 310.827 211.616V202.624C310.827 200.382 309.006 198.572 306.764 198.572H297.75C295.501 198.572 293.687 200.389 293.687 202.624V211.616C293.687 213.859 295.508 215.669 297.75 215.669ZM294.929 205.858L300.998 199.804C301.695 199.109 302.819 199.109 303.516 199.804L309.585 205.858C310.282 206.553 310.282 207.674 309.585 208.369L303.516 214.423C302.819 215.118 301.695 215.118 300.998 214.423L294.929 208.369C294.232 207.674 294.232 206.553 294.929 205.858Z" fill="white"/>
<path d="M183.594 194.916L174.542 203.945C172.784 205.699 172.784 208.544 174.542 210.298L183.594 219.327C185.353 221.082 188.205 221.082 189.964 219.327L199.015 210.298C200.774 208.544 200.774 205.699 199.015 203.945L189.964 194.916C188.205 193.161 185.353 193.161 183.594 194.916Z" fill="#466883"/>
<path d="M182.271 215.669H191.285C193.534 215.669 195.348 213.852 195.348 211.616V202.624C195.348 200.382 193.527 198.572 191.285 198.572H182.271C180.022 198.572 178.208 200.389 178.208 202.624V211.616C178.208 213.859 180.029 215.669 182.271 215.669ZM179.45 205.858L185.519 199.804C186.216 199.109 187.34 199.109 188.037 199.804L194.106 205.858C194.803 206.553 194.803 207.674 194.106 208.369L188.037 214.423C187.34 215.118 186.216 215.118 185.519 214.423L179.45 208.369C178.753 207.674 178.753 206.553 179.45 205.858Z" fill="white"/>
</g>
<defs>
<clipPath id="clip0_145_17491">
<rect width="720" height="248.348" fill="white"/>
</clipPath>
</defs>
</svg>
