<svg width="57" height="60" viewBox="0 0 57 60" fill="none" xmlns="http://www.w3.org/2000/svg">
<g clip-path="url(#clip0_515_315)">
<path d="M24.634 2.50879H6.36325C4.22815 2.50879 2.49731 4.24753 2.49731 6.39238V26.1214C2.49731 28.2663 4.22815 30.005 6.36325 30.005H24.634C26.7691 30.005 28.4999 28.2663 28.4999 26.1214V6.39238C28.4999 4.24753 26.7691 2.50879 24.634 2.50879Z" stroke="#B2BDD4" stroke-width="5" stroke-miterlimit="10"/>
<path d="M50.6367 30.0049H32.3659C30.2308 30.0049 28.5 31.7436 28.5 33.8885V53.6175C28.5 55.7624 30.2308 57.5011 32.3659 57.5011H50.6367C52.7718 57.5011 54.5026 55.7624 54.5026 53.6175V33.8885C54.5026 31.7436 52.7718 30.0049 50.6367 30.0049Z" stroke="#B2BDD4" stroke-width="5" stroke-miterlimit="10"/>
<path d="M54.5027 13.3367V6.39238C54.5027 4.24754 52.7718 2.50879 50.6368 2.50879L42.9548 2.50879C40.8197 2.50879 39.0889 4.24754 39.0889 6.39238V13.3367C39.0889 15.4815 40.8197 17.2203 42.9548 17.2203H50.6368C52.7718 17.2203 54.5027 15.4815 54.5027 13.3367Z" stroke="#B2BDD4" stroke-width="5" stroke-miterlimit="10"/>
<path d="M17.9111 53.0056V46.0613C17.9111 43.9165 16.1803 42.1777 14.0452 42.1777H6.36329C4.22819 42.1777 2.49736 43.9165 2.49736 46.0613V53.0056C2.49736 55.1505 4.22819 56.8892 6.36329 56.8892H14.0452C16.1803 56.8892 17.9111 55.1505 17.9111 53.0056Z" stroke="#B2BDD4" stroke-width="5" stroke-miterlimit="10"/>
</g>
<defs>
<clipPath id="clip0_515_315">
<rect width="57" height="60" fill="white"/>
</clipPath>
</defs>
</svg>
